<svg id="Group_8714" data-name="Group 8714" xmlns="http://www.w3.org/2000/svg" xmlns:xlink="http://www.w3.org/1999/xlink" width="90" height="90" viewBox="0 0 90 90">
  <defs>
    <clipPath id="clip-path">
      <rect id="Rectangle_3000" data-name="Rectangle 3000" width="90" height="90" fill="none"/>
    </clipPath>
  </defs>
  <g id="Group_8714-2" data-name="Group 8714" clip-path="url(#clip-path)">
    <path id="Path_14955" data-name="Path 14955" d="M61.188,58.036c-1.49-2.189-4.245-3.475-7.209-4.182v0h-.014a30.634,30.634,0,0,0-6.9-.767l1.334.767H17.8c-4.745,0-13.675,6.689-14.185,12.888L1.768,88.177H62.347V83.106Z" fill="#fff"/>
    <path id="Path_14956" data-name="Path 14956" d="M8.658,89.583H1.407a1.4,1.4,0,0,1-1.4-1.527l1.85-21.439c.589-7.167,10.289-14.173,15.586-14.173a1.406,1.406,0,1,1,0,2.812c-4.113,0-12.335,6.144-12.783,11.6L2.94,86.77H8.658a1.407,1.407,0,0,1,0,2.813" fill="#3b4a62"/>
    <path id="Path_14957" data-name="Path 14957" d="M61.986,63.271a1.405,1.405,0,0,1-1.406-1.406c0-7.02-11.556-7.376-13.872-7.376a1.406,1.406,0,1,1,0-2.812c8.064,0,16.683,2.677,16.683,10.188a1.405,1.405,0,0,1-1.4,1.406" fill="#3b4a62"/>
    <path id="Path_14958" data-name="Path 14958" d="M53.617,53.85V73.622l8.368,5.1v9.451H9.073V78.725l8.368-5.1V53.85Z" fill="#dda94e"/>
    <path id="Path_14959" data-name="Path 14959" d="M61.986,89.584H9.073a1.406,1.406,0,0,1-1.407-1.407V78.726a1.408,1.408,0,0,1,.675-1.2l7.694-4.692V53.85a1.406,1.406,0,0,1,1.407-1.406H53.617a1.406,1.406,0,0,1,1.406,1.406V72.833l7.695,4.692a1.41,1.41,0,0,1,.674,1.2v9.451a1.406,1.406,0,0,1-1.406,1.407M10.479,86.771h50.1V79.516l-7.694-4.692a1.406,1.406,0,0,1-.674-1.2V55.257H18.848V73.623a1.408,1.408,0,0,1-.674,1.2l-7.695,4.692Z" fill="#3b4a62"/>
    <path id="Path_14960" data-name="Path 14960" d="M57.871,23.486H22.407V17.059A13.347,13.347,0,0,1,35.754,3.712h8.77A13.347,13.347,0,0,1,57.871,17.059Z" fill="#dda94e"/>
    <path id="Path_14961" data-name="Path 14961" d="M57.871,24.893H22.406A1.406,1.406,0,0,1,21,23.486V17.059A14.77,14.77,0,0,1,35.753,2.306h8.771A14.77,14.77,0,0,1,59.277,17.059v6.427a1.406,1.406,0,0,1-1.406,1.407M23.812,22.08H56.465V17.059A11.955,11.955,0,0,0,44.524,5.118H35.753A11.955,11.955,0,0,0,23.812,17.059Z" fill="#3b4a62"/>
    <path id="Path_14962" data-name="Path 14962" d="M57.871,23.486c-3.955,0-9.44-7.326-9.44-7.326V3.3a1.625,1.625,0,0,0-1.706-1.53H40.6A1.625,1.625,0,0,0,38.9,3.3V16.16s-5.486,7.326-9.44,7.326Z" fill="#dda94e"/>
    <path id="Path_14963" data-name="Path 14963" d="M57.871,24.893H29.454a1.406,1.406,0,0,1,0-2.813c2.328,0,6.226-4.09,8.035-6.4V3.3A3.032,3.032,0,0,1,40.6.361h6.123A3.031,3.031,0,0,1,49.836,3.3V15.684c2.042,2.618,5.78,6.4,8.035,6.4a1.406,1.406,0,1,1,0,2.813M35.278,22.08H52.047A34.009,34.009,0,0,1,47.3,17a1.416,1.416,0,0,1-.28-.844V3.3a.361.361,0,0,0-.3-.124H40.6a.347.347,0,0,0-.3.13V16.16a1.409,1.409,0,0,1-.28.844,33.951,33.951,0,0,1-4.743,5.076" fill="#3b4a62"/>
    <path id="Path_14964" data-name="Path 14964" d="M63.134,24.892H42.051a1.406,1.406,0,0,1,0-2.813H63.134a1.406,1.406,0,0,1,0,2.813" fill="#3b4a62"/>
    <path id="Path_14965" data-name="Path 14965" d="M24.351,10.141H55.926v7.176H47.6l-1.818-3.588-2.121,3.588H34.685c-.288,0-4.306-7.176-4.306-7.176" fill="#fff"/>
    <path id="Path_14966" data-name="Path 14966" d="M55.926,18.724H47.6a1.407,1.407,0,0,1-1.254-.771l-.659-1.3-.814,1.38a1.409,1.409,0,0,1-1.211.691H34.684c-.954,0-1.1,0-5.129-7.177h-5.2a1.406,1.406,0,0,1,0-2.812H55.926a1.406,1.406,0,0,1,1.406,1.406v7.176a1.406,1.406,0,0,1-1.406,1.407m-7.461-2.813H54.52V11.547H32.79c1.06,1.856,2.067,3.57,2.581,4.364h7.49l1.711-2.9a1.372,1.372,0,0,1,1.256-.69,1.4,1.4,0,0,1,1.209.77Z" fill="#3b4a62"/>
    <path id="Path_14967" data-name="Path 14967" d="M46.707,53.083V66.807c0,3.764-3.62,6.815-8.085,6.815H32.436c-4.465,0-8.085-3.051-8.085-6.815V53.083" fill="#fff"/>
    <path id="Path_14968" data-name="Path 14968" d="M38.622,75.029H32.437c-5.234,0-9.491-3.688-9.491-8.221V53.083a1.406,1.406,0,1,1,2.812,0V66.808c0,2.982,3,5.408,6.679,5.408h6.185c3.683,0,6.68-2.426,6.68-5.408V53.083a1.406,1.406,0,1,1,2.812,0V66.808c0,4.533-4.258,8.221-9.492,8.221" fill="#3b4a62"/>
    <path id="Path_14969" data-name="Path 14969" d="M24.351,53.083v-29.6H55.926V39.879a13.21,13.21,0,0,1-9.219,12.592L43.282,57.89a8.536,8.536,0,0,1-13.553,1.156Z" fill="#fff"/>
    <path id="Path_14970" data-name="Path 14970" d="M36.045,63.272a9.85,9.85,0,0,1-7.359-3.284l-5.378-5.963a1.405,1.405,0,0,1-.363-.942v-29.6a1.406,1.406,0,0,1,1.407-1.406H55.926a1.406,1.406,0,0,1,1.407,1.406V39.88a14.551,14.551,0,0,1-9.7,13.765l-3.157,5a9.868,9.868,0,0,1-7.56,4.594c-.291.024-.58.037-.867.037M25.758,52.543,30.773,58.1A7.13,7.13,0,0,0,42.1,57.138l3.423-5.418a1.416,1.416,0,0,1,.765-.589A11.751,11.751,0,0,0,54.52,39.88V24.892H25.758Z" fill="#3b4a62"/>
    <path id="Path_14971" data-name="Path 14971" d="M39.086,43.2c0,1.244,7.846,1.627,7.846,0" fill="#fff"/>
    <path id="Path_14972" data-name="Path 14972" d="M43.4,45.684a15.319,15.319,0,0,1-3.249-.328c-1.637-.375-2.467-1.1-2.467-2.16a1.406,1.406,0,0,1,2.623-.7,11.872,11.872,0,0,0,5.344.133,1.407,1.407,0,0,1,2.692.572c0,1.135-.857,2.488-4.943,2.488m-2.9-2.488h0Z" fill="#3b4a62"/>
    <line id="Line_1783" data-name="Line 1783" x2="9.951" transform="translate(32.058 81.464)" fill="#fff"/>
    <path id="Path_14973" data-name="Path 14973" d="M42.008,82.871H32.057a1.407,1.407,0,0,1,0-2.813h9.951a1.407,1.407,0,0,1,0,2.813" fill="#3b4a62"/>
    <rect id="Rectangle_2998" data-name="Rectangle 2998" width="31.403" height="25.095" transform="translate(52.504 79.414) rotate(-68.726)" fill="#fff"/>
    <path id="Path_14974" data-name="Path 14974" d="M75.889,89.925a1.391,1.391,0,0,1-.511-.1L51.992,80.724a1.406,1.406,0,0,1-.8-1.82L62.587,49.64a1.4,1.4,0,0,1,1.821-.8l23.384,9.1a1.405,1.405,0,0,1,.8,1.82L77.2,89.029a1.406,1.406,0,0,1-1.31.9M54.324,78.614,75.088,86.7,85.461,60.055,64.7,51.971Z" fill="#3b4a62"/>
    <rect id="Rectangle_2999" data-name="Rectangle 2999" width="4.735" height="13.439" transform="translate(69.328 52.265) rotate(-68.726)" fill="#fff"/>
    <path id="Path_14975" data-name="Path 14975" d="M81.851,58.547a1.393,1.393,0,0,1-.509-.1L68.818,53.575a1.4,1.4,0,0,1-.8-1.82l1.718-4.412a1.4,1.4,0,0,1,1.821-.8l12.523,4.876a1.407,1.407,0,0,1,.8,1.82l-1.716,4.412a1.408,1.408,0,0,1-1.311.9m-10.7-7.082,9.9,3.855.7-1.79-9.9-3.856Z" fill="#3b4a62"/>
    <path id="Path_14976" data-name="Path 14976" d="M83.189,79.856c1.132-2.907.057-6.039-2.4-7s-5.368.624-6.5,3.53-.057,6.04,2.4,7,5.368-.624,6.5-3.531" fill="#fff"/>
    <path id="Path_14977" data-name="Path 14977" d="M78.191,85.076a5.534,5.534,0,0,1-2.013-.379C73,83.46,71.565,79.5,72.978,75.88s5.151-5.564,8.319-4.331,4.614,5.192,3.2,8.817a7.579,7.579,0,0,1-3.392,3.94,6.094,6.094,0,0,1-2.917.77m1.093-11.091A4.25,4.25,0,0,0,75.6,76.9c-.849,2.18-.13,4.5,1.6,5.176a3.028,3.028,0,0,0,2.565-.241,4.779,4.779,0,0,0,2.114-2.489c.848-2.18.128-4.5-1.6-5.176a2.729,2.729,0,0,0-.992-.185" fill="#3b4a62"/>
  </g>
</svg>
