<svg xmlns="http://www.w3.org/2000/svg" width="136" height="11.361" viewBox="0 0 136 11.361">
  <g id="Group_6006" data-name="Group 6006" transform="translate(-669.674 -158.395)">
    <path id="Path_20" data-name="Path 20" d="M296.285,690.878c-2.487,0-3.371,1.047-3.5,3.078h12.093v1.62H292.783c.131,2.014,1.014,3.045,3.5,3.045h8.82v1.735h-8.82c-3.895,0-5.335-1.882-5.335-5.6s1.44-5.6,5.335-5.6h8.82v1.719Z" transform="translate(378.724 -530.765)" fill="#333"/>
    <path id="Path_21" data-name="Path 21" d="M318.864,689.159v6.679c0,2.063.917,2.75,3.518,2.75h7.38v1.768h-7.38c-3.649,0-5.318-1.293-5.318-4.518v-6.679Z" transform="translate(370.856 -530.765)" fill="#333"/>
    <path id="Path_22" data-name="Path 22" d="M344.414,690.878c-2.487,0-3.371,1.047-3.5,3.078H353v1.62H340.912c.131,2.014,1.014,3.045,3.5,3.045h8.82v1.735h-8.82c-3.895,0-5.335-1.882-5.335-5.6s1.44-5.6,5.335-5.6h8.82v1.719Z" transform="translate(364.223 -530.765)" fill="#333"/>
    <path id="Path_23" data-name="Path 23" d="M378.575,690.911h-8.82c-2.863,0-3.485,1.309-3.485,3.847s.638,3.83,3.485,3.83h8.82v1.768h-8.82c-3.878,0-5.335-1.866-5.335-5.6,0-3.716,1.44-5.6,5.335-5.6h8.82Z" transform="translate(356.588 -530.765)" fill="#333"/>
    <path id="Path_24" data-name="Path 24" d="M394.835,700.356V690.8h-5.777v-1.636h13.353V690.8h-5.777v9.56Z" transform="translate(349.164 -530.765)" fill="#333"/>
    <path id="Path_25" data-name="Path 25" d="M412.619,689.159h9.655c2.733,0,4.238,1.342,4.238,3.422a2.926,2.926,0,0,1-2.406,3.012,2.618,2.618,0,0,1,2.127,2.619v2.144h-1.865v-2.177c0-.9-.573-1.768-2.16-1.768H414.42v3.945h-1.8Zm9.786,5.648a2.034,2.034,0,1,0,0-4.043H414.42v4.043Z" transform="translate(342.065 -530.765)" fill="#333"/>
    <path id="Path_26" data-name="Path 26" d="M437.023,689.159h1.8V695c0,2.946,1.1,3.748,5.04,3.748,3.96,0,5.04-.8,5.04-3.748v-5.844h1.817V695c0,4.01-1.849,5.517-6.856,5.517-4.942,0-6.84-1.474-6.84-5.517Z" transform="translate(334.712 -530.765)" fill="#333"/>
    <path id="Path_27" data-name="Path 27" d="M463.64,691.123v9.233h-1.767v-11.2h1.734a1.48,1.48,0,0,1,1.244.671l5.3,6.335,5.319-6.335a1.5,1.5,0,0,1,1.244-.671h1.735v11.2h-1.768v-9.233l-5.793,6.826h-1.456Z" transform="translate(327.225 -530.765)" fill="#333"/>
  </g>
</svg>
