<svg id="Group_8717" data-name="Group 8717" xmlns="http://www.w3.org/2000/svg" xmlns:xlink="http://www.w3.org/1999/xlink" width="90" height="90" viewBox="0 0 90 90">
  <defs>
    <clipPath id="clip-path">
      <rect id="Rectangle_3006" data-name="Rectangle 3006" width="90" height="90" fill="none"/>
    </clipPath>
  </defs>
  <g id="Group_8720" data-name="Group 8720" clip-path="url(#clip-path)">
    <path id="Path_15011" data-name="Path 15011" d="M74.792,67.976H15.209a5.641,5.641,0,0,1-5.641-5.64V17.887a5.641,5.641,0,0,1,5.641-5.64H74.792a5.64,5.64,0,0,1,5.64,5.64V62.336a5.64,5.64,0,0,1-5.64,5.64" fill="#fff"/>
    <path id="Path_15012" data-name="Path 15012" d="M60.469,69.382a1.406,1.406,0,0,1-1.406-1.406V42.559a1.406,1.406,0,0,1,2.812,0V67.976a1.406,1.406,0,0,1-1.406,1.406" fill="#dda94e"/>
    <path id="Path_15013" data-name="Path 15013" d="M70.781,69.382a1.406,1.406,0,0,1-1.406-1.406V31.934a1.406,1.406,0,1,1,2.812,0V67.976a1.406,1.406,0,0,1-1.406,1.406" fill="#dda94e"/>
    <path id="Path_15014" data-name="Path 15014" d="M25.223,21.812a3,3,0,1,1-3-3,3,3,0,0,1,3,3" fill="#dda94e"/>
    <path id="Path_15015" data-name="Path 15015" d="M22.221,26.221a4.41,4.41,0,1,1,4.408-4.409,4.413,4.413,0,0,1-4.408,4.409m0-6.006a1.6,1.6,0,1,0,1.6,1.6,1.6,1.6,0,0,0-1.6-1.6" fill="#3b4a62"/>
    <path id="Path_15016" data-name="Path 15016" d="M25.223,31.934a3,3,0,1,1-3-3,3,3,0,0,1,3,3" fill="#dda94e"/>
    <path id="Path_15017" data-name="Path 15017" d="M22.221,36.343a4.409,4.409,0,1,1,4.408-4.409,4.413,4.413,0,0,1-4.408,4.409m0-6a1.6,1.6,0,1,0,1.6,1.6,1.6,1.6,0,0,0-1.6-1.6" fill="#3b4a62"/>
    <path id="Path_15018" data-name="Path 15018" d="M31.473,26.22h17.4a1.405,1.405,0,0,0,1.406-1.406v-6A1.406,1.406,0,0,0,48.87,17.4h-17.4a1.406,1.406,0,0,0-1.406,1.406v6a1.405,1.405,0,0,0,1.406,1.406m1.406-6H47.463v3.192H32.879Z" fill="#3b4a62"/>
    <path id="Path_15019" data-name="Path 15019" d="M73.72,16.811a1.4,1.4,0,0,0-1.31-.141l-7.18,2.872a1.406,1.406,0,1,0,1.044,2.611l2.9-1.159-9.657,14.83-10,4.547-9.669,4.981-9.668-4.981a1.413,1.413,0,0,0-1.456.1L18.408,47.765a1.406,1.406,0,1,0,1.623,2.3l9.616-6.8L39.2,48.185a1.413,1.413,0,0,0,1.288,0L50.739,42.9l10.312-4.687a1.411,1.411,0,0,0,.6-.512l9.878-15.168V25.84a1.406,1.406,0,1,0,2.813,0V17.976a1.408,1.408,0,0,0-.618-1.165" fill="#3b4a62"/>
    <path id="Path_15020" data-name="Path 15020" d="M74.792,10.841h-26.2V6.883a1.406,1.406,0,0,0-1.406-1.407H42.812a1.406,1.406,0,0,0-1.406,1.407v3.958h-26.2a7.055,7.055,0,0,0-7.047,7.046V62.336a7.055,7.055,0,0,0,7.047,7.046H35.081L25.733,86.691a1.406,1.406,0,1,0,2.474,1.337l10.07-18.646H51.723l10.07,18.646a1.406,1.406,0,1,0,2.474-1.337L54.919,69.382H74.792a7.055,7.055,0,0,0,7.047-7.046V17.887a7.055,7.055,0,0,0-7.047-7.046M44.219,8.289h1.563v2.552H44.219ZM79.026,62.336a4.238,4.238,0,0,1-4.234,4.234H51.563V48.393a1.406,1.406,0,0,0-2.813,0V66.57h-7.5V51.309a1.406,1.406,0,0,0-2.813,0V66.57h-7.5V51.309a1.406,1.406,0,0,0-2.812,0V66.57h-7.5V58.6a1.406,1.406,0,1,0-2.812,0V66.57h-2.6a4.238,4.238,0,0,1-4.234-4.234V17.887a4.238,4.238,0,0,1,4.234-4.233H74.792a4.238,4.238,0,0,1,4.234,4.233Z" fill="#3b4a62"/>
  </g>
</svg>
