<svg id="Group_8715" data-name="Group 8715" xmlns="http://www.w3.org/2000/svg" xmlns:xlink="http://www.w3.org/1999/xlink" width="90" height="90" viewBox="0 0 90 90">
  <defs>
    <clipPath id="clip-path">
      <rect id="Rectangle_3001" data-name="Rectangle 3001" width="90" height="90" fill="none"/>
    </clipPath>
  </defs>
  <g id="Group_8716" data-name="Group 8716" clip-path="url(#clip-path)">
    <path id="Path_14978" data-name="Path 14978" d="M66.467,33.045A21.469,21.469,0,1,0,30.235,48.608a12.8,12.8,0,0,1,4.148,9.261v5.1A2.712,2.712,0,0,0,37.1,65.683H52.9a2.712,2.712,0,0,0,2.712-2.712V57.543A12.015,12.015,0,0,1,59.6,48.765a21.372,21.372,0,0,0,6.87-15.72" fill="#fff"/>
    <path id="Path_14979" data-name="Path 14979" d="M52.9,67.089H37.094a4.122,4.122,0,0,1-4.116-4.118v-5.1a11.337,11.337,0,0,0-3.709-8.24A22.722,22.722,0,0,1,22.33,29.966,22.993,22.993,0,0,1,42.347,10.321,22.879,22.879,0,0,1,67.873,33.045,22.92,22.92,0,0,1,60.553,49.8a10.545,10.545,0,0,0-3.531,7.747v5.428A4.122,4.122,0,0,1,52.9,67.089M45.028,12.982a21.227,21.227,0,0,0-2.365.134A20.151,20.151,0,0,0,25.118,30.331,19.934,19.934,0,0,0,31.2,47.588a14.118,14.118,0,0,1,4.586,10.281l0,5.1a1.305,1.305,0,0,0,1.3,1.306H52.9a1.307,1.307,0,0,0,1.306-1.305V57.543a13.326,13.326,0,0,1,4.431-9.809,20.039,20.039,0,0,0-.28-29.654,19.827,19.827,0,0,0-13.333-5.1" fill="#3b4a62"/>
    <path id="Path_14980" data-name="Path 14980" d="M53.44,65.683H36.559V79.96a2.249,2.249,0,0,0,2.249,2.25H51.191a2.249,2.249,0,0,0,2.249-2.25Z" fill="#dda94e"/>
    <path id="Path_14981" data-name="Path 14981" d="M51.191,83.616H38.809a3.66,3.66,0,0,1-3.656-3.656V65.683a1.406,1.406,0,0,1,1.407-1.407H53.44a1.406,1.406,0,0,1,1.406,1.407V79.96a3.659,3.659,0,0,1-3.655,3.656M37.966,67.089V79.96a.844.844,0,0,0,.843.843H51.191a.844.844,0,0,0,.843-.843V67.089Z" fill="#3b4a62"/>
    <path id="Path_14982" data-name="Path 14982" d="M38.74,82.209a6.26,6.26,0,0,0,12.521,0Z" fill="#fff"/>
    <path id="Path_14983" data-name="Path 14983" d="M45,89.876a7.675,7.675,0,0,1-7.666-7.666A1.406,1.406,0,0,1,38.74,80.8H51.261a1.406,1.406,0,0,1,1.406,1.407A7.676,7.676,0,0,1,45,89.876m-4.646-6.26a4.855,4.855,0,0,0,9.293,0Z" fill="#3b4a62"/>
    <path id="Path_14984" data-name="Path 14984" d="M52.8,42.746c0-5.365-4.9-7.877-7.5-8.456a1.384,1.384,0,0,0-.141-.024c-.206-.024-5.05-.644-5.051-4.954A4.577,4.577,0,0,1,45,24.805a4.281,4.281,0,0,1,4.673,4.456,1.408,1.408,0,0,0,1.394,1.412h.013a1.407,1.407,0,0,0,1.406-1.394,8.042,8.042,0,0,0-2.107-5.272,6.8,6.8,0,0,0-3.973-1.9V19.138a1.406,1.406,0,1,0-2.812,0V22.1A7.3,7.3,0,0,0,37.3,29.266c0,5.4,4.819,7.442,7.446,7.782.609.154,5.241,1.46,5.241,5.7,0,4.118-4.839,4.344-5.307,4.357-.228-.01-5.572-.3-5.572-4.568a1.406,1.406,0,1,0-2.812,0c0,4.971,4.281,6.847,7.3,7.279v2.954a1.406,1.406,0,1,0,2.812,0V49.721c2.841-.558,6.4-2.428,6.4-6.975" fill="#3b4a62"/>
    <path id="Path_14985" data-name="Path 14985" d="M45,67.089a1.406,1.406,0,0,1-1.406-1.406V58.152a1.406,1.406,0,1,1,2.812,0v7.531A1.406,1.406,0,0,1,45,67.089" fill="#3b4a62"/>
    <path id="Path_14986" data-name="Path 14986" d="M53.44,72.288H42.084a1.407,1.407,0,0,1,0-2.813H53.44a1.407,1.407,0,0,1,0,2.813" fill="#3b4a62"/>
    <path id="Path_14987" data-name="Path 14987" d="M53.44,77.952H42.084a1.407,1.407,0,0,1,0-2.813H53.44a1.407,1.407,0,0,1,0,2.813" fill="#3b4a62"/>
    <line id="Line_1784" data-name="Line 1784" y2="3.649" transform="translate(45 1.53)" fill="#fff"/>
    <path id="Path_14988" data-name="Path 14988" d="M45,6.586A1.406,1.406,0,0,1,43.594,5.18V1.53a1.406,1.406,0,1,1,2.812,0V5.18A1.406,1.406,0,0,1,45,6.586" fill="#3b4a62"/>
    <line id="Line_1785" data-name="Line 1785" x1="3.649" transform="translate(74.374 32.94)" fill="#fff"/>
    <path id="Path_14989" data-name="Path 14989" d="M78.023,34.346h-3.65a1.406,1.406,0,0,1,0-2.813h3.65a1.406,1.406,0,0,1,0,2.813" fill="#3b4a62"/>
    <line id="Line_1786" data-name="Line 1786" x1="3.649" transform="translate(11.978 32.94)" fill="#fff"/>
    <path id="Path_14990" data-name="Path 14990" d="M15.626,34.346H11.977a1.406,1.406,0,0,1,0-2.813h3.649a1.406,1.406,0,0,1,0,2.813" fill="#3b4a62"/>
  </g>
</svg>
