<?xml version="1.0" encoding="UTF-8"?>
<svg xmlns="http://www.w3.org/2000/svg" xmlns:xlink="http://www.w3.org/1999/xlink" width="3872.97" height="3872.97" viewBox="0 0 3872.97 3872.97">
<defs>
<clipPath id="clip-0">
<path clip-rule="nonzero" d="M 0 0 L 3872.96875 0 L 3872.96875 3872.96875 L 0 3872.96875 Z M 0 0 "/>
</clipPath>
<clipPath id="clip-1">
<path clip-rule="nonzero" d="M 770 1164 L 3103 1164 L 3103 2709 L 770 2709 Z M 770 1164 "/>
</clipPath>
<clipPath id="clip-2">
<path clip-rule="evenodd" d="M 2789.199219 2335.359375 C 2790.261719 2336.929688 2791.320312 2338.53125 2792.339844 2340.121094 Z M 1547.289062 2599.890625 C 1475.089844 2599.890625 1416.351562 2541.140625 1416.351562 2468.941406 C 1416.351562 2396.738281 1475.089844 2337.988281 1547.289062 2337.988281 C 1588.96875 2337.988281 1628.550781 2358.140625 1653.160156 2391.851562 C 1662.058594 2404.050781 1659.390625 2421.140625 1647.199219 2430.019531 C 1635.019531 2438.941406 1617.921875 2436.25 1609.03125 2424.070312 C 1594.671875 2404.398438 1571.601562 2392.671875 1547.308594 2392.671875 C 1505.25 2392.671875 1471.011719 2426.890625 1471.011719 2468.960938 C 1471.011719 2511.03125 1505.238281 2545.230469 1547.308594 2545.230469 C 1562.398438 2545.230469 1574.628906 2557.488281 1574.628906 2572.558594 C 1574.628906 2587.628906 1562.398438 2599.890625 1547.289062 2599.890625 Z M 1547.289062 2284.480469 C 1548.890625 2284.480469 1550.46875 2284.5 1552.050781 2284.539062 C 1553.628906 2284.578125 1555.199219 2284.628906 1556.78125 2284.71875 C 1558.339844 2284.800781 1559.921875 2284.890625 1561.46875 2285 C 1563.039062 2285.128906 1564.578125 2285.261719 1566.128906 2285.429688 L 1566.140625 2285.429688 C 1567.679688 2285.578125 1569.230469 2285.761719 1570.761719 2285.96875 L 1570.769531 2285.96875 C 1572.300781 2286.148438 1573.828125 2286.371094 1575.359375 2286.601562 C 1576.890625 2286.839844 1578.410156 2287.101562 1579.910156 2287.359375 L 1579.921875 2287.359375 C 1581.429688 2287.628906 1582.941406 2287.910156 1584.429688 2288.230469 L 1584.441406 2288.230469 C 1585.929688 2288.539062 1587.429688 2288.859375 1588.910156 2289.210938 L 1588.921875 2289.210938 C 1590.398438 2289.539062 1591.878906 2289.921875 1593.351562 2290.289062 L 1593.359375 2290.289062 C 1594.828125 2290.679688 1596.289062 2291.058594 1597.738281 2291.46875 L 1597.75 2291.488281 C 1599.199219 2291.898438 1600.648438 2292.328125 1602.089844 2292.769531 L 1602.101562 2292.789062 C 1603.550781 2293.230469 1604.980469 2293.699219 1606.398438 2294.179688 L 1606.410156 2294.179688 C 1607.839844 2294.660156 1609.25 2295.160156 1610.660156 2295.679688 L 1610.671875 2295.679688 C 1612.078125 2296.199219 1613.480469 2296.738281 1614.871094 2297.289062 L 1614.878906 2297.289062 C 1616.269531 2297.828125 1617.660156 2298.410156 1619.039062 2298.980469 L 1619.050781 2299 C 1620.429688 2299.570312 1621.789062 2300.171875 1623.140625 2300.800781 L 1623.160156 2300.800781 C 1627.238281 2302.628906 1631.25 2304.640625 1635.160156 2306.769531 L 1635.179688 2306.769531 C 1636.46875 2307.46875 1637.769531 2308.210938 1639.050781 2308.941406 L 1639.058594 2308.960938 C 1640.351562 2309.679688 1641.621094 2310.441406 1642.890625 2311.21875 L 1642.898438 2311.21875 C 1645.429688 2312.761719 1647.921875 2314.351562 1650.371094 2316.019531 L 1650.390625 2316.019531 C 1651.609375 2316.851562 1652.820312 2317.691406 1654.019531 2318.539062 L 1654.03125 2318.539062 C 1655.238281 2319.410156 1656.421875 2320.28125 1657.609375 2321.160156 C 1661.160156 2323.828125 1664.609375 2326.609375 1667.960938 2329.5 L 1667.96875 2329.519531 C 1670.210938 2331.449219 1672.390625 2333.429688 1674.511719 2335.449219 L 1674.53125 2335.46875 C 1675.589844 2336.488281 1676.640625 2337.511719 1677.679688 2338.550781 L 1677.699219 2338.558594 C 1678.75 2339.601562 1679.761719 2340.660156 1680.78125 2341.71875 L 1680.789062 2341.738281 L 1683.800781 2344.960938 L 1683.820312 2344.980469 C 1713.601562 2377.738281 1731.769531 2421.269531 1731.769531 2468.960938 C 1731.769531 2570.691406 1649.019531 2653.429688 1547.289062 2653.429688 C 1445.570312 2653.429688 1362.820312 2570.691406 1362.820312 2468.960938 C 1362.820312 2367.191406 1445.570312 2284.480469 1547.289062 2284.480469 Z M 1773.878906 2392.519531 C 1775.121094 2396.148438 1776.28125 2399.839844 1777.328125 2403.570312 Z M 1153.101562 2282.351562 C 1152.839844 2266.800781 1153.550781 2251.5 1155.199219 2236.871094 L 1224.390625 2236.871094 L 1224.390625 2282.351562 Z M 2828.53125 2441.609375 L 2863.421875 2441.609375 C 2945.5 2432.898438 3027.71875 2414.558594 3047.410156 2400.96875 L 3047.410156 2292.160156 L 2875.941406 2292.160156 C 2860.859375 2292.160156 2848.628906 2279.898438 2848.628906 2264.828125 C 2848.628906 2249.78125 2860.878906 2237.519531 2875.941406 2237.519531 L 2990.980469 2237.519531 C 2918.371094 2188.570312 2799.898438 2120.660156 2706.050781 2124.609375 L 2637.121094 2124.609375 L 2635.710938 2124.648438 L 2634.320312 2124.609375 L 2386.621094 2124.609375 L 2345.761719 2277.078125 C 2342.570312 2288.988281 2331.71875 2297.308594 2319.378906 2297.308594 L 1915.058594 2297.308594 C 1899.988281 2297.308594 1887.75 2285.058594 1887.75 2270 C 1887.75 2254.929688 1899.988281 2242.671875 1915.058594 2242.671875 L 2298.410156 2242.671875 L 2330.050781 2124.609375 L 1573.121094 2124.609375 L 1572 2124.648438 L 1570.910156 2124.609375 L 1222.351562 2124.628906 C 1193.230469 2125.800781 1176.398438 2154 1166.839844 2182.210938 L 1251.691406 2182.210938 C 1266.769531 2182.210938 1279.011719 2194.46875 1279.011719 2209.519531 L 1279.011719 2309.679688 C 1279.03125 2324.769531 1266.789062 2337.011719 1251.710938 2337.011719 L 1157.820312 2337.011719 C 1166.519531 2389.570312 1185.710938 2430.988281 1206.550781 2441.589844 L 1309.730469 2441.589844 C 1323.328125 2322.578125 1424.691406 2229.789062 1547.28125 2229.789062 C 1609.070312 2229.789062 1665.449219 2253.371094 1707.941406 2291.96875 L 1708.140625 2292.160156 C 1709.488281 2293.378906 1710.828125 2294.640625 1712.148438 2295.898438 L 1712.238281 2295.980469 C 1713.589844 2297.28125 1714.929688 2298.570312 1716.25 2299.890625 L 1716.359375 2300.019531 C 1717.640625 2301.300781 1718.910156 2302.601562 1720.160156 2303.910156 L 1720.46875 2304.230469 C 1721.640625 2305.449219 1722.800781 2306.691406 1723.929688 2307.941406 L 1724.441406 2308.488281 C 1725.601562 2309.789062 1726.761719 2311.070312 1727.890625 2312.390625 L 1728.121094 2312.648438 C 1729.28125 2313.980469 1730.421875 2315.328125 1731.539062 2316.691406 L 1731.828125 2317.058594 C 1740.269531 2327.289062 1747.871094 2338.230469 1754.539062 2349.761719 L 1755.078125 2350.730469 L 1757.371094 2354.820312 L 1757.738281 2355.488281 C 1758.511719 2356.921875 1759.28125 2358.371094 1760.03125 2359.808594 L 1760.53125 2360.808594 L 1762.46875 2364.71875 L 1763.171875 2366.171875 L 1764.898438 2369.859375 L 1765.5 2371.199219 C 1766.148438 2372.621094 1766.78125 2374.070312 1767.398438 2375.53125 L 1767.699219 2376.238281 C 1768.351562 2377.78125 1768.980469 2379.320312 1769.601562 2380.871094 L 1769.898438 2381.601562 C 1770.558594 2383.28125 1771.199219 2384.949219 1771.820312 2386.640625 L 1771.890625 2386.859375 C 1772.480469 2388.46875 1773.058594 2390.109375 1773.621094 2391.71875 L 1773.878906 2392.519531 C 1775.121094 2396.148438 1776.28125 2399.839844 1777.328125 2403.570312 C 1778.921875 2409.128906 1780.300781 2414.78125 1781.480469 2420.488281 L 1781.761719 2421.960938 L 1782.558594 2426.109375 L 1782.851562 2427.738281 C 1783.109375 2429.191406 1783.351562 2430.648438 1783.578125 2432.121094 L 1783.761719 2433.308594 L 1784.410156 2437.980469 L 1784.570312 2439.261719 L 1784.859375 2441.589844 L 2353.359375 2441.589844 C 2366.949219 2322.578125 2468.328125 2229.789062 2590.921875 2229.789062 C 2623.898438 2229.808594 2655.328125 2236.519531 2683.929688 2248.640625 L 2684.03125 2248.679688 C 2685.769531 2249.421875 2687.511719 2250.179688 2689.21875 2250.960938 L 2689.441406 2251.050781 C 2691.089844 2251.808594 2692.738281 2252.578125 2694.351562 2253.351562 L 2694.890625 2253.609375 C 2696.390625 2254.351562 2697.890625 2255.101562 2699.378906 2255.859375 L 2700.191406 2256.261719 C 2701.640625 2257.011719 2703.078125 2257.769531 2704.511719 2258.558594 L 2705.21875 2258.929688 C 2706.628906 2259.691406 2708.019531 2260.46875 2709.410156 2261.269531 L 2710.21875 2261.75 C 2711.648438 2262.570312 2713.039062 2263.398438 2714.429688 2264.238281 L 2715.140625 2264.660156 C 2716.449219 2265.480469 2717.769531 2266.289062 2719.070312 2267.128906 L 2720.070312 2267.761719 C 2721.378906 2268.589844 2722.679688 2269.460938 2723.960938 2270.339844 L 2724.738281 2270.839844 C 2726.039062 2271.730469 2727.328125 2272.621094 2728.609375 2273.53125 L 2729.429688 2274.101562 C 2735.589844 2278.480469 2741.5 2283.148438 2747.210938 2288.058594 L 2748.101562 2288.859375 L 2751.289062 2291.699219 L 2752.570312 2292.859375 L 2755.421875 2295.511719 L 2756.738281 2296.78125 L 2759.351562 2299.328125 L 2760.800781 2300.800781 L 2763.46875 2303.519531 L 2764.449219 2304.558594 L 2767.199219 2307.511719 L 2768.53125 2308.96875 L 2770.890625 2311.628906 L 2772.128906 2313.050781 L 2774.578125 2315.929688 L 2775.820312 2317.410156 L 2778.210938 2320.378906 L 2779.269531 2321.710938 L 2781.75 2324.960938 L 2782.679688 2326.179688 C 2784.898438 2329.171875 2787.070312 2332.191406 2789.148438 2335.28125 L 2789.199219 2335.359375 C 2790.261719 2336.929688 2791.320312 2338.53125 2792.339844 2340.121094 L 2792.558594 2340.46875 C 2793.488281 2341.921875 2794.398438 2343.371094 2795.289062 2344.828125 L 2795.929688 2345.921875 C 2796.691406 2347.191406 2797.441406 2348.429688 2798.179688 2349.710938 L 2798.96875 2351.121094 L 2800.808594 2354.359375 L 2801.921875 2356.460938 L 2803.5 2359.421875 L 2804.429688 2361.238281 L 2806.089844 2364.609375 L 2806.871094 2366.230469 L 2808.519531 2369.75 L 2809.261719 2371.378906 L 2810.859375 2375.011719 L 2811.53125 2376.589844 L 2813.050781 2380.300781 L 2813.679688 2381.890625 L 2815.03125 2385.421875 L 2815.738281 2387.308594 L 2817.261719 2391.628906 L 2817.550781 2392.480469 C 2818.738281 2395.980469 2819.851562 2399.539062 2820.871094 2403.121094 L 2821 2403.570312 L 2821.019531 2403.578125 L 2821.089844 2403.921875 C 2821.589844 2405.660156 2822.078125 2407.398438 2822.519531 2409.148438 L 2822.800781 2410.28125 L 2823.871094 2414.691406 L 2824.359375 2416.820312 L 2825.078125 2420.160156 L 2825.578125 2422.699219 L 2826.210938 2425.949219 L 2826.640625 2428.359375 L 2827.171875 2431.640625 L 2827.53125 2434.03125 L 2828.03125 2437.5 L 2828.308594 2439.871094 Z M 1607.578125 2070.011719 L 1673.699219 1823.160156 C 1858.359375 1821.800781 2103.078125 1820.628906 2150.289062 1820.410156 L 2542.03125 2069.988281 L 2366.429688 2069.988281 C 2365.859375 2069.96875 2365.28125 2069.96875 2364.691406 2069.988281 Z M 1267.238281 2070.03125 C 1310.101562 1992.53125 1417.570312 1825.550781 1548.058594 1824.21875 C 1568.511719 1824.019531 1591.800781 1823.800781 1617.011719 1823.601562 L 1550.980469 2070.011719 Z M 2428.78125 2381.078125 C 2425.929688 2386.308594 2423.351562 2391.679688 2421.011719 2397.210938 L 2421 2397.210938 C 2411.648438 2419.269531 2406.5 2443.519531 2406.5 2468.960938 L 2406.480469 2469.53125 C 2406.789062 2571.019531 2489.429688 2653.429688 2590.96875 2653.429688 C 2692.71875 2653.429688 2775.449219 2570.691406 2775.449219 2468.960938 C 2775.449219 2422.851562 2758.460938 2380.648438 2730.410156 2348.28125 C 2729.449219 2347.171875 2728.46875 2346.050781 2727.480469 2344.980469 L 2727.460938 2344.960938 L 2724.460938 2341.738281 L 2724.441406 2341.71875 C 2723.421875 2340.660156 2722.421875 2339.601562 2721.371094 2338.558594 L 2721.351562 2338.550781 C 2720.308594 2337.511719 2719.269531 2336.488281 2718.199219 2335.46875 L 2718.199219 2335.449219 L 2717.949219 2335.25 C 2716.03125 2333.410156 2714.039062 2331.609375 2712.039062 2329.851562 L 2711.648438 2329.519531 L 2711.628906 2329.5 L 2711.078125 2329.039062 C 2707.910156 2326.289062 2704.640625 2323.679688 2701.269531 2321.160156 C 2700.101562 2320.28125 2698.910156 2319.410156 2697.710938 2318.539062 L 2697.691406 2318.539062 C 2696.480469 2317.691406 2695.28125 2316.851562 2694.058594 2316.019531 L 2694.039062 2316.019531 C 2691.589844 2314.351562 2689.109375 2312.761719 2686.570312 2311.21875 L 2686.550781 2311.21875 C 2685.289062 2310.441406 2684.03125 2309.679688 2682.730469 2308.960938 L 2682.730469 2308.941406 C 2681.449219 2308.210938 2680.148438 2307.46875 2678.851562 2306.769531 L 2678.828125 2306.769531 C 2677.539062 2306.039062 2676.21875 2305.359375 2674.898438 2304.671875 L 2674.878906 2304.671875 C 2673.570312 2304.011719 2672.230469 2303.339844 2670.898438 2302.691406 L 2670.878906 2302.691406 C 2669.539062 2302.039062 2668.191406 2301.410156 2666.839844 2300.800781 L 2666.820312 2300.800781 C 2665.46875 2300.171875 2664.089844 2299.570312 2662.71875 2299 L 2662.699219 2298.980469 C 2661.328125 2298.410156 2659.941406 2297.828125 2658.550781 2297.289062 C 2657.160156 2296.738281 2655.75 2296.199219 2654.339844 2295.679688 C 2652.929688 2295.160156 2651.511719 2294.660156 2650.078125 2294.179688 C 2648.648438 2293.699219 2647.21875 2293.230469 2645.78125 2292.789062 L 2645.78125 2292.769531 C 2644.328125 2292.328125 2642.871094 2291.898438 2641.421875 2291.488281 L 2641.421875 2291.46875 C 2639.960938 2291.058594 2638.488281 2290.679688 2637.03125 2290.289062 C 2635.558594 2289.921875 2634.078125 2289.539062 2632.589844 2289.210938 L 2632.578125 2289.210938 C 2631.089844 2288.859375 2629.609375 2288.539062 2628.109375 2288.230469 C 2626.609375 2287.910156 2625.101562 2287.628906 2623.578125 2287.359375 C 2622.078125 2287.101562 2620.558594 2286.839844 2619.039062 2286.601562 L 2619.019531 2286.601562 C 2617.5 2286.371094 2615.980469 2286.148438 2614.441406 2285.96875 C 2612.898438 2285.761719 2611.371094 2285.601562 2609.808594 2285.429688 C 2608.25 2285.261719 2606.710938 2285.128906 2605.160156 2285 L 2605.140625 2285 C 2603.601562 2284.890625 2602.019531 2284.800781 2600.449219 2284.71875 C 2598.871094 2284.628906 2597.308594 2284.578125 2595.71875 2284.539062 C 2594.140625 2284.5 2592.570312 2284.480469 2590.96875 2284.480469 C 2589.378906 2284.480469 2587.800781 2284.5 2586.230469 2284.539062 L 2586.210938 2284.539062 C 2584.628906 2284.578125 2583.050781 2284.648438 2581.5 2284.71875 L 2581.480469 2284.71875 C 2579.921875 2284.800781 2578.351562 2284.890625 2576.808594 2285 L 2576.789062 2285 C 2575.230469 2285.128906 2573.691406 2285.261719 2572.128906 2285.429688 C 2570.578125 2285.578125 2569.039062 2285.761719 2567.519531 2285.96875 L 2567.5 2285.96875 C 2565.960938 2286.148438 2564.441406 2286.371094 2562.921875 2286.601562 L 2562.898438 2286.601562 C 2561.378906 2286.839844 2559.878906 2287.078125 2558.359375 2287.359375 C 2556.839844 2287.628906 2555.339844 2287.910156 2553.839844 2288.230469 C 2552.328125 2288.519531 2550.851562 2288.859375 2549.371094 2289.210938 L 2549.351562 2289.210938 C 2547.871094 2289.539062 2546.398438 2289.921875 2544.921875 2290.289062 C 2543.429688 2290.679688 2541.988281 2291.058594 2540.519531 2291.46875 C 2539.058594 2291.898438 2537.609375 2292.328125 2536.171875 2292.769531 C 2534.71875 2293.210938 2533.289062 2293.699219 2531.871094 2294.179688 C 2530.441406 2294.660156 2529.011719 2295.160156 2527.601562 2295.679688 C 2526.191406 2296.199219 2524.78125 2296.738281 2523.390625 2297.289062 L 2523.371094 2297.289062 C 2521.980469 2297.828125 2520.609375 2298.410156 2519.238281 2298.980469 L 2519.21875 2298.980469 C 2517.851562 2299.570312 2516.480469 2300.171875 2515.121094 2300.800781 L 2515.109375 2300.800781 C 2513.75 2301.410156 2512.398438 2302.039062 2511.058594 2302.691406 L 2511.039062 2302.691406 C 2509.710938 2303.339844 2508.378906 2304.011719 2507.058594 2304.671875 L 2507.039062 2304.671875 C 2505.71875 2305.359375 2504.410156 2306.039062 2503.109375 2306.769531 L 2503.089844 2306.769531 C 2501.789062 2307.46875 2500.5 2308.199219 2499.21875 2308.941406 C 2497.921875 2309.679688 2496.640625 2310.441406 2495.378906 2311.21875 C 2492.839844 2312.761719 2490.328125 2314.351562 2487.890625 2316.019531 C 2486.660156 2316.839844 2485.460938 2317.691406 2484.25 2318.539062 L 2484.238281 2318.539062 C 2480.621094 2321.121094 2477.101562 2323.828125 2473.691406 2326.640625 C 2472.539062 2327.589844 2471.421875 2328.53125 2470.289062 2329.5 C 2469.179688 2330.460938 2468.089844 2331.460938 2466.988281 2332.449219 C 2465.898438 2333.429688 2464.820312 2334.429688 2463.75 2335.449219 C 2462.671875 2336.46875 2461.621094 2337.511719 2460.578125 2338.550781 C 2459.539062 2339.601562 2458.5 2340.660156 2457.480469 2341.71875 C 2456.460938 2342.789062 2455.460938 2343.871094 2454.460938 2344.960938 C 2453.460938 2346.050781 2452.488281 2347.171875 2451.53125 2348.28125 C 2450.550781 2349.390625 2449.601562 2350.519531 2448.660156 2351.648438 C 2447.710938 2352.800781 2446.78125 2353.949219 2445.878906 2355.121094 C 2444.96875 2356.269531 2444.058594 2357.460938 2443.191406 2358.628906 L 2443.171875 2358.628906 C 2442.300781 2359.808594 2441.429688 2361.019531 2440.550781 2362.21875 C 2439.699219 2363.429688 2438.871094 2364.628906 2438.03125 2365.878906 C 2437.199219 2367.101562 2436.378906 2368.339844 2435.589844 2369.578125 C 2434.789062 2370.828125 2434.011719 2372.089844 2433.230469 2373.351562 L 2430.96875 2377.179688 L 2430.949219 2377.179688 C 2430.210938 2378.460938 2429.488281 2379.78125 2428.78125 2381.078125 Z M 1970.671875 1335.289062 C 1987.511719 1335.289062 2001.210938 1348.980469 2001.210938 1365.828125 C 2001.210938 1382.691406 1987.519531 1396.378906 1970.671875 1396.378906 C 1953.839844 1396.378906 1940.140625 1382.671875 1940.140625 1365.828125 C 1940.140625 1349.011719 1953.820312 1335.289062 1970.671875 1335.289062 Z M 1970.671875 1451.019531 C 1923.691406 1451.019531 1885.511719 1412.808594 1885.511719 1365.828125 C 1885.511719 1318.859375 1923.71875 1280.648438 1970.671875 1280.648438 C 2017.671875 1280.648438 2055.859375 1318.859375 2055.859375 1365.828125 C 2055.859375 1412.808594 2017.628906 1451.019531 1970.671875 1451.019531 Z M 1848.769531 1364.851562 L 1848.769531 1333.851562 C 1848.769531 1270.820312 1900.039062 1219.539062 1963.050781 1219.539062 L 2077.328125 1219.539062 L 2077.328125 1512.089844 L 1963.050781 1512.078125 C 1900.03125 1512.078125 1848.769531 1460.800781 1848.769531 1397.78125 L 1848.769531 1366.808594 L 1848.789062 1365.828125 Z M 1102.621094 2337.011719 C 1112.480469 2409.28125 1140.648438 2477.128906 1192.339844 2494.789062 C 1195.199219 2495.769531 1198.171875 2496.269531 1201.171875 2496.269531 L 1309.761719 2496.269531 C 1323.359375 2615.300781 1424.679688 2708.050781 1547.289062 2708.050781 C 1669.910156 2708.050781 1771.238281 2615.300781 1784.839844 2496.269531 L 2353.421875 2496.269531 C 2367.019531 2615.300781 2468.371094 2708.050781 2590.96875 2708.050781 C 2713.578125 2708.050781 2814.921875 2615.300781 2828.53125 2496.269531 L 2864.878906 2496.269531 C 2865.808594 2496.269531 2866.78125 2496.210938 2867.699219 2496.101562 C 3089.871094 2472.800781 3098.640625 2429 3101.53125 2414.578125 C 3101.871094 2412.820312 3102.050781 2411.019531 3102.050781 2409.21875 L 3102.050781 2265.808594 L 3102.070312 2264.828125 C 3102.070312 2258.640625 3100.011719 2252.910156 3096.511719 2248.328125 L 3096.289062 2248.03125 L 3096.25 2247.980469 L 3096.039062 2247.738281 L 3095.839844 2247.460938 L 3095.800781 2247.441406 L 3095.558594 2247.140625 L 3095.421875 2246.960938 L 3095.320312 2246.859375 L 3095.078125 2246.570312 L 3094.988281 2246.480469 L 3094.820312 2246.289062 L 3094.558594 2246.011719 L 3094.519531 2245.988281 L 3094.28125 2245.75 L 3094.078125 2245.53125 L 3094.019531 2245.46875 L 3093.75 2245.210938 L 3093.621094 2245.070312 L 3093.488281 2244.941406 L 3093.191406 2244.699219 L 3093.121094 2244.621094 L 3092.910156 2244.441406 L 3092.628906 2244.179688 L 3092.339844 2243.941406 L 3092.128906 2243.769531 L 3092.039062 2243.691406 L 3091.609375 2243.339844 C 3078.429688 2232.628906 2875.710938 2069.839844 2712.859375 2069.839844 C 2709.910156 2069.839844 2706.980469 2069.898438 2705.050781 2069.988281 L 2643.699219 2069.988281 L 2172.871094 1770.03125 C 2168.460938 1767.199219 2163.691406 1765.230469 2158.058594 1765.738281 C 2154.53125 1765.75 1858.960938 1767.109375 1653.519531 1768.671875 C 1652.839844 1768.648438 1652.171875 1768.660156 1651.480469 1768.679688 C 1612.691406 1768.980469 1577.148438 1769.289062 1547.511719 1769.578125 C 1366.140625 1771.429688 1234.960938 2010.609375 1204.230469 2072.089844 C 1151.261719 2083.019531 1114.570312 2135.289062 1102.441406 2218.570312 C 1101.96875 2221.78125 1101.550781 2225.058594 1101.160156 2228.378906 L 1100.980469 2230.011719 L 1100.789062 2231.660156 L 1100.679688 2232.679688 L 1100.621094 2233.289062 L 1100.609375 2233.421875 C 1098.949219 2249.28125 1098.21875 2265.699219 1098.449219 2282.371094 L 962.636719 2282.351562 C 887.019531 2282.351562 825.515625 2220.828125 825.515625 2145.230469 L 825.515625 1530.261719 C 825.515625 1454.660156 887.03125 1393.160156 962.636719 1393.160156 L 1794.140625 1393.160156 L 1794.140625 1397.789062 C 1794.140625 1490.929688 1869.898438 1566.730469 1963.050781 1566.730469 L 2104.679688 1566.730469 C 2119.75 1566.730469 2132.011719 1554.511719 2131.988281 1539.410156 L 2131.988281 1493.648438 L 2233.308594 1493.648438 C 2248.398438 1493.648438 2260.640625 1481.398438 2260.640625 1466.320312 C 2260.640625 1451.25 2248.398438 1439.011719 2233.308594 1439.011719 L 2131.988281 1439.011719 L 2131.988281 1292.640625 L 2233.308594 1292.640625 C 2248.398438 1292.640625 2260.640625 1280.410156 2260.640625 1265.328125 C 2260.640625 1250.25 2248.398438 1238.011719 2233.308594 1238.011719 L 2131.988281 1238.011719 L 2131.988281 1192.230469 C 2131.988281 1177.148438 2119.75 1164.910156 2104.679688 1164.910156 L 1963.050781 1164.910156 C 1869.898438 1164.910156 1794.140625 1240.699219 1794.140625 1333.859375 L 1794.140625 1338.511719 L 962.636719 1338.519531 C 856.910156 1338.519531 770.894531 1424.539062 770.894531 1530.269531 L 770.894531 2145.25 C 770.894531 2250.960938 856.910156 2337.011719 962.636719 2337.011719 Z M 1014.121094 1786.390625 C 1029.078125 1786.390625 1037.121094 1793.328125 1041.238281 1799.160156 C 1050.429688 1812.179688 1045.679688 1825.539062 1042.53125 1834.359375 C 1041.511719 1837.269531 1040.179688 1840.96875 1038.738281 1845.640625 C 1024.738281 1891.25 1016.5 1922.21875 1011.71875 1943.191406 C 1027.910156 1925.210938 1047.289062 1901.929688 1064.421875 1881.378906 C 1090.808594 1849.71875 1120.730469 1813.851562 1152.558594 1778.839844 C 1157.121094 1773.828125 1161.429688 1769.339844 1165.390625 1765.320312 C 1164.730469 1765.148438 1164.070312 1764.96875 1163.398438 1764.789062 L 1072.109375 1740.320312 C 1063.898438 1738.121094 1057.179688 1732.230469 1053.929688 1724.378906 C 1050.691406 1716.53125 1051.28125 1707.628906 1055.511719 1700.261719 L 1118.300781 1591.488281 L 1012.390625 1596.621094 C 1000.089844 1636.898438 970.839844 1733.710938 957.539062 1785.628906 C 957.410156 1786.128906 957.277344 1786.648438 957.140625 1787.140625 L 990.390625 1787.160156 C 997.121094 1787.160156 1002.320312 1786.859375 1006.25 1786.660156 C 1009.53125 1786.511719 1012.078125 1786.390625 1014.121094 1786.390625 Z M 986.460938 2026.378906 C 975.632812 2026.378906 965.707031 2021.398438 959.28125 2012.660156 C 945.859375 1994.488281 945.921875 1963.75 982.789062 1841.820312 L 934.011719 1841.960938 C 926.921875 1841.960938 912.144531 1841.960938 902.371094 1829 C 892.398438 1815.789062 896.300781 1802.070312 900.433594 1787.519531 C 901.632812 1783.371094 903.078125 1778.300781 904.652344 1772.121094 C 921.949219 1704.488281 964.046875 1568 965.835938 1562.21875 C 969.230469 1551.230469 979.128906 1543.550781 990.605469 1542.980469 L 1165.710938 1534.488281 C 1175.800781 1534.109375 1185.140625 1539.03125 1190.359375 1547.539062 C 1195.558594 1556.078125 1195.679688 1566.78125 1190.699219 1575.429688 L 1120.671875 1696.730469 L 1177.570312 1711.980469 C 1185.851562 1714.199219 1192.839844 1715.929688 1198.628906 1717.328125 C 1219.710938 1722.488281 1236.351562 1726.570312 1241.28125 1745.578125 C 1246.128906 1764.328125 1233.371094 1776.179688 1221 1787.640625 C 1214.058594 1794.070312 1204.550781 1802.921875 1193.019531 1815.578125 C 1161.960938 1849.710938 1132.460938 1885.121094 1106.429688 1916.339844 C 1038.238281 1998.109375 1013.320312 2026.378906 986.460938 2026.378906 Z M 2590.96875 2599.890625 C 2518.738281 2599.890625 2460.019531 2541.140625 2460.019531 2468.941406 C 2460.019531 2396.738281 2518.78125 2337.988281 2590.96875 2337.988281 C 2632.648438 2337.988281 2672.210938 2358.140625 2696.820312 2391.851562 C 2705.71875 2404.050781 2703.050781 2421.140625 2690.851562 2430.019531 C 2678.671875 2438.941406 2661.550781 2436.269531 2652.691406 2424.070312 C 2638.320312 2404.398438 2615.261719 2392.671875 2590.96875 2392.671875 C 2548.898438 2392.671875 2514.660156 2426.890625 2514.660156 2468.960938 C 2514.660156 2511.03125 2548.921875 2545.230469 2590.96875 2545.230469 C 2606.039062 2545.230469 2618.300781 2557.488281 2618.300781 2572.558594 C 2618.300781 2587.628906 2606.039062 2599.890625 2590.96875 2599.890625 "/>
</clipPath>
<linearGradient id="linear-pattern-0" gradientUnits="userSpaceOnUse" x1="-0.000000000000000056" y1="0" x2="0.999998" y2="0" gradientTransform="matrix(2331.18, 0, 0, 2331.18, 770.894, 1936.48)">
<stop offset="0" stop-color="rgb(100%, 80.39093%, 1.176453%)" stop-opacity="1"/>
<stop offset="0.00390625" stop-color="rgb(99.5224%, 80.37262%, 1.437378%)" stop-opacity="1"/>
<stop offset="0.0078125" stop-color="rgb(99.0448%, 80.355835%, 1.698303%)" stop-opacity="1"/>
<stop offset="0.0117188" stop-color="rgb(98.5672%, 80.337524%, 1.959229%)" stop-opacity="1"/>
<stop offset="0.015625" stop-color="rgb(98.0896%, 80.319214%, 2.22168%)" stop-opacity="1"/>
<stop offset="0.0195313" stop-color="rgb(97.612%, 80.300903%, 2.482605%)" stop-opacity="1"/>
<stop offset="0.0234375" stop-color="rgb(97.134399%, 80.282593%, 2.74353%)" stop-opacity="1"/>
<stop offset="0.0273438" stop-color="rgb(96.656799%, 80.264282%, 3.004456%)" stop-opacity="1"/>
<stop offset="0.03125" stop-color="rgb(96.179199%, 80.247498%, 3.266907%)" stop-opacity="1"/>
<stop offset="0.0351563" stop-color="rgb(95.701599%, 80.229187%, 3.527832%)" stop-opacity="1"/>
<stop offset="0.0390625" stop-color="rgb(95.223999%, 80.210876%, 3.788757%)" stop-opacity="1"/>
<stop offset="0.0429688" stop-color="rgb(94.746399%, 80.192566%, 4.049683%)" stop-opacity="1"/>
<stop offset="0.046875" stop-color="rgb(94.268799%, 80.175781%, 4.312134%)" stop-opacity="1"/>
<stop offset="0.0507813" stop-color="rgb(93.791199%, 80.157471%, 4.573059%)" stop-opacity="1"/>
<stop offset="0.0546875" stop-color="rgb(93.313599%, 80.13916%, 4.833984%)" stop-opacity="1"/>
<stop offset="0.0585938" stop-color="rgb(92.835999%, 80.12085%, 5.09491%)" stop-opacity="1"/>
<stop offset="0.0625" stop-color="rgb(92.358398%, 80.102539%, 5.357361%)" stop-opacity="1"/>
<stop offset="0.0664063" stop-color="rgb(91.880798%, 80.084229%, 5.618286%)" stop-opacity="1"/>
<stop offset="0.0703125" stop-color="rgb(91.403198%, 80.067444%, 5.879211%)" stop-opacity="1"/>
<stop offset="0.0742188" stop-color="rgb(90.925598%, 80.049133%, 6.140137%)" stop-opacity="1"/>
<stop offset="0.078125" stop-color="rgb(90.447998%, 80.030823%, 6.402588%)" stop-opacity="1"/>
<stop offset="0.0820313" stop-color="rgb(89.970398%, 80.012512%, 6.663513%)" stop-opacity="1"/>
<stop offset="0.0859375" stop-color="rgb(89.492798%, 79.994202%, 6.924438%)" stop-opacity="1"/>
<stop offset="0.0898438" stop-color="rgb(89.015198%, 79.975891%, 7.185364%)" stop-opacity="1"/>
<stop offset="0.09375" stop-color="rgb(88.537598%, 79.959106%, 7.447815%)" stop-opacity="1"/>
<stop offset="0.0976563" stop-color="rgb(88.059998%, 79.940796%, 7.70874%)" stop-opacity="1"/>
<stop offset="0.101563" stop-color="rgb(87.582397%, 79.922485%, 7.969666%)" stop-opacity="1"/>
<stop offset="0.105469" stop-color="rgb(87.104797%, 79.904175%, 8.230591%)" stop-opacity="1"/>
<stop offset="0.109375" stop-color="rgb(86.627197%, 79.88739%, 8.493042%)" stop-opacity="1"/>
<stop offset="0.113281" stop-color="rgb(86.149597%, 79.86908%, 8.753967%)" stop-opacity="1"/>
<stop offset="0.117188" stop-color="rgb(85.671997%, 79.850769%, 9.014893%)" stop-opacity="1"/>
<stop offset="0.121094" stop-color="rgb(85.194397%, 79.832458%, 9.275818%)" stop-opacity="1"/>
<stop offset="0.125" stop-color="rgb(84.716797%, 79.814148%, 9.538269%)" stop-opacity="1"/>
<stop offset="0.128906" stop-color="rgb(84.239197%, 79.795837%, 9.799194%)" stop-opacity="1"/>
<stop offset="0.132813" stop-color="rgb(83.761597%, 79.779053%, 10.06012%)" stop-opacity="1"/>
<stop offset="0.136719" stop-color="rgb(83.283997%, 79.760742%, 10.321045%)" stop-opacity="1"/>
<stop offset="0.140625" stop-color="rgb(82.806396%, 79.742432%, 10.583496%)" stop-opacity="1"/>
<stop offset="0.144531" stop-color="rgb(82.328796%, 79.724121%, 10.844421%)" stop-opacity="1"/>
<stop offset="0.148438" stop-color="rgb(81.851196%, 79.707336%, 11.105347%)" stop-opacity="1"/>
<stop offset="0.152344" stop-color="rgb(81.373596%, 79.689026%, 11.366272%)" stop-opacity="1"/>
<stop offset="0.15625" stop-color="rgb(80.895996%, 79.670715%, 11.628723%)" stop-opacity="1"/>
<stop offset="0.160156" stop-color="rgb(80.418396%, 79.652405%, 11.889648%)" stop-opacity="1"/>
<stop offset="0.164063" stop-color="rgb(79.940796%, 79.634094%, 12.150574%)" stop-opacity="1"/>
<stop offset="0.167969" stop-color="rgb(79.463196%, 79.615784%, 12.411499%)" stop-opacity="1"/>
<stop offset="0.171875" stop-color="rgb(78.985596%, 79.598999%, 12.67395%)" stop-opacity="1"/>
<stop offset="0.175781" stop-color="rgb(78.507996%, 79.580688%, 12.934875%)" stop-opacity="1"/>
<stop offset="0.179688" stop-color="rgb(78.030396%, 79.562378%, 13.195801%)" stop-opacity="1"/>
<stop offset="0.183594" stop-color="rgb(77.552795%, 79.544067%, 13.456726%)" stop-opacity="1"/>
<stop offset="0.1875" stop-color="rgb(77.075195%, 79.525757%, 13.719177%)" stop-opacity="1"/>
<stop offset="0.191406" stop-color="rgb(76.597595%, 79.507446%, 13.980103%)" stop-opacity="1"/>
<stop offset="0.195313" stop-color="rgb(76.119995%, 79.490662%, 14.241028%)" stop-opacity="1"/>
<stop offset="0.199219" stop-color="rgb(75.642395%, 79.472351%, 14.501953%)" stop-opacity="1"/>
<stop offset="0.203125" stop-color="rgb(75.164795%, 79.454041%, 14.764404%)" stop-opacity="1"/>
<stop offset="0.207031" stop-color="rgb(74.687195%, 79.43573%, 15.02533%)" stop-opacity="1"/>
<stop offset="0.210938" stop-color="rgb(74.209595%, 79.418945%, 15.286255%)" stop-opacity="1"/>
<stop offset="0.214844" stop-color="rgb(73.731995%, 79.400635%, 15.54718%)" stop-opacity="1"/>
<stop offset="0.21875" stop-color="rgb(73.254395%, 79.382324%, 15.809631%)" stop-opacity="1"/>
<stop offset="0.222656" stop-color="rgb(72.776794%, 79.364014%, 16.070557%)" stop-opacity="1"/>
<stop offset="0.226563" stop-color="rgb(72.299194%, 79.345703%, 16.331482%)" stop-opacity="1"/>
<stop offset="0.230469" stop-color="rgb(71.821594%, 79.327393%, 16.592407%)" stop-opacity="1"/>
<stop offset="0.234375" stop-color="rgb(71.343994%, 79.310608%, 16.854858%)" stop-opacity="1"/>
<stop offset="0.238281" stop-color="rgb(70.866394%, 79.292297%, 17.115784%)" stop-opacity="1"/>
<stop offset="0.242188" stop-color="rgb(70.388794%, 79.273987%, 17.376709%)" stop-opacity="1"/>
<stop offset="0.246094" stop-color="rgb(69.911194%, 79.255676%, 17.637634%)" stop-opacity="1"/>
<stop offset="0.25" stop-color="rgb(69.433594%, 79.237366%, 17.900085%)" stop-opacity="1"/>
<stop offset="0.253906" stop-color="rgb(68.955994%, 79.219055%, 18.161011%)" stop-opacity="1"/>
<stop offset="0.257813" stop-color="rgb(68.478394%, 79.202271%, 18.421936%)" stop-opacity="1"/>
<stop offset="0.261719" stop-color="rgb(68.000793%, 79.18396%, 18.682861%)" stop-opacity="1"/>
<stop offset="0.265625" stop-color="rgb(67.523193%, 79.165649%, 18.945312%)" stop-opacity="1"/>
<stop offset="0.269531" stop-color="rgb(67.045593%, 79.147339%, 19.206238%)" stop-opacity="1"/>
<stop offset="0.273438" stop-color="rgb(66.567993%, 79.130554%, 19.468689%)" stop-opacity="1"/>
<stop offset="0.277344" stop-color="rgb(66.090393%, 79.112244%, 19.729614%)" stop-opacity="1"/>
<stop offset="0.28125" stop-color="rgb(65.612793%, 79.093933%, 19.99054%)" stop-opacity="1"/>
<stop offset="0.285156" stop-color="rgb(65.135193%, 79.075623%, 20.251465%)" stop-opacity="1"/>
<stop offset="0.289062" stop-color="rgb(64.657593%, 79.057312%, 20.513916%)" stop-opacity="1"/>
<stop offset="0.292969" stop-color="rgb(64.179993%, 79.039001%, 20.774841%)" stop-opacity="1"/>
<stop offset="0.296875" stop-color="rgb(63.703918%, 79.022217%, 21.035767%)" stop-opacity="1"/>
<stop offset="0.300781" stop-color="rgb(63.226318%, 79.003906%, 21.296692%)" stop-opacity="1"/>
<stop offset="0.304688" stop-color="rgb(62.748718%, 78.985596%, 21.559143%)" stop-opacity="1"/>
<stop offset="0.308594" stop-color="rgb(62.271118%, 78.967285%, 21.820068%)" stop-opacity="1"/>
<stop offset="0.3125" stop-color="rgb(61.793518%, 78.948975%, 22.080994%)" stop-opacity="1"/>
<stop offset="0.316406" stop-color="rgb(61.315918%, 78.930664%, 22.341919%)" stop-opacity="1"/>
<stop offset="0.320313" stop-color="rgb(60.838318%, 78.913879%, 22.60437%)" stop-opacity="1"/>
<stop offset="0.324219" stop-color="rgb(60.360718%, 78.895569%, 22.865295%)" stop-opacity="1"/>
<stop offset="0.328125" stop-color="rgb(59.883118%, 78.877258%, 23.126221%)" stop-opacity="1"/>
<stop offset="0.332031" stop-color="rgb(59.405518%, 78.858948%, 23.387146%)" stop-opacity="1"/>
<stop offset="0.335938" stop-color="rgb(58.927917%, 78.842163%, 23.649597%)" stop-opacity="1"/>
<stop offset="0.339844" stop-color="rgb(58.433533%, 78.822327%, 24.169922%)" stop-opacity="1"/>
<stop offset="0.34375" stop-color="rgb(57.939148%, 78.80249%, 24.690247%)" stop-opacity="1"/>
<stop offset="0.347656" stop-color="rgb(57.426453%, 78.779602%, 25.489807%)" stop-opacity="1"/>
<stop offset="0.351563" stop-color="rgb(56.915283%, 78.75824%, 26.290894%)" stop-opacity="1"/>
<stop offset="0.355469" stop-color="rgb(56.402588%, 78.735352%, 27.09198%)" stop-opacity="1"/>
<stop offset="0.359375" stop-color="rgb(55.891418%, 78.713989%, 27.893066%)" stop-opacity="1"/>
<stop offset="0.363281" stop-color="rgb(55.378723%, 78.691101%, 28.694153%)" stop-opacity="1"/>
<stop offset="0.367188" stop-color="rgb(54.866028%, 78.669739%, 29.495239%)" stop-opacity="1"/>
<stop offset="0.371094" stop-color="rgb(54.353333%, 78.648376%, 30.296326%)" stop-opacity="1"/>
<stop offset="0.375" stop-color="rgb(53.842163%, 78.627014%, 31.097412%)" stop-opacity="1"/>
<stop offset="0.378906" stop-color="rgb(53.329468%, 78.604126%, 31.898499%)" stop-opacity="1"/>
<stop offset="0.382813" stop-color="rgb(52.818298%, 78.582764%, 32.699585%)" stop-opacity="1"/>
<stop offset="0.386719" stop-color="rgb(52.305603%, 78.559875%, 33.499146%)" stop-opacity="1"/>
<stop offset="0.390625" stop-color="rgb(51.794434%, 78.538513%, 34.300232%)" stop-opacity="1"/>
<stop offset="0.394531" stop-color="rgb(51.281738%, 78.517151%, 35.101318%)" stop-opacity="1"/>
<stop offset="0.398438" stop-color="rgb(50.770569%, 78.495789%, 35.902405%)" stop-opacity="1"/>
<stop offset="0.402344" stop-color="rgb(50.257874%, 78.4729%, 36.703491%)" stop-opacity="1"/>
<stop offset="0.40625" stop-color="rgb(49.745178%, 78.451538%, 37.504578%)" stop-opacity="1"/>
<stop offset="0.410156" stop-color="rgb(49.232483%, 78.42865%, 38.305664%)" stop-opacity="1"/>
<stop offset="0.414062" stop-color="rgb(48.721313%, 78.407288%, 39.10675%)" stop-opacity="1"/>
<stop offset="0.417969" stop-color="rgb(48.208618%, 78.385925%, 39.907837%)" stop-opacity="1"/>
<stop offset="0.421875" stop-color="rgb(47.697449%, 78.364563%, 40.708923%)" stop-opacity="1"/>
<stop offset="0.425781" stop-color="rgb(47.184753%, 78.341675%, 41.51001%)" stop-opacity="1"/>
<stop offset="0.429688" stop-color="rgb(46.673584%, 78.320312%, 42.311096%)" stop-opacity="1"/>
<stop offset="0.433594" stop-color="rgb(46.160889%, 78.297424%, 43.110657%)" stop-opacity="1"/>
<stop offset="0.4375" stop-color="rgb(45.649719%, 78.276062%, 43.911743%)" stop-opacity="1"/>
<stop offset="0.441406" stop-color="rgb(45.137024%, 78.2547%, 44.71283%)" stop-opacity="1"/>
<stop offset="0.445313" stop-color="rgb(44.624329%, 78.233337%, 45.513916%)" stop-opacity="1"/>
<stop offset="0.449219" stop-color="rgb(44.111633%, 78.210449%, 46.315002%)" stop-opacity="1"/>
<stop offset="0.453125" stop-color="rgb(43.600464%, 78.189087%, 47.116089%)" stop-opacity="1"/>
<stop offset="0.457031" stop-color="rgb(43.087769%, 78.166199%, 47.917175%)" stop-opacity="1"/>
<stop offset="0.460938" stop-color="rgb(42.576599%, 78.144836%, 48.718262%)" stop-opacity="1"/>
<stop offset="0.464844" stop-color="rgb(42.063904%, 78.123474%, 49.519348%)" stop-opacity="1"/>
<stop offset="0.46875" stop-color="rgb(41.552734%, 78.102112%, 50.320435%)" stop-opacity="1"/>
<stop offset="0.472656" stop-color="rgb(41.040039%, 78.079224%, 51.119995%)" stop-opacity="1"/>
<stop offset="0.476563" stop-color="rgb(40.52887%, 78.057861%, 51.921082%)" stop-opacity="1"/>
<stop offset="0.480469" stop-color="rgb(40.016174%, 78.034973%, 52.722168%)" stop-opacity="1"/>
<stop offset="0.484375" stop-color="rgb(39.505005%, 78.013611%, 53.523254%)" stop-opacity="1"/>
<stop offset="0.488281" stop-color="rgb(38.99231%, 77.992249%, 54.324341%)" stop-opacity="1"/>
<stop offset="0.492188" stop-color="rgb(38.479614%, 77.970886%, 55.125427%)" stop-opacity="1"/>
<stop offset="0.496094" stop-color="rgb(37.966919%, 77.947998%, 55.926514%)" stop-opacity="1"/>
<stop offset="0.5" stop-color="rgb(37.45575%, 77.926636%, 56.7276%)" stop-opacity="1"/>
<stop offset="0.503906" stop-color="rgb(36.943054%, 77.903748%, 57.528687%)" stop-opacity="1"/>
<stop offset="0.507812" stop-color="rgb(36.431885%, 77.882385%, 58.329773%)" stop-opacity="1"/>
<stop offset="0.511719" stop-color="rgb(35.919189%, 77.859497%, 59.129333%)" stop-opacity="1"/>
<stop offset="0.515625" stop-color="rgb(35.40802%, 77.838135%, 59.93042%)" stop-opacity="1"/>
<stop offset="0.519531" stop-color="rgb(34.895325%, 77.816772%, 60.731506%)" stop-opacity="1"/>
<stop offset="0.523438" stop-color="rgb(34.384155%, 77.79541%, 61.532593%)" stop-opacity="1"/>
<stop offset="0.527344" stop-color="rgb(33.87146%, 77.772522%, 62.333679%)" stop-opacity="1"/>
<stop offset="0.53125" stop-color="rgb(33.358765%, 77.75116%, 63.134766%)" stop-opacity="1"/>
<stop offset="0.535156" stop-color="rgb(32.846069%, 77.728271%, 63.935852%)" stop-opacity="1"/>
<stop offset="0.539062" stop-color="rgb(32.3349%, 77.706909%, 64.736938%)" stop-opacity="1"/>
<stop offset="0.542969" stop-color="rgb(31.822205%, 77.685547%, 65.538025%)" stop-opacity="1"/>
<stop offset="0.546875" stop-color="rgb(31.311035%, 77.664185%, 66.339111%)" stop-opacity="1"/>
<stop offset="0.550781" stop-color="rgb(30.79834%, 77.641296%, 67.140198%)" stop-opacity="1"/>
<stop offset="0.554688" stop-color="rgb(30.28717%, 77.619934%, 67.941284%)" stop-opacity="1"/>
<stop offset="0.558594" stop-color="rgb(29.774475%, 77.597046%, 68.740845%)" stop-opacity="1"/>
<stop offset="0.5625" stop-color="rgb(29.263306%, 77.575684%, 69.541931%)" stop-opacity="1"/>
<stop offset="0.566406" stop-color="rgb(28.75061%, 77.554321%, 70.343018%)" stop-opacity="1"/>
<stop offset="0.570312" stop-color="rgb(28.237915%, 77.532959%, 71.144104%)" stop-opacity="1"/>
<stop offset="0.574219" stop-color="rgb(27.72522%, 77.510071%, 71.94519%)" stop-opacity="1"/>
<stop offset="0.578125" stop-color="rgb(27.21405%, 77.488708%, 72.746277%)" stop-opacity="1"/>
<stop offset="0.582031" stop-color="rgb(26.701355%, 77.46582%, 73.547363%)" stop-opacity="1"/>
<stop offset="0.585937" stop-color="rgb(26.190186%, 77.444458%, 74.34845%)" stop-opacity="1"/>
<stop offset="0.589844" stop-color="rgb(25.67749%, 77.423096%, 75.149536%)" stop-opacity="1"/>
<stop offset="0.59375" stop-color="rgb(25.166321%, 77.401733%, 75.950623%)" stop-opacity="1"/>
<stop offset="0.597656" stop-color="rgb(24.653625%, 77.378845%, 76.750183%)" stop-opacity="1"/>
<stop offset="0.601562" stop-color="rgb(24.142456%, 77.357483%, 77.55127%)" stop-opacity="1"/>
<stop offset="0.605469" stop-color="rgb(23.629761%, 77.334595%, 78.352356%)" stop-opacity="1"/>
<stop offset="0.609375" stop-color="rgb(23.117065%, 77.313232%, 79.153442%)" stop-opacity="1"/>
<stop offset="0.613281" stop-color="rgb(22.60437%, 77.29187%, 79.954529%)" stop-opacity="1"/>
<stop offset="0.617187" stop-color="rgb(22.093201%, 77.270508%, 80.755615%)" stop-opacity="1"/>
<stop offset="0.621094" stop-color="rgb(21.580505%, 77.24762%, 81.556702%)" stop-opacity="1"/>
<stop offset="0.625" stop-color="rgb(21.069336%, 77.226257%, 82.357788%)" stop-opacity="1"/>
<stop offset="0.628906" stop-color="rgb(20.556641%, 77.203369%, 83.158875%)" stop-opacity="1"/>
<stop offset="0.632813" stop-color="rgb(20.045471%, 77.182007%, 83.959961%)" stop-opacity="1"/>
<stop offset="0.636719" stop-color="rgb(19.532776%, 77.160645%, 84.759521%)" stop-opacity="1"/>
<stop offset="0.640625" stop-color="rgb(19.021606%, 77.139282%, 85.560608%)" stop-opacity="1"/>
<stop offset="0.644531" stop-color="rgb(18.508911%, 77.116394%, 86.361694%)" stop-opacity="1"/>
<stop offset="0.648438" stop-color="rgb(17.996216%, 77.095032%, 87.162781%)" stop-opacity="1"/>
<stop offset="0.652344" stop-color="rgb(17.483521%, 77.072144%, 87.963867%)" stop-opacity="1"/>
<stop offset="0.65625" stop-color="rgb(16.972351%, 77.050781%, 88.764954%)" stop-opacity="1"/>
<stop offset="0.660156" stop-color="rgb(16.459656%, 77.027893%, 89.56604%)" stop-opacity="1"/>
<stop offset="0.664063" stop-color="rgb(15.948486%, 77.006531%, 90.367126%)" stop-opacity="1"/>
<stop offset="0.667969" stop-color="rgb(15.435791%, 76.985168%, 91.168213%)" stop-opacity="1"/>
<stop offset="0.671875" stop-color="rgb(14.924622%, 76.963806%, 91.969299%)" stop-opacity="1"/>
<stop offset="0.675781" stop-color="rgb(14.411926%, 76.940918%, 92.770386%)" stop-opacity="1"/>
<stop offset="0.679688" stop-color="rgb(13.900757%, 76.919556%, 93.571472%)" stop-opacity="1"/>
<stop offset="0.683594" stop-color="rgb(13.388062%, 76.896667%, 94.371033%)" stop-opacity="1"/>
<stop offset="0.6875" stop-color="rgb(12.875366%, 76.875305%, 95.172119%)" stop-opacity="1"/>
<stop offset="0.691406" stop-color="rgb(13.037109%, 76.41449%, 95.115662%)" stop-opacity="1"/>
<stop offset="0.695312" stop-color="rgb(13.200378%, 75.9552%, 95.06073%)" stop-opacity="1"/>
<stop offset="0.699219" stop-color="rgb(13.679504%, 75.286865%, 94.60144%)" stop-opacity="1"/>
<stop offset="0.703125" stop-color="rgb(14.15863%, 74.620056%, 94.142151%)" stop-opacity="1"/>
<stop offset="0.707031" stop-color="rgb(14.637756%, 73.953247%, 93.681335%)" stop-opacity="1"/>
<stop offset="0.710938" stop-color="rgb(15.116882%, 73.286438%, 93.222046%)" stop-opacity="1"/>
<stop offset="0.714844" stop-color="rgb(15.596008%, 72.619629%, 92.762756%)" stop-opacity="1"/>
<stop offset="0.71875" stop-color="rgb(16.07666%, 71.95282%, 92.303467%)" stop-opacity="1"/>
<stop offset="0.722656" stop-color="rgb(16.555786%, 71.284485%, 91.844177%)" stop-opacity="1"/>
<stop offset="0.726562" stop-color="rgb(17.034912%, 70.617676%, 91.384888%)" stop-opacity="1"/>
<stop offset="0.730469" stop-color="rgb(17.514038%, 69.950867%, 90.924072%)" stop-opacity="1"/>
<stop offset="0.734375" stop-color="rgb(17.993164%, 69.284058%, 90.464783%)" stop-opacity="1"/>
<stop offset="0.738281" stop-color="rgb(18.47229%, 68.617249%, 90.005493%)" stop-opacity="1"/>
<stop offset="0.742188" stop-color="rgb(18.951416%, 67.950439%, 89.546204%)" stop-opacity="1"/>
<stop offset="0.746094" stop-color="rgb(19.430542%, 67.282104%, 89.086914%)" stop-opacity="1"/>
<stop offset="0.75" stop-color="rgb(19.911194%, 66.615295%, 88.627625%)" stop-opacity="1"/>
<stop offset="0.753906" stop-color="rgb(20.39032%, 65.948486%, 88.166809%)" stop-opacity="1"/>
<stop offset="0.757812" stop-color="rgb(20.869446%, 65.281677%, 87.70752%)" stop-opacity="1"/>
<stop offset="0.761719" stop-color="rgb(21.348572%, 64.613342%, 87.24823%)" stop-opacity="1"/>
<stop offset="0.765625" stop-color="rgb(21.827698%, 63.946533%, 86.78894%)" stop-opacity="1"/>
<stop offset="0.769531" stop-color="rgb(22.306824%, 63.279724%, 86.328125%)" stop-opacity="1"/>
<stop offset="0.773438" stop-color="rgb(22.78595%, 62.612915%, 85.868835%)" stop-opacity="1"/>
<stop offset="0.777344" stop-color="rgb(23.265076%, 61.946106%, 85.409546%)" stop-opacity="1"/>
<stop offset="0.78125" stop-color="rgb(23.745728%, 61.279297%, 84.950256%)" stop-opacity="1"/>
<stop offset="0.785156" stop-color="rgb(24.224854%, 60.610962%, 84.490967%)" stop-opacity="1"/>
<stop offset="0.789062" stop-color="rgb(24.703979%, 59.944153%, 84.031677%)" stop-opacity="1"/>
<stop offset="0.792969" stop-color="rgb(25.183105%, 59.277344%, 83.570862%)" stop-opacity="1"/>
<stop offset="0.796875" stop-color="rgb(25.662231%, 58.610535%, 83.111572%)" stop-opacity="1"/>
<stop offset="0.800781" stop-color="rgb(26.141357%, 57.9422%, 82.652283%)" stop-opacity="1"/>
<stop offset="0.804688" stop-color="rgb(26.620483%, 57.275391%, 82.192993%)" stop-opacity="1"/>
<stop offset="0.808594" stop-color="rgb(27.099609%, 56.608582%, 81.733704%)" stop-opacity="1"/>
<stop offset="0.8125" stop-color="rgb(27.580261%, 55.941772%, 81.274414%)" stop-opacity="1"/>
<stop offset="0.816406" stop-color="rgb(28.059387%, 55.274963%, 80.813599%)" stop-opacity="1"/>
<stop offset="0.820312" stop-color="rgb(28.538513%, 54.608154%, 80.354309%)" stop-opacity="1"/>
<stop offset="0.824219" stop-color="rgb(29.017639%, 53.939819%, 79.89502%)" stop-opacity="1"/>
<stop offset="0.828125" stop-color="rgb(29.496765%, 53.27301%, 79.43573%)" stop-opacity="1"/>
<stop offset="0.832031" stop-color="rgb(29.975891%, 52.606201%, 78.97644%)" stop-opacity="1"/>
<stop offset="0.835937" stop-color="rgb(30.455017%, 51.939392%, 78.517151%)" stop-opacity="1"/>
<stop offset="0.839844" stop-color="rgb(30.934143%, 51.272583%, 78.056335%)" stop-opacity="1"/>
<stop offset="0.84375" stop-color="rgb(31.414795%, 50.605774%, 77.597046%)" stop-opacity="1"/>
<stop offset="0.847656" stop-color="rgb(31.893921%, 49.937439%, 77.137756%)" stop-opacity="1"/>
<stop offset="0.851562" stop-color="rgb(32.373047%, 49.27063%, 76.678467%)" stop-opacity="1"/>
<stop offset="0.855469" stop-color="rgb(32.852173%, 48.603821%, 76.219177%)" stop-opacity="1"/>
<stop offset="0.859375" stop-color="rgb(33.331299%, 47.937012%, 75.759888%)" stop-opacity="1"/>
<stop offset="0.863281" stop-color="rgb(33.810425%, 47.268677%, 75.299072%)" stop-opacity="1"/>
<stop offset="0.867187" stop-color="rgb(34.289551%, 46.601868%, 74.839783%)" stop-opacity="1"/>
<stop offset="0.871094" stop-color="rgb(34.768677%, 45.935059%, 74.380493%)" stop-opacity="1"/>
<stop offset="0.875" stop-color="rgb(35.249329%, 45.26825%, 73.921204%)" stop-opacity="1"/>
<stop offset="0.878906" stop-color="rgb(35.728455%, 44.60144%, 73.461914%)" stop-opacity="1"/>
<stop offset="0.882813" stop-color="rgb(36.207581%, 43.934631%, 73.002625%)" stop-opacity="1"/>
<stop offset="0.886719" stop-color="rgb(36.686707%, 43.266296%, 72.541809%)" stop-opacity="1"/>
<stop offset="0.890625" stop-color="rgb(37.165833%, 42.599487%, 72.08252%)" stop-opacity="1"/>
<stop offset="0.894531" stop-color="rgb(37.644958%, 41.932678%, 71.62323%)" stop-opacity="1"/>
<stop offset="0.898438" stop-color="rgb(38.124084%, 41.265869%, 71.16394%)" stop-opacity="1"/>
<stop offset="0.902344" stop-color="rgb(38.60321%, 40.59906%, 70.703125%)" stop-opacity="1"/>
<stop offset="0.90625" stop-color="rgb(39.083862%, 39.932251%, 70.243835%)" stop-opacity="1"/>
<stop offset="0.910156" stop-color="rgb(39.562988%, 39.263916%, 69.784546%)" stop-opacity="1"/>
<stop offset="0.914063" stop-color="rgb(40.042114%, 38.597107%, 69.325256%)" stop-opacity="1"/>
<stop offset="0.917969" stop-color="rgb(40.52124%, 37.930298%, 68.865967%)" stop-opacity="1"/>
<stop offset="0.921875" stop-color="rgb(41.000366%, 37.263489%, 68.406677%)" stop-opacity="1"/>
<stop offset="0.925781" stop-color="rgb(41.479492%, 36.595154%, 67.945862%)" stop-opacity="1"/>
<stop offset="0.929688" stop-color="rgb(41.960144%, 35.928345%, 67.486572%)" stop-opacity="1"/>
<stop offset="0.933594" stop-color="rgb(42.43927%, 35.261536%, 67.027283%)" stop-opacity="1"/>
<stop offset="0.9375" stop-color="rgb(42.918396%, 34.594727%, 66.567993%)" stop-opacity="1"/>
<stop offset="0.941406" stop-color="rgb(43.397522%, 33.927917%, 66.108704%)" stop-opacity="1"/>
<stop offset="0.945312" stop-color="rgb(43.876648%, 33.261108%, 65.649414%)" stop-opacity="1"/>
<stop offset="0.949219" stop-color="rgb(44.355774%, 32.592773%, 65.188599%)" stop-opacity="1"/>
<stop offset="0.953125" stop-color="rgb(44.8349%, 31.925964%, 64.729309%)" stop-opacity="1"/>
<stop offset="0.957031" stop-color="rgb(45.314026%, 31.259155%, 64.27002%)" stop-opacity="1"/>
<stop offset="0.960938" stop-color="rgb(45.794678%, 30.592346%, 63.81073%)" stop-opacity="1"/>
<stop offset="0.964844" stop-color="rgb(46.273804%, 29.924011%, 63.35144%)" stop-opacity="1"/>
<stop offset="0.96875" stop-color="rgb(46.75293%, 29.257202%, 62.892151%)" stop-opacity="1"/>
<stop offset="0.972656" stop-color="rgb(47.232056%, 28.590393%, 62.431335%)" stop-opacity="1"/>
<stop offset="0.976562" stop-color="rgb(47.711182%, 27.923584%, 61.972046%)" stop-opacity="1"/>
<stop offset="0.980469" stop-color="rgb(48.190308%, 27.256775%, 61.512756%)" stop-opacity="1"/>
<stop offset="0.984375" stop-color="rgb(48.669434%, 26.589966%, 61.053467%)" stop-opacity="1"/>
<stop offset="0.988281" stop-color="rgb(49.14856%, 25.921631%, 60.594177%)" stop-opacity="1"/>
<stop offset="0.992188" stop-color="rgb(49.629211%, 25.254822%, 60.134888%)" stop-opacity="1"/>
<stop offset="0.996094" stop-color="rgb(50.108337%, 24.588013%, 59.674072%)" stop-opacity="1"/>
<stop offset="1" stop-color="rgb(50.587463%, 23.921204%, 59.214783%)" stop-opacity="1"/>
</linearGradient>
</defs>
<g clip-path="url(#clip-0)">
<path fill-rule="evenodd" fill="rgb(9.008789%, 3.137207%, 16.088867%)" fill-opacity="1" d="M 713.855469 0 L 3159.121094 0 C 3551.75 0 3872.96875 321.230469 3872.96875 713.859375 L 3872.96875 3159.121094 C 3872.96875 3551.75 3551.75 3872.96875 3159.121094 3872.96875 L 713.855469 3872.96875 C 321.230469 3872.96875 0 3551.75 0 3159.121094 L 0 713.859375 C 0 321.230469 321.230469 0 713.855469 0 "/>
</g>
<g clip-path="url(#clip-1)">
<g clip-path="url(#clip-2)">
<path fill-rule="nonzero" fill="url(#linear-pattern-0)" d="M 770.894531 1164.910156 L 770.894531 2708.050781 L 3102.070312 2708.050781 L 3102.070312 1164.910156 Z M 770.894531 1164.910156 "/>
</g>
</g>
</svg>
