<svg xmlns="http://www.w3.org/2000/svg" width="18" height="18" viewBox="0 0 18 18">
  <path id="Path_165" data-name="Path 165" d="M1144.359,3262.615a2.239,2.239,0,0,0-2.239-2.239H1128.6a2.239,2.239,0,0,0-2.239,2.239v13.522a2.24,2.24,0,0,0,2.239,2.239h13.522a2.24,2.24,0,0,0,2.239-2.239Zm-9.022,3.118a3.643,3.643,0,1,1-3.643,3.643A3.643,3.643,0,0,1,1135.337,3265.733Zm7.093,9.78c0,.494-.736.934-1.23.934h-11.913a1.023,1.023,0,0,1-1-.934v-8.066h1.761a7.324,7.324,0,0,0-.243,1.782,5.688,5.688,0,0,0,1.626,4,5.53,5.53,0,0,0,7.854.055,5.837,5.837,0,0,0,1.626-4.065,7.25,7.25,0,0,0-.243-1.773h1.761Zm0-10.911a.917.917,0,0,1-.916.917h-1.381a.917.917,0,0,1-.917-.917v-1.381a.917.917,0,0,1,.917-.917h1.381a.917.917,0,0,1,.916.917Z" transform="translate(-1126.359 -3260.376)" fill="#03488d"/>
</svg>
