<?xml version="1.0" encoding="UTF-8"?>
<svg xmlns="http://www.w3.org/2000/svg" xmlns:xlink="http://www.w3.org/1999/xlink" width="3872.97" height="3872.97" viewBox="0 0 3872.97 3872.97">
<defs>
<clipPath id="clip-0">
<path clip-rule="nonzero" d="M 0 0 L 3872.96875 0 L 3872.96875 3872.96875 L 0 3872.96875 Z M 0 0 "/>
</clipPath>
<clipPath id="clip-1">
<path clip-rule="nonzero" d="M 770 827 L 3103 827 L 3103 3046 L 770 3046 Z M 770 827 "/>
</clipPath>
<clipPath id="clip-2">
<path clip-rule="evenodd" d="M 1569.25 1563.769531 L 1585.03125 1563.769531 L 1585.03125 1545.128906 C 1585.03125 1521.179688 1600.609375 1500.039062 1623.46875 1492.941406 C 1632.371094 1490.179688 1641.148438 1486.558594 1649.539062 1482.140625 C 1670.71875 1470.980469 1696.671875 1474.898438 1713.621094 1491.851562 L 1726.851562 1505.058594 L 1737.980469 1493.921875 L 1724.769531 1480.71875 C 1707.828125 1463.769531 1703.898438 1437.800781 1715.070312 1416.601562 C 1719.480469 1408.238281 1723.121094 1399.480469 1725.910156 1390.53125 C 1733.019531 1367.679688 1754.160156 1352.128906 1778.078125 1352.128906 L 1796.71875 1352.109375 L 1796.71875 1336.328125 L 1778.070312 1336.328125 C 1754.179688 1336.328125 1733.039062 1320.789062 1725.898438 1297.96875 C 1723.109375 1288.96875 1719.449219 1280.171875 1715.058594 1271.839844 C 1703.898438 1250.648438 1707.839844 1224.679688 1724.769531 1207.761719 L 1737.980469 1194.550781 L 1726.851562 1183.410156 L 1713.640625 1196.621094 C 1696.710938 1213.539062 1670.71875 1217.5 1649.539062 1206.308594 C 1641.160156 1201.910156 1632.398438 1198.269531 1623.441406 1195.480469 C 1600.601562 1188.359375 1585.039062 1167.21875 1585.039062 1143.300781 L 1585.039062 1124.679688 L 1569.269531 1124.679688 L 1569.269531 1143.308594 C 1569.269531 1167.25 1553.691406 1188.390625 1530.828125 1195.480469 C 1521.921875 1198.25 1513.140625 1201.890625 1504.75 1206.320312 C 1483.53125 1217.441406 1457.578125 1213.519531 1440.679688 1196.609375 L 1427.460938 1183.398438 L 1416.328125 1194.53125 L 1429.539062 1207.738281 C 1446.480469 1224.691406 1450.398438 1250.648438 1439.230469 1271.839844 C 1434.828125 1280.191406 1431.191406 1288.96875 1428.398438 1297.929688 C 1421.289062 1320.769531 1400.148438 1336.328125 1376.21875 1336.328125 L 1357.589844 1336.328125 L 1357.589844 1352.109375 L 1376.25 1352.109375 C 1400.171875 1352.109375 1421.300781 1367.679688 1428.410156 1390.519531 C 1431.210938 1399.46875 1434.859375 1408.25 1439.25 1416.601562 C 1450.410156 1437.800781 1446.460938 1463.769531 1429.539062 1480.691406 L 1416.328125 1493.898438 L 1427.460938 1505.058594 L 1440.679688 1491.851562 C 1457.601562 1474.929688 1483.558594 1470.960938 1504.761719 1482.140625 C 1513.140625 1486.539062 1521.921875 1490.191406 1530.851562 1492.96875 C 1553.691406 1500.078125 1569.25 1521.21875 1569.25 1545.140625 Z M 1612.75 1673.050781 C 1648.769531 1673.050781 1679.410156 1649.578125 1690.171875 1617.128906 C 1701.398438 1622.75 1713.859375 1625.761719 1726.820312 1625.761719 C 1748.640625 1625.761719 1769.109375 1617.289062 1784.480469 1601.910156 L 1834.890625 1551.53125 C 1860.359375 1526.050781 1865.398438 1487.789062 1850.070312 1457.25 C 1882.53125 1446.480469 1906 1415.828125 1906 1379.808594 L 1906 1308.570312 C 1906 1272.539062 1882.511719 1241.898438 1850.070312 1231.140625 C 1865.421875 1200.578125 1860.359375 1162.308594 1834.871094 1136.828125 L 1784.53125 1086.488281 C 1769.148438 1071.101562 1748.648438 1062.628906 1726.851562 1062.628906 C 1713.898438 1062.628906 1701.410156 1065.621094 1690.191406 1071.261719 C 1679.410156 1038.808594 1648.769531 1015.351562 1612.761719 1015.351562 L 1541.550781 1015.339844 C 1505.539062 1015.339844 1474.898438 1038.808594 1464.121094 1071.25 C 1452.890625 1065.609375 1440.421875 1062.609375 1427.460938 1062.609375 C 1405.671875 1062.609375 1385.179688 1071.078125 1369.789062 1086.460938 L 1319.421875 1136.828125 C 1293.941406 1162.308594 1288.878906 1200.578125 1304.21875 1231.140625 C 1271.761719 1241.910156 1248.300781 1272.550781 1248.300781 1308.570312 L 1248.300781 1379.808594 C 1248.300781 1415.828125 1271.761719 1446.460938 1304.199219 1457.25 C 1298.570312 1468.480469 1295.570312 1480.941406 1295.570312 1493.898438 C 1295.570312 1515.691406 1304.03125 1536.191406 1319.421875 1551.550781 L 1369.789062 1601.921875 C 1385.179688 1617.289062 1405.671875 1625.78125 1427.460938 1625.78125 C 1440.398438 1625.78125 1452.890625 1622.78125 1464.101562 1617.148438 C 1474.878906 1649.578125 1505.519531 1673.050781 1541.53125 1673.050781 Z M 1723.550781 2312.808594 L 1616.429688 2312.808594 C 1586.238281 2312.808594 1561.789062 2288.359375 1561.789062 2258.171875 C 1561.789062 2227.96875 1586.238281 2203.539062 1616.429688 2203.539062 L 1723.550781 2203.539062 C 1753.730469 2203.539062 1778.191406 2227.96875 1778.191406 2258.171875 C 1778.191406 2288.359375 1753.730469 2312.808594 1723.550781 2312.808594 Z M 2076.109375 2935.761719 L 1263.859375 2935.761719 L 1263.859375 2813.789062 L 2076.109375 2813.789062 Z M 2687.839844 1421.238281 C 2741.960938 1421.238281 2786.011719 1465.269531 2786.011719 1519.421875 C 2786.011719 1573.261719 2742.460938 1617.101562 2688.730469 1617.578125 L 2687.839844 1617.570312 L 2686.949219 1617.578125 C 2633.21875 1617.101562 2589.671875 1573.261719 2589.671875 1519.421875 C 2589.671875 1511.191406 2590.691406 1503.199219 2592.601562 1495.558594 L 2592.921875 1494.390625 L 2593.210938 1493.238281 C 2604.691406 1451.769531 2642.75 1421.238281 2687.839844 1421.238281 Z M 2067.78125 1183.359375 C 2121.878906 1215.898438 2158.148438 1275.191406 2158.148438 1342.800781 C 2158.148438 1409.898438 2122.398438 1468.820312 2068.949219 1501.519531 C 2076.019531 1479.390625 2081.578125 1456.789062 2085.601562 1433.878906 L 2085.730469 1433.140625 L 2085.820312 1432.671875 L 2086.699219 1427.449219 L 2086.769531 1426.941406 L 2086.839844 1426.5 L 2087.570312 1421.839844 L 2087.941406 1419.398438 L 2087.96875 1419.101562 L 2088.328125 1416.628906 L 2088.640625 1414.449219 L 2088.679688 1414.160156 L 2089.011719 1411.679688 L 2089.328125 1409.210938 L 2089.460938 1408.179688 L 2089.5 1407.878906 L 2089.921875 1404.25 L 2090.199219 1401.871094 L 2090.21875 1401.761719 L 2090.25 1401.359375 L 2090.769531 1396.539062 L 2090.960938 1394.609375 L 2091.441406 1389.410156 L 2091.441406 1389.320312 L 2091.460938 1389.199219 L 2091.480469 1388.871094 L 2091.960938 1382.949219 L 2091.980469 1382.761719 L 2092.390625 1376.828125 L 2092.410156 1376.449219 C 2093.070312 1365.730469 2093.410156 1354.980469 2093.410156 1344.199219 C 2093.410156 1339.898438 2093.351562 1335.609375 2093.238281 1331.328125 L 2093.238281 1330.808594 C 2093.019531 1322.230469 2092.570312 1313.691406 2091.941406 1305.160156 L 2091.828125 1303.730469 C 2091.53125 1299.949219 2091.179688 1296.179688 2090.808594 1292.398438 L 2090.640625 1290.628906 C 2090.269531 1287.121094 2089.871094 1283.609375 2089.421875 1280.101562 L 2089.050781 1277.121094 C 2088.621094 1273.898438 2088.179688 1270.679688 2087.699219 1267.480469 L 2087.121094 1263.789062 C 2086.660156 1260.820312 2086.179688 1257.851562 2085.660156 1254.890625 L 2084.921875 1250.820312 C 2084.398438 1247.921875 2083.839844 1245.019531 2083.25 1242.128906 L 2082.511719 1238.449219 C 2081.839844 1235.308594 2081.148438 1232.171875 2080.449219 1229.03125 L 2079.839844 1226.410156 C 2079.039062 1223.011719 2078.199219 1219.621094 2077.351562 1216.25 L 2076.910156 1214.550781 C 2075.921875 1210.761719 2074.898438 1206.988281 2073.851562 1203.230469 L 2073.789062 1203.03125 L 2073.738281 1202.828125 C 2071.859375 1196.300781 2069.898438 1189.808594 2067.78125 1183.359375 Z M 1669.980469 2043.050781 C 1786.578125 2043.050781 1881.828125 2136.351562 1885.011719 2252.199219 L 1885 2252.671875 C 1885 2253.449219 1885.019531 2254.230469 1885.050781 2255 L 1885.089844 2258.171875 C 1885.089844 2376.78125 1788.578125 2473.28125 1669.980469 2473.28125 C 1551.378906 2473.28125 1454.878906 2376.78125 1454.878906 2258.171875 C 1454.878906 2139.550781 1551.371094 2043.050781 1669.980469 2043.050781 Z M 1669.980469 2582.539062 C 1831.261719 2582.539062 1965.410156 2464.210938 1990.230469 2309.828125 C 2039.269531 2320.53125 2076.109375 2364.300781 2076.109375 2416.488281 L 2076.109375 2445.839844 C 2076.109375 2476.019531 2100.558594 2500.480469 2130.75 2500.480469 C 2160.929688 2500.480469 2185.378906 2476.019531 2185.378906 2445.839844 L 2185.378906 2416.488281 C 2185.378906 2303.46875 2099.140625 2210.230469 1988.96875 2199.140625 C 1972.691406 2110.949219 1920.621094 2035.121094 1848.429688 1987.378906 L 1949.261719 1701.691406 C 1968.710938 1681.449219 1986.519531 1659.628906 2002.5 1636.449219 C 2111.019531 1625.339844 2202.289062 1555.21875 2243.640625 1458.800781 L 2480.421875 1521.21875 C 2481.230469 1615.910156 2545.808594 1695.640625 2633.210938 1719.53125 L 2633.210938 1826.078125 C 2633.210938 1856.269531 2657.660156 1880.710938 2687.839844 1880.710938 C 2718.03125 1880.710938 2742.480469 1856.269531 2742.480469 1826.078125 L 2742.480469 1719.53125 C 2830.441406 1695.5 2895.289062 1614.878906 2895.289062 1519.390625 C 2895.289062 1405 2802.238281 1311.941406 2687.839844 1311.941406 C 2611.238281 1311.941406 2544.230469 1353.660156 2508.28125 1415.570312 L 2267.238281 1352.019531 C 2267.328125 1348.960938 2267.390625 1345.890625 2267.390625 1342.808594 C 2267.390625 1189.550781 2149.988281 1063.21875 2000.390625 1048.960938 C 1906.980469 915.441406 1752.101562 827.929688 1577.148438 827.929688 C 1512.039062 827.929688 1448.511719 839.898438 1388.378906 863.550781 C 1360.300781 874.589844 1346.46875 906.300781 1357.511719 934.390625 C 1368.550781 962.46875 1400.230469 976.300781 1428.351562 965.261719 C 1475.730469 946.660156 1525.800781 937.199219 1577.171875 937.199219 C 1748.789062 937.199219 1895.941406 1043.980469 1955.671875 1194.589844 L 1956.140625 1195.78125 C 1957.078125 1198.160156 1957.96875 1200.558594 1958.878906 1202.960938 L 1960.101562 1206.320312 L 1961.660156 1210.730469 C 1962.328125 1212.671875 1963 1214.601562 1963.628906 1216.550781 L 1964.699219 1219.859375 C 1977.511719 1259.800781 1984.109375 1301.730469 1984.109375 1344.21875 C 1984.109375 1380.078125 1979.398438 1415.558594 1970.238281 1449.78125 L 1969.648438 1451.980469 L 1968.078125 1457.589844 C 1967.429688 1459.808594 1966.761719 1462.03125 1966.089844 1464.230469 L 1965.609375 1465.75 C 1913.800781 1630.980469 1759.269531 1751.199219 1577.171875 1751.199219 C 1352.75 1751.199219 1170.171875 1568.628906 1170.171875 1344.210938 C 1170.171875 1246.921875 1205.058594 1152.761719 1268.390625 1079.070312 C 1288.058594 1056.171875 1285.460938 1021.691406 1262.570312 1002.011719 C 1239.679688 982.339844 1205.191406 984.949219 1185.519531 1007.828125 C 1105.160156 1101.328125 1060.890625 1220.800781 1060.890625 1344.210938 C 1060.890625 1628.878906 1292.480469 1860.480469 1577.160156 1860.480469 C 1654.660156 1860.480469 1728.21875 1843.269531 1794.25 1812.53125 L 1748.101562 1943.289062 C 1723.070312 1937.058594 1696.910156 1933.761719 1669.980469 1933.761719 C 1511.28125 1933.761719 1378.839844 2048.339844 1351 2199.121094 C 1240.851562 2210.210938 1154.578125 2303.449219 1154.578125 2416.488281 L 1154.578125 2935.761719 L 825.476562 2935.761719 C 795.3125 2935.761719 770.839844 2960.21875 770.839844 2990.398438 C 770.839844 3020.589844 795.3125 3045.039062 825.476562 3045.039062 L 3047.488281 3045.039062 C 3077.691406 3045.039062 3102.140625 3020.589844 3102.140625 2990.398438 C 3102.140625 2960.21875 3077.691406 2935.761719 3047.488281 2935.761719 L 2185.378906 2935.761719 L 2185.378906 2627.25 C 2185.378906 2597.070312 2160.929688 2572.621094 2130.75 2572.621094 C 2100.558594 2572.621094 2076.109375 2597.070312 2076.109375 2627.25 L 2076.109375 2704.511719 L 1263.859375 2704.511719 L 1263.859375 2416.488281 C 1263.859375 2364.300781 1300.691406 2320.539062 1349.738281 2309.828125 C 1374.558594 2464.210938 1508.699219 2582.539062 1669.980469 2582.539062 Z M 1599.359375 1398.828125 L 1554.941406 1398.828125 C 1524.75 1398.828125 1500.300781 1374.390625 1500.300781 1344.199219 C 1500.300781 1314.011719 1524.75 1289.558594 1554.941406 1289.558594 L 1599.359375 1289.558594 C 1629.550781 1289.558594 1654 1314.011719 1654 1344.199219 C 1654 1374.390625 1629.539062 1398.828125 1599.359375 1398.828125 "/>
</clipPath>
<linearGradient id="linear-pattern-0" gradientUnits="userSpaceOnUse" x1="0.000000000000000056" y1="0" x2="0.999996" y2="0" gradientTransform="matrix(2331.31, 0, 0, 2331.31, 770.839, 1936.49)">
<stop offset="0" stop-color="rgb(99.998474%, 80.39093%, 1.176453%)" stop-opacity="1"/>
<stop offset="0.00390625" stop-color="rgb(99.520874%, 80.37262%, 1.437378%)" stop-opacity="1"/>
<stop offset="0.0078125" stop-color="rgb(99.0448%, 80.355835%, 1.698303%)" stop-opacity="1"/>
<stop offset="0.0117188" stop-color="rgb(98.5672%, 80.337524%, 1.959229%)" stop-opacity="1"/>
<stop offset="0.015625" stop-color="rgb(98.0896%, 80.319214%, 2.22168%)" stop-opacity="1"/>
<stop offset="0.0195313" stop-color="rgb(97.612%, 80.300903%, 2.482605%)" stop-opacity="1"/>
<stop offset="0.0234375" stop-color="rgb(97.134399%, 80.282593%, 2.74353%)" stop-opacity="1"/>
<stop offset="0.0273438" stop-color="rgb(96.656799%, 80.264282%, 3.004456%)" stop-opacity="1"/>
<stop offset="0.03125" stop-color="rgb(96.179199%, 80.247498%, 3.266907%)" stop-opacity="1"/>
<stop offset="0.0351562" stop-color="rgb(95.701599%, 80.229187%, 3.527832%)" stop-opacity="1"/>
<stop offset="0.0390625" stop-color="rgb(95.223999%, 80.210876%, 3.788757%)" stop-opacity="1"/>
<stop offset="0.0429688" stop-color="rgb(94.746399%, 80.192566%, 4.049683%)" stop-opacity="1"/>
<stop offset="0.046875" stop-color="rgb(94.268799%, 80.175781%, 4.312134%)" stop-opacity="1"/>
<stop offset="0.0507813" stop-color="rgb(93.791199%, 80.157471%, 4.573059%)" stop-opacity="1"/>
<stop offset="0.0546875" stop-color="rgb(93.313599%, 80.13916%, 4.833984%)" stop-opacity="1"/>
<stop offset="0.0585938" stop-color="rgb(92.835999%, 80.12085%, 5.09491%)" stop-opacity="1"/>
<stop offset="0.0625" stop-color="rgb(92.358398%, 80.102539%, 5.357361%)" stop-opacity="1"/>
<stop offset="0.0664063" stop-color="rgb(91.880798%, 80.084229%, 5.618286%)" stop-opacity="1"/>
<stop offset="0.0703125" stop-color="rgb(91.403198%, 80.067444%, 5.879211%)" stop-opacity="1"/>
<stop offset="0.0742188" stop-color="rgb(90.925598%, 80.049133%, 6.140137%)" stop-opacity="1"/>
<stop offset="0.078125" stop-color="rgb(90.447998%, 80.030823%, 6.402588%)" stop-opacity="1"/>
<stop offset="0.0820312" stop-color="rgb(89.970398%, 80.012512%, 6.663513%)" stop-opacity="1"/>
<stop offset="0.0859375" stop-color="rgb(89.492798%, 79.994202%, 6.924438%)" stop-opacity="1"/>
<stop offset="0.0898438" stop-color="rgb(89.015198%, 79.975891%, 7.185364%)" stop-opacity="1"/>
<stop offset="0.09375" stop-color="rgb(88.537598%, 79.959106%, 7.447815%)" stop-opacity="1"/>
<stop offset="0.0976563" stop-color="rgb(88.059998%, 79.940796%, 7.70874%)" stop-opacity="1"/>
<stop offset="0.101563" stop-color="rgb(87.582397%, 79.922485%, 7.969666%)" stop-opacity="1"/>
<stop offset="0.105469" stop-color="rgb(87.104797%, 79.904175%, 8.230591%)" stop-opacity="1"/>
<stop offset="0.109375" stop-color="rgb(86.627197%, 79.88739%, 8.493042%)" stop-opacity="1"/>
<stop offset="0.113281" stop-color="rgb(86.149597%, 79.86908%, 8.753967%)" stop-opacity="1"/>
<stop offset="0.117188" stop-color="rgb(85.671997%, 79.850769%, 9.014893%)" stop-opacity="1"/>
<stop offset="0.121094" stop-color="rgb(85.194397%, 79.832458%, 9.275818%)" stop-opacity="1"/>
<stop offset="0.125" stop-color="rgb(84.716797%, 79.814148%, 9.538269%)" stop-opacity="1"/>
<stop offset="0.128906" stop-color="rgb(84.239197%, 79.795837%, 9.799194%)" stop-opacity="1"/>
<stop offset="0.132813" stop-color="rgb(83.761597%, 79.779053%, 10.06012%)" stop-opacity="1"/>
<stop offset="0.136719" stop-color="rgb(83.283997%, 79.760742%, 10.321045%)" stop-opacity="1"/>
<stop offset="0.140625" stop-color="rgb(82.806396%, 79.742432%, 10.583496%)" stop-opacity="1"/>
<stop offset="0.144531" stop-color="rgb(82.328796%, 79.724121%, 10.844421%)" stop-opacity="1"/>
<stop offset="0.148438" stop-color="rgb(81.851196%, 79.707336%, 11.105347%)" stop-opacity="1"/>
<stop offset="0.152344" stop-color="rgb(81.373596%, 79.689026%, 11.366272%)" stop-opacity="1"/>
<stop offset="0.15625" stop-color="rgb(80.895996%, 79.670715%, 11.628723%)" stop-opacity="1"/>
<stop offset="0.160156" stop-color="rgb(80.418396%, 79.652405%, 11.889648%)" stop-opacity="1"/>
<stop offset="0.164062" stop-color="rgb(79.940796%, 79.634094%, 12.150574%)" stop-opacity="1"/>
<stop offset="0.167969" stop-color="rgb(79.463196%, 79.615784%, 12.411499%)" stop-opacity="1"/>
<stop offset="0.171875" stop-color="rgb(78.985596%, 79.598999%, 12.67395%)" stop-opacity="1"/>
<stop offset="0.175781" stop-color="rgb(78.507996%, 79.580688%, 12.934875%)" stop-opacity="1"/>
<stop offset="0.179688" stop-color="rgb(78.030396%, 79.562378%, 13.195801%)" stop-opacity="1"/>
<stop offset="0.183594" stop-color="rgb(77.552795%, 79.544067%, 13.456726%)" stop-opacity="1"/>
<stop offset="0.1875" stop-color="rgb(77.075195%, 79.525757%, 13.719177%)" stop-opacity="1"/>
<stop offset="0.191406" stop-color="rgb(76.597595%, 79.507446%, 13.980103%)" stop-opacity="1"/>
<stop offset="0.195313" stop-color="rgb(76.119995%, 79.490662%, 14.241028%)" stop-opacity="1"/>
<stop offset="0.199219" stop-color="rgb(75.642395%, 79.472351%, 14.501953%)" stop-opacity="1"/>
<stop offset="0.203125" stop-color="rgb(75.164795%, 79.454041%, 14.764404%)" stop-opacity="1"/>
<stop offset="0.207031" stop-color="rgb(74.687195%, 79.43573%, 15.02533%)" stop-opacity="1"/>
<stop offset="0.210938" stop-color="rgb(74.209595%, 79.418945%, 15.286255%)" stop-opacity="1"/>
<stop offset="0.214844" stop-color="rgb(73.731995%, 79.400635%, 15.54718%)" stop-opacity="1"/>
<stop offset="0.21875" stop-color="rgb(73.254395%, 79.382324%, 15.809631%)" stop-opacity="1"/>
<stop offset="0.222656" stop-color="rgb(72.776794%, 79.364014%, 16.070557%)" stop-opacity="1"/>
<stop offset="0.226563" stop-color="rgb(72.299194%, 79.345703%, 16.331482%)" stop-opacity="1"/>
<stop offset="0.230469" stop-color="rgb(71.821594%, 79.327393%, 16.592407%)" stop-opacity="1"/>
<stop offset="0.234375" stop-color="rgb(71.343994%, 79.310608%, 16.854858%)" stop-opacity="1"/>
<stop offset="0.238281" stop-color="rgb(70.866394%, 79.292297%, 17.115784%)" stop-opacity="1"/>
<stop offset="0.242188" stop-color="rgb(70.388794%, 79.273987%, 17.376709%)" stop-opacity="1"/>
<stop offset="0.246094" stop-color="rgb(69.911194%, 79.255676%, 17.637634%)" stop-opacity="1"/>
<stop offset="0.25" stop-color="rgb(69.433594%, 79.237366%, 17.900085%)" stop-opacity="1"/>
<stop offset="0.253906" stop-color="rgb(68.955994%, 79.219055%, 18.161011%)" stop-opacity="1"/>
<stop offset="0.257812" stop-color="rgb(68.478394%, 79.202271%, 18.421936%)" stop-opacity="1"/>
<stop offset="0.261719" stop-color="rgb(68.000793%, 79.18396%, 18.682861%)" stop-opacity="1"/>
<stop offset="0.265625" stop-color="rgb(67.523193%, 79.165649%, 18.945312%)" stop-opacity="1"/>
<stop offset="0.269531" stop-color="rgb(67.045593%, 79.147339%, 19.206238%)" stop-opacity="1"/>
<stop offset="0.273438" stop-color="rgb(66.567993%, 79.130554%, 19.467163%)" stop-opacity="1"/>
<stop offset="0.277344" stop-color="rgb(66.090393%, 79.112244%, 19.728088%)" stop-opacity="1"/>
<stop offset="0.28125" stop-color="rgb(65.614319%, 79.093933%, 19.99054%)" stop-opacity="1"/>
<stop offset="0.285156" stop-color="rgb(65.136719%, 79.075623%, 20.251465%)" stop-opacity="1"/>
<stop offset="0.289062" stop-color="rgb(64.659119%, 79.057312%, 20.513916%)" stop-opacity="1"/>
<stop offset="0.292969" stop-color="rgb(64.181519%, 79.039001%, 20.774841%)" stop-opacity="1"/>
<stop offset="0.296875" stop-color="rgb(63.703918%, 79.022217%, 21.035767%)" stop-opacity="1"/>
<stop offset="0.300781" stop-color="rgb(63.226318%, 79.003906%, 21.296692%)" stop-opacity="1"/>
<stop offset="0.304688" stop-color="rgb(62.748718%, 78.985596%, 21.559143%)" stop-opacity="1"/>
<stop offset="0.308594" stop-color="rgb(62.271118%, 78.967285%, 21.820068%)" stop-opacity="1"/>
<stop offset="0.3125" stop-color="rgb(61.793518%, 78.948975%, 22.080994%)" stop-opacity="1"/>
<stop offset="0.316406" stop-color="rgb(61.315918%, 78.930664%, 22.341919%)" stop-opacity="1"/>
<stop offset="0.320313" stop-color="rgb(60.838318%, 78.913879%, 22.60437%)" stop-opacity="1"/>
<stop offset="0.324219" stop-color="rgb(60.360718%, 78.895569%, 22.865295%)" stop-opacity="1"/>
<stop offset="0.328125" stop-color="rgb(59.883118%, 78.877258%, 23.126221%)" stop-opacity="1"/>
<stop offset="0.332031" stop-color="rgb(59.405518%, 78.858948%, 23.387146%)" stop-opacity="1"/>
<stop offset="0.335938" stop-color="rgb(58.927917%, 78.842163%, 23.649597%)" stop-opacity="1"/>
<stop offset="0.339844" stop-color="rgb(58.433533%, 78.822327%, 24.168396%)" stop-opacity="1"/>
<stop offset="0.34375" stop-color="rgb(57.939148%, 78.80249%, 24.688721%)" stop-opacity="1"/>
<stop offset="0.347656" stop-color="rgb(57.426453%, 78.779602%, 25.489807%)" stop-opacity="1"/>
<stop offset="0.351562" stop-color="rgb(56.915283%, 78.75824%, 26.290894%)" stop-opacity="1"/>
<stop offset="0.355469" stop-color="rgb(56.402588%, 78.735352%, 27.09198%)" stop-opacity="1"/>
<stop offset="0.359375" stop-color="rgb(55.891418%, 78.713989%, 27.893066%)" stop-opacity="1"/>
<stop offset="0.363281" stop-color="rgb(55.378723%, 78.691101%, 28.694153%)" stop-opacity="1"/>
<stop offset="0.367188" stop-color="rgb(54.866028%, 78.669739%, 29.495239%)" stop-opacity="1"/>
<stop offset="0.371094" stop-color="rgb(54.353333%, 78.648376%, 30.296326%)" stop-opacity="1"/>
<stop offset="0.375" stop-color="rgb(53.842163%, 78.627014%, 31.097412%)" stop-opacity="1"/>
<stop offset="0.378906" stop-color="rgb(53.329468%, 78.604126%, 31.898499%)" stop-opacity="1"/>
<stop offset="0.382812" stop-color="rgb(52.818298%, 78.582764%, 32.699585%)" stop-opacity="1"/>
<stop offset="0.386719" stop-color="rgb(52.305603%, 78.559875%, 33.499146%)" stop-opacity="1"/>
<stop offset="0.390625" stop-color="rgb(51.794434%, 78.538513%, 34.300232%)" stop-opacity="1"/>
<stop offset="0.394531" stop-color="rgb(51.281738%, 78.517151%, 35.101318%)" stop-opacity="1"/>
<stop offset="0.398438" stop-color="rgb(50.770569%, 78.495789%, 35.902405%)" stop-opacity="1"/>
<stop offset="0.402344" stop-color="rgb(50.257874%, 78.4729%, 36.703491%)" stop-opacity="1"/>
<stop offset="0.40625" stop-color="rgb(49.746704%, 78.451538%, 37.504578%)" stop-opacity="1"/>
<stop offset="0.410156" stop-color="rgb(49.234009%, 78.42865%, 38.305664%)" stop-opacity="1"/>
<stop offset="0.414063" stop-color="rgb(48.721313%, 78.407288%, 39.10675%)" stop-opacity="1"/>
<stop offset="0.417969" stop-color="rgb(48.208618%, 78.385925%, 39.907837%)" stop-opacity="1"/>
<stop offset="0.421875" stop-color="rgb(47.697449%, 78.364563%, 40.708923%)" stop-opacity="1"/>
<stop offset="0.425781" stop-color="rgb(47.184753%, 78.341675%, 41.508484%)" stop-opacity="1"/>
<stop offset="0.429688" stop-color="rgb(46.673584%, 78.320312%, 42.30957%)" stop-opacity="1"/>
<stop offset="0.433594" stop-color="rgb(46.160889%, 78.297424%, 43.110657%)" stop-opacity="1"/>
<stop offset="0.4375" stop-color="rgb(45.649719%, 78.276062%, 43.911743%)" stop-opacity="1"/>
<stop offset="0.441406" stop-color="rgb(45.137024%, 78.2547%, 44.71283%)" stop-opacity="1"/>
<stop offset="0.445313" stop-color="rgb(44.625854%, 78.233337%, 45.513916%)" stop-opacity="1"/>
<stop offset="0.449219" stop-color="rgb(44.113159%, 78.210449%, 46.315002%)" stop-opacity="1"/>
<stop offset="0.453125" stop-color="rgb(43.600464%, 78.189087%, 47.116089%)" stop-opacity="1"/>
<stop offset="0.457031" stop-color="rgb(43.087769%, 78.166199%, 47.917175%)" stop-opacity="1"/>
<stop offset="0.460938" stop-color="rgb(42.576599%, 78.144836%, 48.718262%)" stop-opacity="1"/>
<stop offset="0.464844" stop-color="rgb(42.063904%, 78.123474%, 49.517822%)" stop-opacity="1"/>
<stop offset="0.46875" stop-color="rgb(41.552734%, 78.102112%, 50.318909%)" stop-opacity="1"/>
<stop offset="0.472656" stop-color="rgb(41.040039%, 78.079224%, 51.119995%)" stop-opacity="1"/>
<stop offset="0.476562" stop-color="rgb(40.52887%, 78.057861%, 51.921082%)" stop-opacity="1"/>
<stop offset="0.480469" stop-color="rgb(40.016174%, 78.034973%, 52.722168%)" stop-opacity="1"/>
<stop offset="0.484375" stop-color="rgb(39.505005%, 78.013611%, 53.523254%)" stop-opacity="1"/>
<stop offset="0.488281" stop-color="rgb(38.99231%, 77.992249%, 54.324341%)" stop-opacity="1"/>
<stop offset="0.492188" stop-color="rgb(38.479614%, 77.970886%, 55.125427%)" stop-opacity="1"/>
<stop offset="0.496094" stop-color="rgb(37.966919%, 77.947998%, 55.926514%)" stop-opacity="1"/>
<stop offset="0.5" stop-color="rgb(37.45575%, 77.926636%, 56.7276%)" stop-opacity="1"/>
<stop offset="0.503906" stop-color="rgb(36.943054%, 77.903748%, 57.528687%)" stop-opacity="1"/>
<stop offset="0.507812" stop-color="rgb(36.431885%, 77.882385%, 58.329773%)" stop-opacity="1"/>
<stop offset="0.511719" stop-color="rgb(35.919189%, 77.859497%, 59.129333%)" stop-opacity="1"/>
<stop offset="0.515625" stop-color="rgb(35.40802%, 77.838135%, 59.93042%)" stop-opacity="1"/>
<stop offset="0.519531" stop-color="rgb(34.895325%, 77.816772%, 60.731506%)" stop-opacity="1"/>
<stop offset="0.523438" stop-color="rgb(34.384155%, 77.79541%, 61.532593%)" stop-opacity="1"/>
<stop offset="0.527344" stop-color="rgb(33.87146%, 77.772522%, 62.333679%)" stop-opacity="1"/>
<stop offset="0.53125" stop-color="rgb(33.358765%, 77.75116%, 63.134766%)" stop-opacity="1"/>
<stop offset="0.535156" stop-color="rgb(32.846069%, 77.728271%, 63.935852%)" stop-opacity="1"/>
<stop offset="0.539063" stop-color="rgb(32.3349%, 77.706909%, 64.736938%)" stop-opacity="1"/>
<stop offset="0.542969" stop-color="rgb(31.822205%, 77.685547%, 65.538025%)" stop-opacity="1"/>
<stop offset="0.546875" stop-color="rgb(31.311035%, 77.664185%, 66.339111%)" stop-opacity="1"/>
<stop offset="0.550781" stop-color="rgb(30.79834%, 77.641296%, 67.138672%)" stop-opacity="1"/>
<stop offset="0.554687" stop-color="rgb(30.28717%, 77.619934%, 67.939758%)" stop-opacity="1"/>
<stop offset="0.558594" stop-color="rgb(29.774475%, 77.597046%, 68.740845%)" stop-opacity="1"/>
<stop offset="0.5625" stop-color="rgb(29.263306%, 77.575684%, 69.541931%)" stop-opacity="1"/>
<stop offset="0.566406" stop-color="rgb(28.75061%, 77.554321%, 70.343018%)" stop-opacity="1"/>
<stop offset="0.570312" stop-color="rgb(28.237915%, 77.532959%, 71.144104%)" stop-opacity="1"/>
<stop offset="0.574219" stop-color="rgb(27.72522%, 77.510071%, 71.94519%)" stop-opacity="1"/>
<stop offset="0.578125" stop-color="rgb(27.21405%, 77.488708%, 72.746277%)" stop-opacity="1"/>
<stop offset="0.582031" stop-color="rgb(26.701355%, 77.46582%, 73.547363%)" stop-opacity="1"/>
<stop offset="0.585938" stop-color="rgb(26.190186%, 77.444458%, 74.34845%)" stop-opacity="1"/>
<stop offset="0.589844" stop-color="rgb(25.67749%, 77.423096%, 75.14801%)" stop-opacity="1"/>
<stop offset="0.59375" stop-color="rgb(25.166321%, 77.401733%, 75.949097%)" stop-opacity="1"/>
<stop offset="0.597656" stop-color="rgb(24.653625%, 77.378845%, 76.750183%)" stop-opacity="1"/>
<stop offset="0.601562" stop-color="rgb(24.142456%, 77.357483%, 77.55127%)" stop-opacity="1"/>
<stop offset="0.605469" stop-color="rgb(23.629761%, 77.334595%, 78.352356%)" stop-opacity="1"/>
<stop offset="0.609375" stop-color="rgb(23.118591%, 77.313232%, 79.153442%)" stop-opacity="1"/>
<stop offset="0.613281" stop-color="rgb(22.605896%, 77.29187%, 79.954529%)" stop-opacity="1"/>
<stop offset="0.617188" stop-color="rgb(22.093201%, 77.270508%, 80.755615%)" stop-opacity="1"/>
<stop offset="0.621094" stop-color="rgb(21.580505%, 77.24762%, 81.556702%)" stop-opacity="1"/>
<stop offset="0.625" stop-color="rgb(21.069336%, 77.226257%, 82.357788%)" stop-opacity="1"/>
<stop offset="0.628906" stop-color="rgb(20.556641%, 77.203369%, 83.157349%)" stop-opacity="1"/>
<stop offset="0.632813" stop-color="rgb(20.045471%, 77.182007%, 83.958435%)" stop-opacity="1"/>
<stop offset="0.636719" stop-color="rgb(19.532776%, 77.160645%, 84.759521%)" stop-opacity="1"/>
<stop offset="0.640625" stop-color="rgb(19.021606%, 77.139282%, 85.560608%)" stop-opacity="1"/>
<stop offset="0.644531" stop-color="rgb(18.508911%, 77.116394%, 86.361694%)" stop-opacity="1"/>
<stop offset="0.648437" stop-color="rgb(17.997742%, 77.095032%, 87.162781%)" stop-opacity="1"/>
<stop offset="0.652344" stop-color="rgb(17.485046%, 77.072144%, 87.963867%)" stop-opacity="1"/>
<stop offset="0.65625" stop-color="rgb(16.972351%, 77.050781%, 88.764954%)" stop-opacity="1"/>
<stop offset="0.660156" stop-color="rgb(16.459656%, 77.027893%, 89.56604%)" stop-opacity="1"/>
<stop offset="0.664062" stop-color="rgb(15.948486%, 77.006531%, 90.367126%)" stop-opacity="1"/>
<stop offset="0.667969" stop-color="rgb(15.435791%, 76.985168%, 91.168213%)" stop-opacity="1"/>
<stop offset="0.671875" stop-color="rgb(14.924622%, 76.963806%, 91.969299%)" stop-opacity="1"/>
<stop offset="0.675781" stop-color="rgb(14.411926%, 76.940918%, 92.76886%)" stop-opacity="1"/>
<stop offset="0.679688" stop-color="rgb(13.900757%, 76.919556%, 93.569946%)" stop-opacity="1"/>
<stop offset="0.683594" stop-color="rgb(13.388062%, 76.896667%, 94.371033%)" stop-opacity="1"/>
<stop offset="0.6875" stop-color="rgb(12.876892%, 76.875305%, 95.172119%)" stop-opacity="1"/>
<stop offset="0.691406" stop-color="rgb(13.038635%, 76.41449%, 95.115662%)" stop-opacity="1"/>
<stop offset="0.695312" stop-color="rgb(13.200378%, 75.9552%, 95.06073%)" stop-opacity="1"/>
<stop offset="0.699219" stop-color="rgb(13.679504%, 75.288391%, 94.60144%)" stop-opacity="1"/>
<stop offset="0.703125" stop-color="rgb(14.15863%, 74.621582%, 94.142151%)" stop-opacity="1"/>
<stop offset="0.707031" stop-color="rgb(14.637756%, 73.953247%, 93.681335%)" stop-opacity="1"/>
<stop offset="0.710938" stop-color="rgb(15.116882%, 73.286438%, 93.222046%)" stop-opacity="1"/>
<stop offset="0.714844" stop-color="rgb(15.596008%, 72.619629%, 92.762756%)" stop-opacity="1"/>
<stop offset="0.71875" stop-color="rgb(16.075134%, 71.95282%, 92.303467%)" stop-opacity="1"/>
<stop offset="0.722656" stop-color="rgb(16.55426%, 71.284485%, 91.844177%)" stop-opacity="1"/>
<stop offset="0.726563" stop-color="rgb(17.034912%, 70.617676%, 91.384888%)" stop-opacity="1"/>
<stop offset="0.730469" stop-color="rgb(17.514038%, 69.950867%, 90.924072%)" stop-opacity="1"/>
<stop offset="0.734375" stop-color="rgb(17.993164%, 69.284058%, 90.464783%)" stop-opacity="1"/>
<stop offset="0.738281" stop-color="rgb(18.47229%, 68.617249%, 90.005493%)" stop-opacity="1"/>
<stop offset="0.742187" stop-color="rgb(18.951416%, 67.950439%, 89.546204%)" stop-opacity="1"/>
<stop offset="0.746094" stop-color="rgb(19.430542%, 67.282104%, 89.086914%)" stop-opacity="1"/>
<stop offset="0.75" stop-color="rgb(19.909668%, 66.615295%, 88.627625%)" stop-opacity="1"/>
<stop offset="0.753906" stop-color="rgb(20.388794%, 65.948486%, 88.166809%)" stop-opacity="1"/>
<stop offset="0.757812" stop-color="rgb(20.869446%, 65.281677%, 87.70752%)" stop-opacity="1"/>
<stop offset="0.761719" stop-color="rgb(21.348572%, 64.614868%, 87.24823%)" stop-opacity="1"/>
<stop offset="0.765625" stop-color="rgb(21.827698%, 63.948059%, 86.78894%)" stop-opacity="1"/>
<stop offset="0.769531" stop-color="rgb(22.306824%, 63.279724%, 86.329651%)" stop-opacity="1"/>
<stop offset="0.773438" stop-color="rgb(22.78595%, 62.612915%, 85.870361%)" stop-opacity="1"/>
<stop offset="0.777344" stop-color="rgb(23.265076%, 61.946106%, 85.409546%)" stop-opacity="1"/>
<stop offset="0.78125" stop-color="rgb(23.744202%, 61.279297%, 84.950256%)" stop-opacity="1"/>
<stop offset="0.785156" stop-color="rgb(24.223328%, 60.610962%, 84.490967%)" stop-opacity="1"/>
<stop offset="0.789062" stop-color="rgb(24.703979%, 59.944153%, 84.031677%)" stop-opacity="1"/>
<stop offset="0.792969" stop-color="rgb(25.183105%, 59.277344%, 83.572388%)" stop-opacity="1"/>
<stop offset="0.796875" stop-color="rgb(25.662231%, 58.610535%, 83.113098%)" stop-opacity="1"/>
<stop offset="0.800781" stop-color="rgb(26.141357%, 57.943726%, 82.652283%)" stop-opacity="1"/>
<stop offset="0.804688" stop-color="rgb(26.620483%, 57.276917%, 82.192993%)" stop-opacity="1"/>
<stop offset="0.808594" stop-color="rgb(27.099609%, 56.608582%, 81.733704%)" stop-opacity="1"/>
<stop offset="0.8125" stop-color="rgb(27.578735%, 55.941772%, 81.274414%)" stop-opacity="1"/>
<stop offset="0.816406" stop-color="rgb(28.057861%, 55.274963%, 80.813599%)" stop-opacity="1"/>
<stop offset="0.820313" stop-color="rgb(28.538513%, 54.608154%, 80.354309%)" stop-opacity="1"/>
<stop offset="0.824219" stop-color="rgb(29.017639%, 53.941345%, 79.89502%)" stop-opacity="1"/>
<stop offset="0.828125" stop-color="rgb(29.496765%, 53.274536%, 79.43573%)" stop-opacity="1"/>
<stop offset="0.832031" stop-color="rgb(29.975891%, 52.606201%, 78.97644%)" stop-opacity="1"/>
<stop offset="0.835937" stop-color="rgb(30.455017%, 51.939392%, 78.517151%)" stop-opacity="1"/>
<stop offset="0.839844" stop-color="rgb(30.934143%, 51.272583%, 78.056335%)" stop-opacity="1"/>
<stop offset="0.84375" stop-color="rgb(31.414795%, 50.605774%, 77.597046%)" stop-opacity="1"/>
<stop offset="0.847656" stop-color="rgb(31.893921%, 49.937439%, 77.137756%)" stop-opacity="1"/>
<stop offset="0.851562" stop-color="rgb(32.373047%, 49.27063%, 76.678467%)" stop-opacity="1"/>
<stop offset="0.855469" stop-color="rgb(32.852173%, 48.603821%, 76.219177%)" stop-opacity="1"/>
<stop offset="0.859375" stop-color="rgb(33.331299%, 47.937012%, 75.759888%)" stop-opacity="1"/>
<stop offset="0.863281" stop-color="rgb(33.810425%, 47.270203%, 75.299072%)" stop-opacity="1"/>
<stop offset="0.867188" stop-color="rgb(34.289551%, 46.603394%, 74.839783%)" stop-opacity="1"/>
<stop offset="0.871094" stop-color="rgb(34.768677%, 45.935059%, 74.380493%)" stop-opacity="1"/>
<stop offset="0.875" stop-color="rgb(35.249329%, 45.26825%, 73.921204%)" stop-opacity="1"/>
<stop offset="0.878906" stop-color="rgb(35.728455%, 44.60144%, 73.461914%)" stop-opacity="1"/>
<stop offset="0.882812" stop-color="rgb(36.207581%, 43.934631%, 73.002625%)" stop-opacity="1"/>
<stop offset="0.886719" stop-color="rgb(36.686707%, 43.266296%, 72.541809%)" stop-opacity="1"/>
<stop offset="0.890625" stop-color="rgb(37.165833%, 42.599487%, 72.08252%)" stop-opacity="1"/>
<stop offset="0.894531" stop-color="rgb(37.644958%, 41.932678%, 71.62323%)" stop-opacity="1"/>
<stop offset="0.898438" stop-color="rgb(38.124084%, 41.265869%, 71.16394%)" stop-opacity="1"/>
<stop offset="0.902344" stop-color="rgb(38.60321%, 40.59906%, 70.704651%)" stop-opacity="1"/>
<stop offset="0.90625" stop-color="rgb(39.083862%, 39.932251%, 70.245361%)" stop-opacity="1"/>
<stop offset="0.910156" stop-color="rgb(39.562988%, 39.263916%, 69.784546%)" stop-opacity="1"/>
<stop offset="0.914063" stop-color="rgb(40.042114%, 38.597107%, 69.325256%)" stop-opacity="1"/>
<stop offset="0.917969" stop-color="rgb(40.52124%, 37.930298%, 68.865967%)" stop-opacity="1"/>
<stop offset="0.921875" stop-color="rgb(41.000366%, 37.263489%, 68.406677%)" stop-opacity="1"/>
<stop offset="0.925781" stop-color="rgb(41.479492%, 36.59668%, 67.947388%)" stop-opacity="1"/>
<stop offset="0.929687" stop-color="rgb(41.958618%, 35.929871%, 67.488098%)" stop-opacity="1"/>
<stop offset="0.933594" stop-color="rgb(42.437744%, 35.261536%, 67.027283%)" stop-opacity="1"/>
<stop offset="0.9375" stop-color="rgb(42.918396%, 34.594727%, 66.567993%)" stop-opacity="1"/>
<stop offset="0.941406" stop-color="rgb(43.397522%, 33.927917%, 66.108704%)" stop-opacity="1"/>
<stop offset="0.945312" stop-color="rgb(43.876648%, 33.261108%, 65.649414%)" stop-opacity="1"/>
<stop offset="0.949219" stop-color="rgb(44.355774%, 32.592773%, 65.190125%)" stop-opacity="1"/>
<stop offset="0.953125" stop-color="rgb(44.8349%, 31.925964%, 64.730835%)" stop-opacity="1"/>
<stop offset="0.957031" stop-color="rgb(45.314026%, 31.259155%, 64.27002%)" stop-opacity="1"/>
<stop offset="0.960938" stop-color="rgb(45.793152%, 30.592346%, 63.81073%)" stop-opacity="1"/>
<stop offset="0.964844" stop-color="rgb(46.272278%, 29.925537%, 63.35144%)" stop-opacity="1"/>
<stop offset="0.96875" stop-color="rgb(46.75293%, 29.258728%, 62.892151%)" stop-opacity="1"/>
<stop offset="0.972656" stop-color="rgb(47.232056%, 28.590393%, 62.431335%)" stop-opacity="1"/>
<stop offset="0.976562" stop-color="rgb(47.711182%, 27.923584%, 61.972046%)" stop-opacity="1"/>
<stop offset="0.980469" stop-color="rgb(48.190308%, 27.256775%, 61.512756%)" stop-opacity="1"/>
<stop offset="0.984375" stop-color="rgb(48.669434%, 26.589966%, 61.053467%)" stop-opacity="1"/>
<stop offset="0.988281" stop-color="rgb(49.14856%, 25.923157%, 60.594177%)" stop-opacity="1"/>
<stop offset="0.992188" stop-color="rgb(49.627686%, 25.256348%, 60.134888%)" stop-opacity="1"/>
<stop offset="0.996094" stop-color="rgb(50.106812%, 24.588013%, 59.674072%)" stop-opacity="1"/>
<stop offset="1" stop-color="rgb(50.587463%, 23.921204%, 59.214783%)" stop-opacity="1"/>
</linearGradient>
</defs>
<g clip-path="url(#clip-0)">
<path fill-rule="evenodd" fill="rgb(9.008789%, 3.137207%, 16.088867%)" fill-opacity="1" d="M 713.855469 0 L 3159.121094 0 C 3551.75 0 3872.96875 321.230469 3872.96875 713.859375 L 3872.96875 3159.121094 C 3872.96875 3551.75 3551.75 3872.96875 3159.121094 3872.96875 L 713.855469 3872.96875 C 321.230469 3872.96875 0 3551.75 0 3159.121094 L 0 713.859375 C 0 321.230469 321.230469 0 713.855469 0 "/>
</g>
<g clip-path="url(#clip-1)">
<g clip-path="url(#clip-2)">
<path fill-rule="nonzero" fill="url(#linear-pattern-0)" d="M 770.839844 827.929688 L 770.839844 3045.039062 L 3102.140625 3045.039062 L 3102.140625 827.929688 Z M 770.839844 827.929688 "/>
</g>
</g>
</svg>
