<?xml version="1.0" encoding="UTF-8"?>
<svg xmlns="http://www.w3.org/2000/svg" xmlns:xlink="http://www.w3.org/1999/xlink" width="3872.97" height="3872.97" viewBox="0 0 3872.97 3872.97">
<defs>
<clipPath id="clip-0">
<path clip-rule="nonzero" d="M 0 0 L 3872.96875 0 L 3872.96875 3872.96875 L 0 3872.96875 Z M 0 0 "/>
</clipPath>
<clipPath id="clip-1">
<path clip-rule="nonzero" d="M 770 887 L 3103 887 L 3103 2986 L 770 2986 Z M 770 887 "/>
</clipPath>
<clipPath id="clip-2">
<path clip-rule="evenodd" d="M 1283.730469 1527.351562 C 1293.160156 1527.351562 1302.371094 1522.429688 1307.429688 1513.679688 C 1314.96875 1500.601562 1310.480469 1483.878906 1297.421875 1476.339844 L 1266.941406 1458.75 C 1253.839844 1451.160156 1237.128906 1455.660156 1229.589844 1468.738281 C 1222.050781 1481.820312 1226.539062 1498.550781 1239.589844 1506.078125 L 1270.078125 1523.679688 C 1274.390625 1526.148438 1279.101562 1527.351562 1283.730469 1527.351562 Z M 1261.828125 1609.21875 L 1226.621094 1609.21875 C 1211.53125 1609.21875 1199.289062 1596.96875 1199.289062 1581.878906 C 1199.289062 1566.789062 1211.53125 1554.539062 1226.621094 1554.539062 L 1261.828125 1554.539062 C 1276.921875 1554.539062 1289.160156 1566.789062 1289.160156 1581.878906 C 1289.160156 1596.96875 1276.921875 1609.21875 1261.828125 1609.21875 Z M 1253.300781 1708.699219 C 1243.851562 1708.699219 1234.660156 1703.789062 1229.589844 1695.03125 C 1222.050781 1681.941406 1226.511719 1665.21875 1239.589844 1657.679688 L 1270.078125 1640.089844 C 1283.179688 1632.53125 1299.878906 1637.03125 1307.410156 1650.089844 C 1314.949219 1663.171875 1310.5 1679.890625 1297.421875 1687.429688 L 1266.929688 1705.03125 C 1262.628906 1707.519531 1257.929688 1708.699219 1253.300781 1708.699219 Z M 1326.058594 1781.519531 C 1321.429688 1781.519531 1316.730469 1780.328125 1312.421875 1777.859375 C 1299.359375 1770.320312 1294.878906 1753.601562 1302.421875 1740.519531 L 1320.019531 1710.03125 C 1327.558594 1696.949219 1344.261719 1692.449219 1357.359375 1700.03125 C 1370.421875 1707.570312 1374.898438 1724.289062 1367.359375 1737.371094 L 1349.761719 1767.859375 C 1344.710938 1776.628906 1335.5 1781.519531 1326.058594 1781.519531 Z M 1425.570312 1808.171875 C 1410.480469 1808.171875 1398.230469 1795.929688 1398.230469 1780.839844 L 1398.230469 1745.621094 C 1398.230469 1730.53125 1410.480469 1718.28125 1425.570312 1718.28125 C 1440.660156 1718.28125 1452.910156 1730.53125 1452.910156 1745.621094 L 1452.910156 1780.839844 C 1452.910156 1795.929688 1440.660156 1808.171875 1425.570312 1808.171875 Z M 1525.070312 1781.519531 C 1515.621094 1781.519531 1506.429688 1776.628906 1501.351562 1767.859375 L 1483.761719 1737.371094 C 1476.21875 1724.289062 1480.679688 1707.570312 1493.75 1700.03125 C 1506.878906 1692.46875 1523.558594 1696.949219 1531.101562 1710.03125 L 1548.699219 1740.519531 C 1556.230469 1753.601562 1551.78125 1770.320312 1538.691406 1777.859375 C 1534.410156 1780.328125 1529.699219 1781.519531 1525.070312 1781.519531 Z M 1597.839844 1708.699219 C 1593.199219 1708.699219 1588.488281 1707.5 1584.191406 1705.03125 L 1553.699219 1687.429688 C 1540.640625 1679.890625 1536.148438 1663.171875 1543.699219 1650.089844 C 1551.230469 1637.011719 1567.921875 1632.53125 1581.039062 1640.089844 L 1611.53125 1657.679688 C 1624.589844 1665.21875 1629.070312 1681.941406 1621.53125 1695.03125 C 1616.480469 1703.800781 1607.300781 1708.699219 1597.839844 1708.699219 Z M 1624.519531 1609.21875 L 1589.308594 1609.21875 C 1574.21875 1609.21875 1561.96875 1596.96875 1561.96875 1581.878906 C 1561.96875 1566.789062 1574.21875 1554.539062 1589.308594 1554.539062 L 1624.519531 1554.539062 C 1639.609375 1554.539062 1651.851562 1566.789062 1651.851562 1581.878906 C 1651.851562 1596.96875 1639.628906 1609.21875 1624.519531 1609.21875 Z M 1567.410156 1527.351562 C 1557.949219 1527.351562 1548.769531 1522.449219 1543.691406 1513.679688 C 1536.148438 1500.601562 1540.609375 1483.878906 1553.691406 1476.339844 L 1584.179688 1458.75 C 1597.300781 1451.210938 1613.988281 1455.660156 1621.519531 1468.738281 C 1629.058594 1481.820312 1624.609375 1498.550781 1611.519531 1506.078125 L 1581.039062 1523.679688 C 1576.75 1526.160156 1572.050781 1527.351562 1567.410156 1527.351562 Z M 1507.410156 1467.410156 C 1502.769531 1467.410156 1498.070312 1466.21875 1493.769531 1463.738281 C 1480.710938 1456.21875 1476.21875 1439.480469 1483.761719 1426.410156 L 1501.359375 1395.910156 C 1508.898438 1382.859375 1525.578125 1378.371094 1538.699219 1385.921875 C 1551.761719 1393.449219 1556.25 1410.179688 1548.699219 1423.25 L 1531.101562 1453.75 C 1526.058594 1462.519531 1516.851562 1467.410156 1507.410156 1467.410156 Z M 1425.570312 1445.46875 C 1410.480469 1445.46875 1398.230469 1433.230469 1398.230469 1418.128906 L 1398.230469 1382.921875 C 1398.230469 1367.828125 1410.480469 1355.578125 1425.570312 1355.578125 C 1440.660156 1355.578125 1452.910156 1367.828125 1452.910156 1382.921875 L 1452.910156 1418.128906 C 1452.910156 1433.238281 1440.660156 1445.46875 1425.570312 1445.46875 Z M 1425.570312 1517.269531 C 1461.191406 1517.269531 1490.148438 1546.269531 1490.148438 1581.851562 C 1490.148438 1617.488281 1461.179688 1646.46875 1425.570312 1646.46875 C 1389.960938 1646.46875 1360.980469 1617.46875 1360.980469 1581.851562 C 1360.980469 1546.238281 1389.949219 1517.269531 1425.570312 1517.269531 Z M 1425.570312 1701.140625 C 1491.328125 1701.140625 1544.828125 1647.640625 1544.828125 1581.851562 C 1544.828125 1516.089844 1491.328125 1462.589844 1425.570312 1462.589844 C 1359.808594 1462.589844 1306.308594 1516.089844 1306.308594 1581.851562 C 1306.308594 1647.640625 1359.808594 1701.140625 1425.570312 1701.140625 Z M 1265.789062 2174.089844 L 1265.789062 2066.820312 L 1441.089844 2066.820312 L 1441.089844 2174.089844 Z M 1169.378906 2456.148438 L 1169.378906 2358.699219 L 1326.101562 2358.679688 L 1326.101562 2456.148438 Z M 879.269531 942.050781 L 2993.699219 942.050781 C 3023.441406 942.050781 3047.621094 966.230469 3047.621094 995.980469 C 3047.621094 1025.730469 3023.421875 1049.921875 2993.699219 1049.921875 L 879.269531 1049.921875 C 849.523438 1049.921875 825.339844 1025.710938 825.339844 995.980469 C 825.339844 966.230469 849.550781 942.050781 879.269531 942.050781 Z M 1873.519531 2586.078125 L 1873.519531 1286.828125 L 1999.449219 1286.828125 L 1999.449219 2586.078125 Z M 879.269531 2823.039062 L 2993.699219 2823.039062 C 3023.441406 2823.039062 3047.621094 2847.238281 3047.621094 2876.96875 C 3047.621094 2906.730469 3023.421875 2930.910156 2993.699219 2930.910156 L 879.269531 2930.910156 C 849.523438 2930.910156 825.339844 2906.730469 825.339844 2876.96875 C 825.339844 2847.238281 849.550781 2823.039062 879.269531 2823.039062 Z M 1169.378906 2586.078125 L 1169.378906 2510.859375 L 1353.441406 2510.859375 C 1368.539062 2510.859375 1380.78125 2498.589844 1380.78125 2483.511719 L 1380.78125 2331.351562 C 1380.78125 2316.28125 1368.53125 2304.011719 1353.441406 2304.011719 L 1169.378906 2304.011719 L 1169.378906 2228.769531 L 1537.488281 2228.769531 L 1537.488281 2586.078125 Z M 987.128906 2768.351562 L 2885.820312 2768.351562 L 2885.820312 1104.601562 L 987.128906 1104.601562 Z M 932.453125 2768.351562 L 879.269531 2768.351562 C 819.367188 2768.351562 770.652344 2817.089844 770.652344 2876.96875 C 770.652344 2936.878906 819.394531 2985.601562 879.269531 2985.601562 L 2993.699219 2985.601562 C 3053.570312 2985.601562 3102.308594 2936.878906 3102.308594 2876.96875 C 3102.308594 2817.070312 3053.570312 2768.351562 2993.699219 2768.351562 L 2940.488281 2768.351562 L 2940.488281 1104.601562 L 2993.699219 1104.601562 C 3053.570312 1104.601562 3102.289062 1055.871094 3102.308594 995.980469 C 3102.308594 936.089844 3053.570312 887.371094 2993.699219 887.371094 L 879.269531 887.371094 C 819.367188 887.371094 770.652344 936.089844 770.652344 995.980469 C 770.652344 1055.890625 819.394531 1104.601562 879.269531 1104.601562 L 932.453125 1104.601562 Z M 1673.699219 1848.199219 L 1673.699219 1774.878906 L 1818.839844 1774.878906 L 1818.839844 1848.199219 Z M 1765.238281 2436.121094 L 1765.238281 2354.210938 L 1818.839844 2354.210938 L 1818.839844 2436.121094 Z M 1592.160156 2134.769531 L 1592.160156 2052.839844 L 1818.839844 2052.839844 L 1818.839844 2134.769531 Z M 2416.710938 2247.421875 L 2416.710938 2191.078125 L 2578.140625 2191.078125 L 2578.140625 2247.421875 Z M 2200.660156 2247.421875 L 2200.660156 2191.078125 L 2362.039062 2191.078125 L 2362.039062 2247.421875 Z M 2605.46875 2302.109375 L 2173.320312 2302.109375 C 2158.21875 2302.109375 2145.96875 2289.859375 2145.96875 2274.769531 L 2145.96875 2163.730469 C 2145.96875 2148.640625 2158.238281 2136.398438 2173.320312 2136.398438 L 2605.488281 2136.398438 C 2620.578125 2136.398438 2632.839844 2148.660156 2632.839844 2163.730469 L 2632.839844 2274.769531 C 2632.839844 2289.859375 2620.558594 2302.109375 2605.46875 2302.109375 Z M 2495.191406 2586.078125 L 2283.570312 2586.078125 L 2283.570312 2396.761719 L 2495.191406 2396.761719 Z M 2300.628906 1934.800781 L 2300.628906 1878.460938 L 2478.140625 1878.460938 L 2478.140625 1934.800781 Z M 2505.480469 1989.488281 L 2273.28125 1989.488281 C 2258.191406 1989.488281 2245.960938 1977.230469 2245.960938 1962.140625 L 2245.960938 1851.121094 C 2245.960938 1836.03125 2258.210938 1823.789062 2273.28125 1823.789062 L 2505.480469 1823.789062 C 2520.570312 1823.789062 2532.808594 1836.03125 2532.808594 1851.121094 L 2532.808594 1962.140625 C 2532.808594 1977.230469 2520.570312 1989.488281 2505.480469 1989.488281 Z M 1592.160156 2189.460938 L 1818.839844 2189.460938 L 1818.839844 2299.539062 L 1737.898438 2299.539062 C 1722.808594 2299.539062 1710.550781 2311.789062 1710.550781 2326.878906 L 1710.550781 2463.488281 C 1710.550781 2478.558594 1722.808594 2490.820312 1737.898438 2490.820312 L 1818.839844 2490.820312 L 1818.839844 2586.078125 L 1592.160156 2586.078125 Z M 1646.359375 1902.878906 L 1818.839844 1902.878906 L 1818.839844 1998.171875 L 1592.160156 1998.171875 L 1592.160156 1902.878906 Z M 1537.488281 2174.089844 L 1537.488281 1875.539062 C 1537.488281 1860.449219 1549.730469 1848.199219 1564.820312 1848.199219 L 1619.03125 1848.199219 L 1619.03125 1747.539062 C 1619.03125 1732.460938 1631.28125 1720.199219 1646.359375 1720.199219 L 1818.839844 1720.199219 L 1818.839844 1286.828125 L 1169.378906 1286.828125 L 1169.378906 2174.089844 L 1211.109375 2174.089844 L 1211.109375 2039.46875 C 1211.109375 2024.378906 1223.371094 2012.128906 1238.449219 2012.128906 L 1468.421875 2012.148438 C 1483.511719 2012.148438 1495.761719 2024.398438 1495.761719 2039.46875 L 1495.761719 2174.089844 Z M 2278.398438 1716.859375 L 2318.371094 1487.449219 L 2460.410156 1487.449219 L 2500.371094 1716.859375 Z M 2703.570312 2096.390625 L 2703.570312 2586.078125 L 2549.871094 2586.078125 L 2549.871094 2369.429688 C 2549.871094 2354.359375 2537.609375 2342.089844 2522.519531 2342.089844 L 2256.25 2342.089844 C 2241.171875 2342.089844 2228.898438 2354.339844 2228.898438 2369.429688 L 2228.898438 2586.078125 L 2075.199219 2586.078125 L 2075.199219 2096.390625 L 2145.878906 2096.390625 L 2146.859375 2096.410156 L 2631.890625 2096.410156 L 2632.871094 2096.390625 Z M 2174.210938 2041.699219 L 2174.210938 1771.539062 L 2604.539062 1771.539062 L 2604.539062 2041.699219 Z M 2054.121094 2041.699219 L 2054.121094 1286.828125 L 2703.570312 1286.828125 L 2703.570312 2041.699219 L 2659.238281 2041.699219 L 2659.238281 1744.199219 C 2659.238281 1729.109375 2646.980469 1716.859375 2631.890625 1716.859375 L 2555.878906 1716.859375 L 2510.320312 1455.421875 C 2508.039062 1442.320312 2496.679688 1432.769531 2483.378906 1432.769531 L 2295.371094 1432.78125 C 2282.070312 1432.78125 2270.710938 1442.351562 2268.429688 1455.429688 L 2222.871094 1716.859375 L 2146.859375 1716.859375 C 2131.789062 1716.859375 2119.53125 1729.109375 2119.53125 1744.199219 L 2119.53125 2041.699219 Z M 2730.929688 2640.808594 C 2741.300781 2640.808594 2750.328125 2635 2754.960938 2626.480469 L 2754.960938 2626.460938 L 2755.261719 2625.898438 L 2755.28125 2625.859375 L 2755.550781 2625.308594 L 2755.570312 2625.289062 L 2755.828125 2624.699219 L 2755.851562 2624.679688 L 2756.109375 2624.078125 L 2756.109375 2624.070312 L 2756.351562 2623.46875 L 2756.371094 2623.449219 L 2756.589844 2622.839844 L 2756.609375 2622.820312 L 2756.808594 2622.210938 L 2756.828125 2622.191406 L 2757.21875 2620.929688 L 2757.21875 2620.910156 L 2757.390625 2620.28125 C 2757.960938 2618.101562 2758.261719 2615.800781 2758.261719 2613.421875 L 2758.261719 1259.488281 C 2758.261719 1244.398438 2746.019531 1232.160156 2730.929688 1232.160156 L 1142.058594 1232.160156 C 1126.980469 1232.160156 1114.71875 1244.398438 1114.71875 1259.488281 L 1114.71875 2200.441406 L 1114.699219 2201.441406 L 1114.699219 2613.460938 C 1114.699219 2628.53125 1126.949219 2640.808594 1142.039062 2640.808594 L 1564.820312 2640.808594 L 1565.53125 2640.789062 L 2046.851562 2640.789062 L 2047.828125 2640.808594 Z M 1343.71875 1467.410156 C 1334.269531 1467.410156 1325.078125 1462.511719 1320.011719 1453.75 L 1302.410156 1423.25 C 1294.878906 1410.179688 1299.328125 1393.449219 1312.410156 1385.921875 C 1325.488281 1378.371094 1342.21875 1382.839844 1349.761719 1395.910156 L 1367.351562 1426.410156 C 1374.890625 1439.480469 1370.429688 1456.21875 1357.351562 1463.738281 C 1353.070312 1466.21875 1348.359375 1467.410156 1343.71875 1467.410156 "/>
</clipPath>
<linearGradient id="linear-pattern-0" gradientUnits="userSpaceOnUse" x1="-0.000000000000000056" y1="0" x2="0.999999" y2="0" gradientTransform="matrix(2331.66, 0, 0, 2331.66, 770.653, 1936.49)">
<stop offset="0" stop-color="rgb(100%, 80.39093%, 1.176453%)" stop-opacity="1"/>
<stop offset="0.00390625" stop-color="rgb(99.5224%, 80.37262%, 1.437378%)" stop-opacity="1"/>
<stop offset="0.0078125" stop-color="rgb(99.0448%, 80.355835%, 1.698303%)" stop-opacity="1"/>
<stop offset="0.0117188" stop-color="rgb(98.5672%, 80.337524%, 1.959229%)" stop-opacity="1"/>
<stop offset="0.015625" stop-color="rgb(98.0896%, 80.319214%, 2.22168%)" stop-opacity="1"/>
<stop offset="0.0195313" stop-color="rgb(97.612%, 80.300903%, 2.482605%)" stop-opacity="1"/>
<stop offset="0.0234375" stop-color="rgb(97.134399%, 80.282593%, 2.74353%)" stop-opacity="1"/>
<stop offset="0.0273438" stop-color="rgb(96.656799%, 80.264282%, 3.004456%)" stop-opacity="1"/>
<stop offset="0.03125" stop-color="rgb(96.179199%, 80.247498%, 3.266907%)" stop-opacity="1"/>
<stop offset="0.0351563" stop-color="rgb(95.701599%, 80.229187%, 3.527832%)" stop-opacity="1"/>
<stop offset="0.0390625" stop-color="rgb(95.223999%, 80.210876%, 3.788757%)" stop-opacity="1"/>
<stop offset="0.0429688" stop-color="rgb(94.746399%, 80.192566%, 4.049683%)" stop-opacity="1"/>
<stop offset="0.046875" stop-color="rgb(94.268799%, 80.175781%, 4.312134%)" stop-opacity="1"/>
<stop offset="0.0507813" stop-color="rgb(93.791199%, 80.157471%, 4.573059%)" stop-opacity="1"/>
<stop offset="0.0546875" stop-color="rgb(93.313599%, 80.13916%, 4.833984%)" stop-opacity="1"/>
<stop offset="0.0585938" stop-color="rgb(92.835999%, 80.12085%, 5.09491%)" stop-opacity="1"/>
<stop offset="0.0625" stop-color="rgb(92.358398%, 80.102539%, 5.357361%)" stop-opacity="1"/>
<stop offset="0.0664062" stop-color="rgb(91.880798%, 80.084229%, 5.618286%)" stop-opacity="1"/>
<stop offset="0.0703125" stop-color="rgb(91.403198%, 80.067444%, 5.879211%)" stop-opacity="1"/>
<stop offset="0.0742188" stop-color="rgb(90.925598%, 80.049133%, 6.140137%)" stop-opacity="1"/>
<stop offset="0.078125" stop-color="rgb(90.447998%, 80.030823%, 6.402588%)" stop-opacity="1"/>
<stop offset="0.0820312" stop-color="rgb(89.970398%, 80.012512%, 6.663513%)" stop-opacity="1"/>
<stop offset="0.0859375" stop-color="rgb(89.492798%, 79.994202%, 6.924438%)" stop-opacity="1"/>
<stop offset="0.0898438" stop-color="rgb(89.015198%, 79.975891%, 7.185364%)" stop-opacity="1"/>
<stop offset="0.09375" stop-color="rgb(88.537598%, 79.959106%, 7.447815%)" stop-opacity="1"/>
<stop offset="0.0976563" stop-color="rgb(88.059998%, 79.940796%, 7.70874%)" stop-opacity="1"/>
<stop offset="0.101563" stop-color="rgb(87.582397%, 79.922485%, 7.969666%)" stop-opacity="1"/>
<stop offset="0.105469" stop-color="rgb(87.104797%, 79.904175%, 8.230591%)" stop-opacity="1"/>
<stop offset="0.109375" stop-color="rgb(86.627197%, 79.88739%, 8.493042%)" stop-opacity="1"/>
<stop offset="0.113281" stop-color="rgb(86.149597%, 79.86908%, 8.753967%)" stop-opacity="1"/>
<stop offset="0.117188" stop-color="rgb(85.671997%, 79.850769%, 9.014893%)" stop-opacity="1"/>
<stop offset="0.121094" stop-color="rgb(85.194397%, 79.832458%, 9.275818%)" stop-opacity="1"/>
<stop offset="0.125" stop-color="rgb(84.716797%, 79.814148%, 9.538269%)" stop-opacity="1"/>
<stop offset="0.128906" stop-color="rgb(84.239197%, 79.795837%, 9.799194%)" stop-opacity="1"/>
<stop offset="0.132812" stop-color="rgb(83.761597%, 79.779053%, 10.06012%)" stop-opacity="1"/>
<stop offset="0.136719" stop-color="rgb(83.283997%, 79.760742%, 10.321045%)" stop-opacity="1"/>
<stop offset="0.140625" stop-color="rgb(82.806396%, 79.742432%, 10.583496%)" stop-opacity="1"/>
<stop offset="0.144531" stop-color="rgb(82.328796%, 79.724121%, 10.844421%)" stop-opacity="1"/>
<stop offset="0.148438" stop-color="rgb(81.851196%, 79.707336%, 11.105347%)" stop-opacity="1"/>
<stop offset="0.152344" stop-color="rgb(81.373596%, 79.689026%, 11.366272%)" stop-opacity="1"/>
<stop offset="0.15625" stop-color="rgb(80.895996%, 79.670715%, 11.628723%)" stop-opacity="1"/>
<stop offset="0.160156" stop-color="rgb(80.418396%, 79.652405%, 11.889648%)" stop-opacity="1"/>
<stop offset="0.164062" stop-color="rgb(79.940796%, 79.634094%, 12.150574%)" stop-opacity="1"/>
<stop offset="0.167969" stop-color="rgb(79.463196%, 79.615784%, 12.411499%)" stop-opacity="1"/>
<stop offset="0.171875" stop-color="rgb(78.985596%, 79.598999%, 12.67395%)" stop-opacity="1"/>
<stop offset="0.175781" stop-color="rgb(78.507996%, 79.580688%, 12.934875%)" stop-opacity="1"/>
<stop offset="0.179688" stop-color="rgb(78.030396%, 79.562378%, 13.195801%)" stop-opacity="1"/>
<stop offset="0.183594" stop-color="rgb(77.552795%, 79.544067%, 13.456726%)" stop-opacity="1"/>
<stop offset="0.1875" stop-color="rgb(77.075195%, 79.525757%, 13.719177%)" stop-opacity="1"/>
<stop offset="0.191406" stop-color="rgb(76.597595%, 79.507446%, 13.980103%)" stop-opacity="1"/>
<stop offset="0.195313" stop-color="rgb(76.119995%, 79.490662%, 14.241028%)" stop-opacity="1"/>
<stop offset="0.199219" stop-color="rgb(75.642395%, 79.472351%, 14.501953%)" stop-opacity="1"/>
<stop offset="0.203125" stop-color="rgb(75.164795%, 79.454041%, 14.764404%)" stop-opacity="1"/>
<stop offset="0.207031" stop-color="rgb(74.687195%, 79.43573%, 15.02533%)" stop-opacity="1"/>
<stop offset="0.210938" stop-color="rgb(74.209595%, 79.418945%, 15.286255%)" stop-opacity="1"/>
<stop offset="0.214844" stop-color="rgb(73.731995%, 79.400635%, 15.54718%)" stop-opacity="1"/>
<stop offset="0.21875" stop-color="rgb(73.254395%, 79.382324%, 15.809631%)" stop-opacity="1"/>
<stop offset="0.222656" stop-color="rgb(72.776794%, 79.364014%, 16.070557%)" stop-opacity="1"/>
<stop offset="0.226563" stop-color="rgb(72.299194%, 79.345703%, 16.331482%)" stop-opacity="1"/>
<stop offset="0.230469" stop-color="rgb(71.821594%, 79.327393%, 16.592407%)" stop-opacity="1"/>
<stop offset="0.234375" stop-color="rgb(71.343994%, 79.310608%, 16.854858%)" stop-opacity="1"/>
<stop offset="0.238281" stop-color="rgb(70.866394%, 79.292297%, 17.115784%)" stop-opacity="1"/>
<stop offset="0.242188" stop-color="rgb(70.388794%, 79.273987%, 17.376709%)" stop-opacity="1"/>
<stop offset="0.246094" stop-color="rgb(69.911194%, 79.255676%, 17.637634%)" stop-opacity="1"/>
<stop offset="0.25" stop-color="rgb(69.433594%, 79.237366%, 17.900085%)" stop-opacity="1"/>
<stop offset="0.253906" stop-color="rgb(68.955994%, 79.219055%, 18.161011%)" stop-opacity="1"/>
<stop offset="0.257812" stop-color="rgb(68.478394%, 79.202271%, 18.421936%)" stop-opacity="1"/>
<stop offset="0.261719" stop-color="rgb(68.000793%, 79.18396%, 18.682861%)" stop-opacity="1"/>
<stop offset="0.265625" stop-color="rgb(67.523193%, 79.165649%, 18.945312%)" stop-opacity="1"/>
<stop offset="0.269531" stop-color="rgb(67.045593%, 79.147339%, 19.206238%)" stop-opacity="1"/>
<stop offset="0.273438" stop-color="rgb(66.567993%, 79.130554%, 19.468689%)" stop-opacity="1"/>
<stop offset="0.277344" stop-color="rgb(66.090393%, 79.112244%, 19.729614%)" stop-opacity="1"/>
<stop offset="0.28125" stop-color="rgb(65.612793%, 79.093933%, 19.99054%)" stop-opacity="1"/>
<stop offset="0.285156" stop-color="rgb(65.135193%, 79.075623%, 20.251465%)" stop-opacity="1"/>
<stop offset="0.289062" stop-color="rgb(64.657593%, 79.057312%, 20.513916%)" stop-opacity="1"/>
<stop offset="0.292969" stop-color="rgb(64.179993%, 79.039001%, 20.774841%)" stop-opacity="1"/>
<stop offset="0.296875" stop-color="rgb(63.703918%, 79.022217%, 21.035767%)" stop-opacity="1"/>
<stop offset="0.300781" stop-color="rgb(63.226318%, 79.003906%, 21.296692%)" stop-opacity="1"/>
<stop offset="0.304688" stop-color="rgb(62.748718%, 78.985596%, 21.559143%)" stop-opacity="1"/>
<stop offset="0.308594" stop-color="rgb(62.271118%, 78.967285%, 21.820068%)" stop-opacity="1"/>
<stop offset="0.3125" stop-color="rgb(61.793518%, 78.948975%, 22.080994%)" stop-opacity="1"/>
<stop offset="0.316406" stop-color="rgb(61.315918%, 78.930664%, 22.341919%)" stop-opacity="1"/>
<stop offset="0.320313" stop-color="rgb(60.838318%, 78.913879%, 22.60437%)" stop-opacity="1"/>
<stop offset="0.324219" stop-color="rgb(60.360718%, 78.895569%, 22.865295%)" stop-opacity="1"/>
<stop offset="0.328125" stop-color="rgb(59.883118%, 78.877258%, 23.126221%)" stop-opacity="1"/>
<stop offset="0.332031" stop-color="rgb(59.405518%, 78.858948%, 23.387146%)" stop-opacity="1"/>
<stop offset="0.335938" stop-color="rgb(58.927917%, 78.842163%, 23.649597%)" stop-opacity="1"/>
<stop offset="0.339844" stop-color="rgb(58.433533%, 78.822327%, 24.169922%)" stop-opacity="1"/>
<stop offset="0.34375" stop-color="rgb(57.939148%, 78.80249%, 24.690247%)" stop-opacity="1"/>
<stop offset="0.347656" stop-color="rgb(57.426453%, 78.779602%, 25.489807%)" stop-opacity="1"/>
<stop offset="0.351563" stop-color="rgb(56.915283%, 78.75824%, 26.290894%)" stop-opacity="1"/>
<stop offset="0.355469" stop-color="rgb(56.402588%, 78.735352%, 27.09198%)" stop-opacity="1"/>
<stop offset="0.359375" stop-color="rgb(55.891418%, 78.713989%, 27.893066%)" stop-opacity="1"/>
<stop offset="0.363281" stop-color="rgb(55.378723%, 78.691101%, 28.694153%)" stop-opacity="1"/>
<stop offset="0.367188" stop-color="rgb(54.866028%, 78.669739%, 29.495239%)" stop-opacity="1"/>
<stop offset="0.371094" stop-color="rgb(54.353333%, 78.648376%, 30.296326%)" stop-opacity="1"/>
<stop offset="0.375" stop-color="rgb(53.842163%, 78.627014%, 31.097412%)" stop-opacity="1"/>
<stop offset="0.378906" stop-color="rgb(53.329468%, 78.604126%, 31.898499%)" stop-opacity="1"/>
<stop offset="0.382812" stop-color="rgb(52.818298%, 78.582764%, 32.699585%)" stop-opacity="1"/>
<stop offset="0.386719" stop-color="rgb(52.305603%, 78.559875%, 33.499146%)" stop-opacity="1"/>
<stop offset="0.390625" stop-color="rgb(51.794434%, 78.538513%, 34.300232%)" stop-opacity="1"/>
<stop offset="0.394531" stop-color="rgb(51.281738%, 78.517151%, 35.101318%)" stop-opacity="1"/>
<stop offset="0.398438" stop-color="rgb(50.770569%, 78.495789%, 35.902405%)" stop-opacity="1"/>
<stop offset="0.402344" stop-color="rgb(50.257874%, 78.4729%, 36.703491%)" stop-opacity="1"/>
<stop offset="0.40625" stop-color="rgb(49.745178%, 78.451538%, 37.504578%)" stop-opacity="1"/>
<stop offset="0.410156" stop-color="rgb(49.232483%, 78.42865%, 38.305664%)" stop-opacity="1"/>
<stop offset="0.414063" stop-color="rgb(48.721313%, 78.407288%, 39.10675%)" stop-opacity="1"/>
<stop offset="0.417969" stop-color="rgb(48.208618%, 78.385925%, 39.907837%)" stop-opacity="1"/>
<stop offset="0.421875" stop-color="rgb(47.697449%, 78.364563%, 40.708923%)" stop-opacity="1"/>
<stop offset="0.425781" stop-color="rgb(47.184753%, 78.341675%, 41.51001%)" stop-opacity="1"/>
<stop offset="0.429688" stop-color="rgb(46.673584%, 78.320312%, 42.311096%)" stop-opacity="1"/>
<stop offset="0.433594" stop-color="rgb(46.160889%, 78.297424%, 43.110657%)" stop-opacity="1"/>
<stop offset="0.4375" stop-color="rgb(45.649719%, 78.276062%, 43.911743%)" stop-opacity="1"/>
<stop offset="0.441406" stop-color="rgb(45.137024%, 78.2547%, 44.71283%)" stop-opacity="1"/>
<stop offset="0.445313" stop-color="rgb(44.624329%, 78.233337%, 45.513916%)" stop-opacity="1"/>
<stop offset="0.449219" stop-color="rgb(44.111633%, 78.210449%, 46.315002%)" stop-opacity="1"/>
<stop offset="0.453125" stop-color="rgb(43.600464%, 78.189087%, 47.116089%)" stop-opacity="1"/>
<stop offset="0.457031" stop-color="rgb(43.087769%, 78.166199%, 47.917175%)" stop-opacity="1"/>
<stop offset="0.460938" stop-color="rgb(42.576599%, 78.144836%, 48.718262%)" stop-opacity="1"/>
<stop offset="0.464844" stop-color="rgb(42.063904%, 78.123474%, 49.519348%)" stop-opacity="1"/>
<stop offset="0.46875" stop-color="rgb(41.552734%, 78.102112%, 50.320435%)" stop-opacity="1"/>
<stop offset="0.472656" stop-color="rgb(41.040039%, 78.079224%, 51.119995%)" stop-opacity="1"/>
<stop offset="0.476562" stop-color="rgb(40.52887%, 78.057861%, 51.921082%)" stop-opacity="1"/>
<stop offset="0.480469" stop-color="rgb(40.016174%, 78.034973%, 52.722168%)" stop-opacity="1"/>
<stop offset="0.484375" stop-color="rgb(39.503479%, 78.013611%, 53.523254%)" stop-opacity="1"/>
<stop offset="0.488281" stop-color="rgb(38.990784%, 77.992249%, 54.324341%)" stop-opacity="1"/>
<stop offset="0.492188" stop-color="rgb(38.479614%, 77.970886%, 55.125427%)" stop-opacity="1"/>
<stop offset="0.496094" stop-color="rgb(37.966919%, 77.947998%, 55.926514%)" stop-opacity="1"/>
<stop offset="0.5" stop-color="rgb(37.45575%, 77.926636%, 56.7276%)" stop-opacity="1"/>
<stop offset="0.503906" stop-color="rgb(36.943054%, 77.903748%, 57.528687%)" stop-opacity="1"/>
<stop offset="0.507813" stop-color="rgb(36.431885%, 77.882385%, 58.329773%)" stop-opacity="1"/>
<stop offset="0.511719" stop-color="rgb(35.919189%, 77.859497%, 59.130859%)" stop-opacity="1"/>
<stop offset="0.515625" stop-color="rgb(35.40802%, 77.838135%, 59.931946%)" stop-opacity="1"/>
<stop offset="0.519531" stop-color="rgb(34.895325%, 77.816772%, 60.731506%)" stop-opacity="1"/>
<stop offset="0.523438" stop-color="rgb(34.384155%, 77.79541%, 61.532593%)" stop-opacity="1"/>
<stop offset="0.527344" stop-color="rgb(33.87146%, 77.772522%, 62.333679%)" stop-opacity="1"/>
<stop offset="0.53125" stop-color="rgb(33.358765%, 77.75116%, 63.134766%)" stop-opacity="1"/>
<stop offset="0.535156" stop-color="rgb(32.846069%, 77.728271%, 63.935852%)" stop-opacity="1"/>
<stop offset="0.539063" stop-color="rgb(32.3349%, 77.706909%, 64.736938%)" stop-opacity="1"/>
<stop offset="0.542969" stop-color="rgb(31.822205%, 77.685547%, 65.538025%)" stop-opacity="1"/>
<stop offset="0.546875" stop-color="rgb(31.311035%, 77.664185%, 66.339111%)" stop-opacity="1"/>
<stop offset="0.550781" stop-color="rgb(30.79834%, 77.641296%, 67.140198%)" stop-opacity="1"/>
<stop offset="0.554688" stop-color="rgb(30.28717%, 77.619934%, 67.941284%)" stop-opacity="1"/>
<stop offset="0.558594" stop-color="rgb(29.774475%, 77.597046%, 68.740845%)" stop-opacity="1"/>
<stop offset="0.5625" stop-color="rgb(29.263306%, 77.575684%, 69.541931%)" stop-opacity="1"/>
<stop offset="0.566406" stop-color="rgb(28.75061%, 77.554321%, 70.343018%)" stop-opacity="1"/>
<stop offset="0.570312" stop-color="rgb(28.237915%, 77.532959%, 71.144104%)" stop-opacity="1"/>
<stop offset="0.574219" stop-color="rgb(27.72522%, 77.510071%, 71.94519%)" stop-opacity="1"/>
<stop offset="0.578125" stop-color="rgb(27.21405%, 77.488708%, 72.746277%)" stop-opacity="1"/>
<stop offset="0.582031" stop-color="rgb(26.701355%, 77.46582%, 73.547363%)" stop-opacity="1"/>
<stop offset="0.585938" stop-color="rgb(26.190186%, 77.444458%, 74.34845%)" stop-opacity="1"/>
<stop offset="0.589844" stop-color="rgb(25.67749%, 77.423096%, 75.149536%)" stop-opacity="1"/>
<stop offset="0.59375" stop-color="rgb(25.166321%, 77.401733%, 75.950623%)" stop-opacity="1"/>
<stop offset="0.597656" stop-color="rgb(24.653625%, 77.378845%, 76.750183%)" stop-opacity="1"/>
<stop offset="0.601562" stop-color="rgb(24.142456%, 77.357483%, 77.55127%)" stop-opacity="1"/>
<stop offset="0.605469" stop-color="rgb(23.629761%, 77.334595%, 78.352356%)" stop-opacity="1"/>
<stop offset="0.609375" stop-color="rgb(23.117065%, 77.313232%, 79.153442%)" stop-opacity="1"/>
<stop offset="0.613281" stop-color="rgb(22.60437%, 77.29187%, 79.954529%)" stop-opacity="1"/>
<stop offset="0.617188" stop-color="rgb(22.093201%, 77.270508%, 80.755615%)" stop-opacity="1"/>
<stop offset="0.621094" stop-color="rgb(21.580505%, 77.24762%, 81.556702%)" stop-opacity="1"/>
<stop offset="0.625" stop-color="rgb(21.069336%, 77.226257%, 82.357788%)" stop-opacity="1"/>
<stop offset="0.628906" stop-color="rgb(20.556641%, 77.203369%, 83.158875%)" stop-opacity="1"/>
<stop offset="0.632813" stop-color="rgb(20.045471%, 77.182007%, 83.959961%)" stop-opacity="1"/>
<stop offset="0.636719" stop-color="rgb(19.532776%, 77.160645%, 84.761047%)" stop-opacity="1"/>
<stop offset="0.640625" stop-color="rgb(19.021606%, 77.139282%, 85.562134%)" stop-opacity="1"/>
<stop offset="0.644531" stop-color="rgb(18.508911%, 77.116394%, 86.361694%)" stop-opacity="1"/>
<stop offset="0.648438" stop-color="rgb(17.996216%, 77.095032%, 87.162781%)" stop-opacity="1"/>
<stop offset="0.652344" stop-color="rgb(17.483521%, 77.072144%, 87.963867%)" stop-opacity="1"/>
<stop offset="0.65625" stop-color="rgb(16.972351%, 77.050781%, 88.764954%)" stop-opacity="1"/>
<stop offset="0.660156" stop-color="rgb(16.459656%, 77.027893%, 89.56604%)" stop-opacity="1"/>
<stop offset="0.664063" stop-color="rgb(15.948486%, 77.006531%, 90.367126%)" stop-opacity="1"/>
<stop offset="0.667969" stop-color="rgb(15.435791%, 76.985168%, 91.168213%)" stop-opacity="1"/>
<stop offset="0.671875" stop-color="rgb(14.924622%, 76.963806%, 91.969299%)" stop-opacity="1"/>
<stop offset="0.675781" stop-color="rgb(14.411926%, 76.940918%, 92.770386%)" stop-opacity="1"/>
<stop offset="0.679688" stop-color="rgb(13.900757%, 76.919556%, 93.571472%)" stop-opacity="1"/>
<stop offset="0.683594" stop-color="rgb(13.388062%, 76.896667%, 94.371033%)" stop-opacity="1"/>
<stop offset="0.6875" stop-color="rgb(12.875366%, 76.875305%, 95.172119%)" stop-opacity="1"/>
<stop offset="0.691406" stop-color="rgb(13.037109%, 76.41449%, 95.115662%)" stop-opacity="1"/>
<stop offset="0.695313" stop-color="rgb(13.200378%, 75.9552%, 95.06073%)" stop-opacity="1"/>
<stop offset="0.699219" stop-color="rgb(13.679504%, 75.286865%, 94.60144%)" stop-opacity="1"/>
<stop offset="0.703125" stop-color="rgb(14.15863%, 74.620056%, 94.142151%)" stop-opacity="1"/>
<stop offset="0.707031" stop-color="rgb(14.637756%, 73.953247%, 93.681335%)" stop-opacity="1"/>
<stop offset="0.710938" stop-color="rgb(15.116882%, 73.286438%, 93.222046%)" stop-opacity="1"/>
<stop offset="0.714844" stop-color="rgb(15.596008%, 72.619629%, 92.762756%)" stop-opacity="1"/>
<stop offset="0.71875" stop-color="rgb(16.07666%, 71.95282%, 92.303467%)" stop-opacity="1"/>
<stop offset="0.722656" stop-color="rgb(16.555786%, 71.284485%, 91.844177%)" stop-opacity="1"/>
<stop offset="0.726563" stop-color="rgb(17.034912%, 70.617676%, 91.384888%)" stop-opacity="1"/>
<stop offset="0.730469" stop-color="rgb(17.514038%, 69.950867%, 90.924072%)" stop-opacity="1"/>
<stop offset="0.734375" stop-color="rgb(17.993164%, 69.284058%, 90.464783%)" stop-opacity="1"/>
<stop offset="0.738281" stop-color="rgb(18.47229%, 68.615723%, 90.005493%)" stop-opacity="1"/>
<stop offset="0.742188" stop-color="rgb(18.951416%, 67.948914%, 89.546204%)" stop-opacity="1"/>
<stop offset="0.746094" stop-color="rgb(19.430542%, 67.282104%, 89.085388%)" stop-opacity="1"/>
<stop offset="0.75" stop-color="rgb(19.911194%, 66.615295%, 88.626099%)" stop-opacity="1"/>
<stop offset="0.753906" stop-color="rgb(20.39032%, 65.948486%, 88.166809%)" stop-opacity="1"/>
<stop offset="0.757812" stop-color="rgb(20.869446%, 65.281677%, 87.70752%)" stop-opacity="1"/>
<stop offset="0.761719" stop-color="rgb(21.348572%, 64.613342%, 87.24823%)" stop-opacity="1"/>
<stop offset="0.765625" stop-color="rgb(21.827698%, 63.946533%, 86.78894%)" stop-opacity="1"/>
<stop offset="0.769531" stop-color="rgb(22.306824%, 63.279724%, 86.328125%)" stop-opacity="1"/>
<stop offset="0.773438" stop-color="rgb(22.78595%, 62.612915%, 85.868835%)" stop-opacity="1"/>
<stop offset="0.777344" stop-color="rgb(23.265076%, 61.946106%, 85.409546%)" stop-opacity="1"/>
<stop offset="0.78125" stop-color="rgb(23.745728%, 61.279297%, 84.950256%)" stop-opacity="1"/>
<stop offset="0.785156" stop-color="rgb(24.224854%, 60.610962%, 84.490967%)" stop-opacity="1"/>
<stop offset="0.789062" stop-color="rgb(24.703979%, 59.944153%, 84.031677%)" stop-opacity="1"/>
<stop offset="0.792969" stop-color="rgb(25.183105%, 59.277344%, 83.570862%)" stop-opacity="1"/>
<stop offset="0.796875" stop-color="rgb(25.662231%, 58.610535%, 83.111572%)" stop-opacity="1"/>
<stop offset="0.800781" stop-color="rgb(26.141357%, 57.9422%, 82.652283%)" stop-opacity="1"/>
<stop offset="0.804688" stop-color="rgb(26.620483%, 57.275391%, 82.192993%)" stop-opacity="1"/>
<stop offset="0.808594" stop-color="rgb(27.099609%, 56.608582%, 81.733704%)" stop-opacity="1"/>
<stop offset="0.8125" stop-color="rgb(27.580261%, 55.941772%, 81.274414%)" stop-opacity="1"/>
<stop offset="0.816406" stop-color="rgb(28.059387%, 55.274963%, 80.813599%)" stop-opacity="1"/>
<stop offset="0.820313" stop-color="rgb(28.538513%, 54.608154%, 80.354309%)" stop-opacity="1"/>
<stop offset="0.824219" stop-color="rgb(29.017639%, 53.939819%, 79.89502%)" stop-opacity="1"/>
<stop offset="0.828125" stop-color="rgb(29.496765%, 53.27301%, 79.43573%)" stop-opacity="1"/>
<stop offset="0.832031" stop-color="rgb(29.975891%, 52.606201%, 78.97644%)" stop-opacity="1"/>
<stop offset="0.835938" stop-color="rgb(30.455017%, 51.939392%, 78.517151%)" stop-opacity="1"/>
<stop offset="0.839844" stop-color="rgb(30.934143%, 51.272583%, 78.056335%)" stop-opacity="1"/>
<stop offset="0.84375" stop-color="rgb(31.414795%, 50.605774%, 77.597046%)" stop-opacity="1"/>
<stop offset="0.847656" stop-color="rgb(31.893921%, 49.937439%, 77.137756%)" stop-opacity="1"/>
<stop offset="0.851563" stop-color="rgb(32.373047%, 49.27063%, 76.678467%)" stop-opacity="1"/>
<stop offset="0.855469" stop-color="rgb(32.852173%, 48.603821%, 76.219177%)" stop-opacity="1"/>
<stop offset="0.859375" stop-color="rgb(33.331299%, 47.937012%, 75.759888%)" stop-opacity="1"/>
<stop offset="0.863281" stop-color="rgb(33.810425%, 47.268677%, 75.299072%)" stop-opacity="1"/>
<stop offset="0.867188" stop-color="rgb(34.289551%, 46.601868%, 74.839783%)" stop-opacity="1"/>
<stop offset="0.871094" stop-color="rgb(34.768677%, 45.935059%, 74.380493%)" stop-opacity="1"/>
<stop offset="0.875" stop-color="rgb(35.249329%, 45.26825%, 73.921204%)" stop-opacity="1"/>
<stop offset="0.878906" stop-color="rgb(35.728455%, 44.60144%, 73.460388%)" stop-opacity="1"/>
<stop offset="0.882813" stop-color="rgb(36.207581%, 43.934631%, 73.001099%)" stop-opacity="1"/>
<stop offset="0.886719" stop-color="rgb(36.686707%, 43.266296%, 72.541809%)" stop-opacity="1"/>
<stop offset="0.890625" stop-color="rgb(37.165833%, 42.599487%, 72.08252%)" stop-opacity="1"/>
<stop offset="0.894531" stop-color="rgb(37.644958%, 41.932678%, 71.62323%)" stop-opacity="1"/>
<stop offset="0.898438" stop-color="rgb(38.12561%, 41.265869%, 71.16394%)" stop-opacity="1"/>
<stop offset="0.902344" stop-color="rgb(38.604736%, 40.597534%, 70.703125%)" stop-opacity="1"/>
<stop offset="0.90625" stop-color="rgb(39.083862%, 39.930725%, 70.243835%)" stop-opacity="1"/>
<stop offset="0.910156" stop-color="rgb(39.562988%, 39.263916%, 69.784546%)" stop-opacity="1"/>
<stop offset="0.914063" stop-color="rgb(40.042114%, 38.597107%, 69.325256%)" stop-opacity="1"/>
<stop offset="0.917969" stop-color="rgb(40.52124%, 37.930298%, 68.865967%)" stop-opacity="1"/>
<stop offset="0.921875" stop-color="rgb(41.000366%, 37.263489%, 68.406677%)" stop-opacity="1"/>
<stop offset="0.925781" stop-color="rgb(41.479492%, 36.595154%, 67.945862%)" stop-opacity="1"/>
<stop offset="0.929688" stop-color="rgb(41.960144%, 35.928345%, 67.486572%)" stop-opacity="1"/>
<stop offset="0.933594" stop-color="rgb(42.43927%, 35.261536%, 67.027283%)" stop-opacity="1"/>
<stop offset="0.9375" stop-color="rgb(42.918396%, 34.594727%, 66.567993%)" stop-opacity="1"/>
<stop offset="0.941406" stop-color="rgb(43.397522%, 33.927917%, 66.108704%)" stop-opacity="1"/>
<stop offset="0.945312" stop-color="rgb(43.876648%, 33.261108%, 65.649414%)" stop-opacity="1"/>
<stop offset="0.949219" stop-color="rgb(44.355774%, 32.592773%, 65.188599%)" stop-opacity="1"/>
<stop offset="0.953125" stop-color="rgb(44.8349%, 31.925964%, 64.729309%)" stop-opacity="1"/>
<stop offset="0.957031" stop-color="rgb(45.314026%, 31.259155%, 64.27002%)" stop-opacity="1"/>
<stop offset="0.960938" stop-color="rgb(45.794678%, 30.592346%, 63.81073%)" stop-opacity="1"/>
<stop offset="0.964844" stop-color="rgb(46.273804%, 29.924011%, 63.35144%)" stop-opacity="1"/>
<stop offset="0.96875" stop-color="rgb(46.75293%, 29.257202%, 62.892151%)" stop-opacity="1"/>
<stop offset="0.972656" stop-color="rgb(47.232056%, 28.590393%, 62.431335%)" stop-opacity="1"/>
<stop offset="0.976563" stop-color="rgb(47.711182%, 27.923584%, 61.972046%)" stop-opacity="1"/>
<stop offset="0.980469" stop-color="rgb(48.190308%, 27.256775%, 61.512756%)" stop-opacity="1"/>
<stop offset="0.984375" stop-color="rgb(48.669434%, 26.589966%, 61.053467%)" stop-opacity="1"/>
<stop offset="0.988281" stop-color="rgb(49.14856%, 25.921631%, 60.594177%)" stop-opacity="1"/>
<stop offset="0.992188" stop-color="rgb(49.629211%, 25.254822%, 60.134888%)" stop-opacity="1"/>
<stop offset="0.996094" stop-color="rgb(50.108337%, 24.588013%, 59.674072%)" stop-opacity="1"/>
<stop offset="1" stop-color="rgb(50.587463%, 23.921204%, 59.214783%)" stop-opacity="1"/>
</linearGradient>
</defs>
<g clip-path="url(#clip-0)">
<path fill-rule="evenodd" fill="rgb(9.008789%, 3.137207%, 16.088867%)" fill-opacity="1" d="M 713.855469 0 L 3159.121094 0 C 3551.75 0 3872.96875 321.230469 3872.96875 713.859375 L 3872.96875 3159.121094 C 3872.96875 3551.75 3551.75 3872.96875 3159.121094 3872.96875 L 713.855469 3872.96875 C 321.230469 3872.96875 0 3551.75 0 3159.121094 L 0 713.859375 C 0 321.230469 321.230469 0 713.855469 0 "/>
</g>
<g clip-path="url(#clip-1)">
<g clip-path="url(#clip-2)">
<path fill-rule="nonzero" fill="url(#linear-pattern-0)" d="M 770.652344 887.371094 L 770.652344 2985.601562 L 3102.308594 2985.601562 L 3102.308594 887.371094 Z M 770.652344 887.371094 "/>
</g>
</g>
</svg>
