<?xml version="1.0" encoding="UTF-8"?>
<svg xmlns="http://www.w3.org/2000/svg" xmlns:xlink="http://www.w3.org/1999/xlink" width="3872.97" height="3872.97" viewBox="0 0 3872.97 3872.97">
<defs>
<clipPath id="clip-0">
<path clip-rule="nonzero" d="M 0 0 L 3872.96875 0 L 3872.96875 3872.96875 L 0 3872.96875 Z M 0 0 "/>
</clipPath>
<clipPath id="clip-1">
<path clip-rule="nonzero" d="M 770 958 L 3102 958 L 3102 2915 L 770 2915 Z M 770 958 "/>
</clipPath>
<clipPath id="clip-2">
<path clip-rule="evenodd" d="M 2339.679688 1471.46875 L 2339.679688 1516.96875 C 2339.679688 1542.058594 2360.070312 1562.449219 2385.160156 1562.449219 L 2760.75 1562.449219 L 2760.75 1516.949219 C 2760.75 1491.871094 2740.351562 1471.46875 2715.269531 1471.46875 Z M 2579.480469 2022.210938 L 2606.921875 2084.140625 L 2636.78125 2022.398438 C 2627.640625 2023.730469 2618.300781 2024.460938 2608.75 2024.460938 C 2598.78125 2024.460938 2589.011719 2023.679688 2579.480469 2022.210938 Z M 3047.320312 2442.429688 L 2170.199219 2442.429688 C 2140.019531 2442.429688 2115.558594 2417.96875 2115.558594 2387.789062 L 2115.558594 2201.871094 C 2115.558594 2069.25 2223.488281 1961.308594 2356.121094 1961.308594 L 2460.601562 1961.308594 C 2418.988281 1922.410156 2387.03125 1869.75 2367.058594 1815.578125 C 2331.148438 1792.46875 2307.191406 1751.058594 2307.191406 1707.988281 C 2307.191406 1693.339844 2310.050781 1674.558594 2315.871094 1655.320312 C 2265.21875 1629.851562 2230.398438 1577.410156 2230.398438 1516.96875 L 2230.398438 1416.839844 C 2230.398438 1386.648438 2254.859375 1362.199219 2285.039062 1362.199219 L 2715.269531 1362.199219 C 2800.609375 1362.199219 2870.019531 1431.621094 2870.019531 1516.949219 L 2870.019531 1593.429688 C 2897.390625 1626.609375 2910.328125 1676.710938 2910.328125 1707.988281 C 2910.328125 1751.078125 2886.351562 1792.46875 2850.460938 1815.578125 C 2830.511719 1869.738281 2798.53125 1922.398438 2756.941406 1961.308594 L 2861.441406 1961.289062 C 2948.039062 1961.289062 3028.410156 2008.421875 3071.148438 2084.300781 C 3085.960938 2110.589844 3076.671875 2143.929688 3050.378906 2158.71875 C 3024.070312 2173.578125 2990.75 2164.25 2975.941406 2137.960938 C 2952.539062 2096.390625 2908.640625 2070.550781 2861.441406 2070.550781 L 2734.898438 2070.550781 L 2653.988281 2237.839844 C 2644.851562 2256.710938 2625.730469 2268.691406 2604.78125 2268.691406 C 2604.488281 2268.691406 2604.191406 2268.691406 2603.878906 2268.691406 C 2582.609375 2268.328125 2563.460938 2255.648438 2554.839844 2236.199219 L 2481.359375 2070.550781 L 2356.121094 2070.550781 C 2283.738281 2070.550781 2224.859375 2129.429688 2224.859375 2201.828125 L 2224.859375 2333.109375 L 2291.808594 2333.109375 L 2291.808594 2215.398438 C 2291.808594 2185.21875 2316.261719 2160.78125 2346.441406 2160.78125 C 2376.628906 2160.78125 2401.078125 2185.21875 2401.078125 2215.398438 L 2401.078125 2333.109375 L 2816.421875 2333.109375 L 2816.421875 2215.398438 C 2816.421875 2185.21875 2840.878906 2160.78125 2871.058594 2160.78125 C 2901.238281 2160.78125 2925.699219 2185.21875 2925.699219 2215.398438 L 2925.699219 2333.109375 L 2992.699219 2333.109375 L 2992.699219 2292.53125 C 2992.699219 2262.351562 3017.160156 2237.910156 3047.339844 2237.910156 C 3077.519531 2237.910156 3101.980469 2262.351562 3101.980469 2292.53125 L 3101.980469 2387.75 C 3101.941406 2417.96875 3077.488281 2442.429688 3047.320312 2442.429688 Z M 2559.449219 2790.949219 L 1768.699219 2790.949219 L 1799.789062 2820.019531 C 1821.839844 2840.628906 1823.011719 2875.191406 1802.398438 2897.238281 C 1791.621094 2908.75 1777.050781 2914.550781 1762.460938 2914.550781 C 1749.101562 2914.550781 1735.699219 2909.679688 1725.171875 2899.851562 L 1593.46875 2776.761719 L 1592.910156 2776.238281 L 1592.511719 2775.871094 L 1592.398438 2775.738281 L 1591.890625 2775.261719 L 1591.390625 2774.761719 L 1590.898438 2774.261719 L 1590.660156 2774.019531 L 1590.410156 2773.738281 L 1589.941406 2773.21875 L 1589.769531 2773.058594 L 1589.460938 2772.699219 L 1588.988281 2772.179688 L 1588.898438 2772.070312 L 1588.539062 2771.648438 L 1588.089844 2771.109375 L 1588.058594 2771.070312 L 1587.640625 2770.570312 L 1587.230469 2770.050781 L 1587.210938 2770.011719 L 1586.789062 2769.460938 C 1579.75 2760.261719 1575.578125 2748.789062 1575.578125 2736.308594 C 1575.578125 2719.921875 1582.78125 2705.238281 1594.191406 2695.21875 L 1725.199219 2572.800781 C 1747.238281 2552.21875 1781.808594 2553.390625 1802.421875 2575.421875 C 1823.019531 2597.460938 1821.839844 2632.019531 1799.789062 2652.640625 L 1768.730469 2681.671875 L 2559.449219 2681.671875 C 2589.640625 2681.671875 2614.089844 2706.128906 2614.089844 2736.308594 C 2614.089844 2766.488281 2589.640625 2790.949219 2559.449219 2790.949219 Z M 2421 1191.308594 L 2389.898438 1220.371094 C 2367.859375 1240.96875 2366.671875 1275.558594 2387.269531 1297.601562 C 2398.039062 1309.109375 2412.578125 1314.929688 2427.210938 1314.929688 C 2440.550781 1314.929688 2453.960938 1310.050781 2464.511719 1300.21875 L 2596.769531 1176.601562 C 2598.5 1174.988281 2600.128906 1173.269531 2601.601562 1171.46875 L 2601.628906 1171.441406 L 2602.449219 1170.421875 L 2602.488281 1170.378906 C 2603.488281 1169.089844 2604.429688 1167.761719 2605.320312 1166.398438 L 2605.488281 1166.140625 L 2605.691406 1165.808594 L 2606.058594 1165.21875 L 2606.191406 1165.011719 L 2606.421875 1164.628906 L 2606.769531 1164.03125 L 2606.859375 1163.871094 L 2607.121094 1163.429688 L 2607.449219 1162.820312 L 2607.511719 1162.71875 L 2607.789062 1162.199219 L 2607.789062 1162.191406 C 2608.550781 1160.761719 2609.230469 1159.300781 2609.859375 1157.800781 L 2610.121094 1157.160156 C 2611.238281 1154.390625 2612.140625 1151.511719 2612.789062 1148.53125 L 2612.960938 1147.851562 L 2613.089844 1147.171875 L 2613.21875 1146.46875 L 2613.238281 1146.351562 L 2613.328125 1145.789062 L 2613.460938 1145.101562 L 2613.460938 1145.011719 L 2613.550781 1144.410156 L 2613.648438 1143.710938 L 2613.671875 1143.640625 L 2613.808594 1142.320312 L 2613.808594 1142.261719 L 2613.890625 1141.621094 L 2613.941406 1140.921875 L 2613.941406 1140.878906 L 2614.039062 1139.511719 L 2614.039062 1139.488281 C 2614.070312 1138.570312 2614.109375 1137.621094 2614.109375 1136.679688 L 2614.089844 1135.269531 L 2614.070312 1135.269531 L 2614.039062 1133.871094 L 2614.039062 1133.859375 L 2613.941406 1132.46875 L 2613.941406 1132.449219 L 2613.890625 1131.75 L 2613.808594 1131.078125 L 2613.808594 1131.050781 L 2613.789062 1130.960938 L 2613.671875 1129.710938 L 2613.648438 1129.660156 L 2613.550781 1128.960938 L 2613.460938 1128.351562 L 2613.460938 1128.269531 L 2613.328125 1127.578125 L 2613.328125 1127.53125 C 2612 1119.570312 2608.941406 1112.199219 2604.539062 1105.808594 L 2604.148438 1105.230469 L 2603.75 1104.671875 L 2603.339844 1104.101562 L 2603.25 1103.980469 L 2602.910156 1103.53125 L 2602.488281 1102.988281 L 2602.449219 1102.941406 L 2602.039062 1102.441406 L 2601.628906 1101.921875 L 2601.601562 1101.890625 L 2601.148438 1101.359375 L 2600.691406 1100.828125 L 2600.21875 1100.300781 L 2599.910156 1099.941406 L 2599.761719 1099.78125 L 2599.28125 1099.261719 L 2599.019531 1098.96875 L 2598.800781 1098.75 L 2598.289062 1098.25 L 2598.089844 1098.039062 L 2597.789062 1097.75 L 2597.160156 1097.121094 L 2596.769531 1096.769531 L 2596.199219 1096.230469 L 2464.511719 973.148438 C 2442.429688 952.511719 2407.890625 953.71875 2387.269531 975.75 C 2366.671875 997.789062 2367.859375 1032.378906 2389.898438 1052.96875 L 2421 1082.039062 L 1630.21875 1082.039062 C 1600.019531 1082.039062 1575.578125 1106.488281 1575.578125 1136.671875 C 1575.578125 1166.871094 1600.019531 1191.308594 1630.21875 1191.308594 Z M 1329.628906 1705.378906 C 1221.03125 1705.378906 1132.691406 1793.71875 1132.691406 1902.320312 C 1132.691406 2010.898438 1221.039062 2099.230469 1329.628906 2099.230469 C 1438.210938 2099.230469 1526.570312 2010.898438 1526.570312 1902.320312 C 1526.570312 1793.71875 1438.21875 1705.378906 1329.628906 1705.378906 Z M 1329.628906 2208.519531 C 1498.480469 2208.519531 1635.839844 2071.179688 1635.839844 1902.339844 C 1635.839844 1733.488281 1498.480469 1596.121094 1329.628906 1596.121094 C 1160.789062 1596.121094 1023.421875 1733.488281 1023.421875 1902.339844 C 1023.421875 2071.179688 1160.789062 2208.519531 1329.628906 2208.519531 Z M 1383.28125 2498.179688 L 1275.519531 2498.179688 C 1215.570312 2498.179688 1165.390625 2452.398438 1155.820312 2390.421875 C 1096.800781 2369.378906 1041.78125 2337.578125 993.878906 2296.789062 C 935.253906 2319.339844 870.4375 2298.679688 840.421875 2246.660156 L 786.542969 2153.371094 C 756.46875 2101.25 771.210938 2034.621094 820.527344 1995.421875 C 819.304688 1968.871094 837.640625 1944.710938 864.496094 1939.398438 C 894.09375 1933.5 922.851562 1952.800781 928.699219 1982.390625 C 930.238281 1990.140625 931.980469 1997.78125 933.9375 2005.320312 C 939.664062 2027.238281 931.238281 2050.429688 912.800781 2063.578125 L 889.867188 2079.949219 C 884.488281 2083.769531 877.417969 2092.21875 881.171875 2098.710938 L 935.050781 2192.019531 C 938.980469 2198.808594 950.167969 2196.898438 956.316406 2194.078125 L 981.585938 2182.550781 C 1002.179688 2173.128906 1026.46875 2177.410156 1042.628906 2193.339844 C 1092.398438 2242.398438 1154.070312 2278.070312 1220.980469 2296.441406 C 1242.839844 2302.46875 1258.730469 2321.359375 1260.890625 2343.941406 L 1263.589844 2371.988281 C 1264.21875 2378.539062 1268.011719 2388.878906 1275.519531 2388.878906 L 1383.28125 2388.898438 C 1391.121094 2388.898438 1395.039062 2378.21875 1395.679688 2371.511719 L 1398.320312 2343.980469 C 1400.480469 2321.398438 1416.359375 2302.5 1438.210938 2296.5 C 1505.199219 2278.070312 1566.878906 2242.421875 1616.609375 2193.410156 C 1632.75 2177.488281 1657.050781 2173.21875 1677.640625 2182.621094 L 1703.378906 2194.359375 C 1709.351562 2197.121094 1720.210938 2198.980469 1723.949219 2192.488281 L 1777.820312 2099.140625 C 1781.75 2092.371094 1774.488281 2083.621094 1768.980469 2079.710938 L 1746.460938 2063.671875 C 1728 2050.519531 1719.578125 2027.371094 1725.269531 2005.429688 C 1733.980469 1971.949219 1738.378906 1937.238281 1738.378906 1902.320312 C 1738.378906 1867.398438 1733.980469 1832.710938 1725.269531 1799.238281 C 1719.578125 1777.320312 1728 1754.160156 1746.441406 1741.011719 L 1769.359375 1724.679688 C 1774.710938 1720.871094 1781.78125 1712.398438 1778.03125 1705.898438 L 1724.148438 1612.578125 C 1720.230469 1605.808594 1709.03125 1607.730469 1702.898438 1610.519531 L 1677.621094 1622.050781 C 1657 1631.449219 1632.699219 1627.179688 1616.570312 1611.269531 C 1566.851562 1562.230469 1505.148438 1526.550781 1438.199219 1508.128906 C 1416.328125 1502.109375 1400.460938 1483.21875 1398.289062 1460.648438 L 1395.691406 1432.589844 C 1395.070312 1426.078125 1391.289062 1415.71875 1383.78125 1415.71875 L 1276.019531 1415.71875 C 1268.179688 1415.71875 1264.261719 1426.378906 1263.609375 1433.109375 L 1260.980469 1460.648438 C 1258.808594 1483.210938 1242.941406 1502.101562 1221.078125 1508.121094 C 1154.109375 1526.539062 1092.421875 1562.179688 1042.691406 1611.21875 C 1026.558594 1627.171875 1002.289062 1631.449219 981.660156 1622.011719 L 955.917969 1610.28125 C 949.945312 1607.539062 939.0625 1605.660156 935.328125 1612.148438 L 881.449219 1705.46875 C 877.527344 1712.25 884.796875 1720.988281 890.292969 1724.921875 L 912.828125 1740.96875 C 931.285156 1754.109375 939.710938 1777.28125 934.003906 1799.210938 C 932.027344 1806.789062 930.273438 1814.5 928.71875 1822.269531 C 922.832031 1851.871094 894.074219 1871.039062 864.476562 1865.21875 C 837.59375 1859.890625 819.265625 1835.679688 820.535156 1809.109375 C 771.386719 1769.691406 756.710938 1703 786.820312 1650.851562 L 840.699219 1557.53125 C 870.6875 1505.589844 935.476562 1485.039062 993.972656 1507.769531 C 1041.878906 1467.019531 1096.871094 1435.21875 1155.921875 1414.160156 C 1165.738281 1352.179688 1216 1306.460938 1276.03125 1306.460938 L 1383.800781 1306.46875 C 1443.75 1306.46875 1493.921875 1352.238281 1503.5 1414.210938 C 1562.539062 1435.269531 1617.53125 1467.078125 1665.441406 1507.828125 C 1724.089844 1485.300781 1788.871094 1505.949219 1818.898438 1557.96875 L 1872.78125 1651.269531 C 1902.75 1703.171875 1888.199219 1769.539062 1839.308594 1808.808594 C 1844.910156 1839.558594 1847.75 1870.890625 1847.75 1902.339844 C 1847.75 1933.800781 1844.929688 1965.148438 1839.308594 1995.921875 C 1888.089844 2035.410156 1902.550781 2101.839844 1872.539062 2153.808594 L 1818.660156 2247.140625 C 1788.660156 2299.058594 1723.851562 2319.601562 1665.390625 2296.871094 C 1617.5 2337.601562 1562.480469 2369.398438 1503.429688 2390.480469 C 1493.570312 2452.460938 1443.28125 2498.179688 1383.28125 2498.179688 Z M 2791.109375 1671.71875 L 2426.429688 1671.71875 C 2421.308594 1682.289062 2416.46875 1698.019531 2416.46875 1707.96875 C 2416.46875 1714.5 2422.550781 1722.898438 2428.730469 1724.929688 C 2445.628906 1730.46875 2458.78125 1743.898438 2463.929688 1760.921875 C 2481.269531 1817.808594 2512.25 1864.769531 2547.109375 1891.390625 C 2547.898438 1891.921875 2548.699219 1892.46875 2549.460938 1893.039062 C 2556.078125 1897.949219 2562.699219 1902.03125 2569.300781 1905.289062 C 2573.449219 1907.328125 2577.621094 1909.070312 2581.808594 1910.5 L 2582.328125 1910.671875 L 2583.800781 1911.148438 C 2599.539062 1916.078125 2615.238281 1916.359375 2630.980469 1911.980469 L 2632.839844 1911.429688 L 2632.851562 1911.429688 L 2633.28125 1911.300781 L 2635.429688 1910.609375 L 2635.621094 1910.539062 C 2639.140625 1909.351562 2642.640625 1907.941406 2646.148438 1906.308594 L 2646.199219 1906.28125 L 2647.648438 1905.578125 L 2648 1905.421875 C 2654.679688 1902.140625 2661.371094 1898.011719 2668.058594 1893.039062 C 2668.949219 1892.378906 2669.859375 1891.761719 2670.769531 1891.160156 C 2705.5 1864.5 2736.351562 1817.660156 2753.609375 1760.921875 C 2758.78125 1743.898438 2771.941406 1730.460938 2788.808594 1724.929688 C 2794.988281 1722.898438 2801.070312 1714.519531 2801.070312 1707.96875 C 2801.070312 1698.039062 2796.230469 1682.289062 2791.109375 1671.71875 "/>
</clipPath>
<linearGradient id="linear-pattern-0" gradientUnits="userSpaceOnUse" x1="-0.0125092" y1="0" x2="1.000001" y2="0" gradientTransform="matrix(2316.53, 0, 0, 2316.53, 785.448, 1936.48)">
<stop offset="0" stop-color="rgb(100%, 80.39093%, 1.176453%)" stop-opacity="1"/>
<stop offset="0.0078125" stop-color="rgb(100%, 80.39093%, 1.176453%)" stop-opacity="1"/>
<stop offset="0.0117187" stop-color="rgb(99.797058%, 80.383301%, 1.286316%)" stop-opacity="1"/>
<stop offset="0.015625" stop-color="rgb(99.594116%, 80.375671%, 1.397705%)" stop-opacity="1"/>
<stop offset="0.0195312" stop-color="rgb(99.110413%, 80.357361%, 1.661682%)" stop-opacity="1"/>
<stop offset="0.0234375" stop-color="rgb(98.626709%, 80.33905%, 1.925659%)" stop-opacity="1"/>
<stop offset="0.0273438" stop-color="rgb(98.143005%, 80.32074%, 2.189636%)" stop-opacity="1"/>
<stop offset="0.03125" stop-color="rgb(97.660828%, 80.302429%, 2.455139%)" stop-opacity="1"/>
<stop offset="0.0351562" stop-color="rgb(97.177124%, 80.284119%, 2.719116%)" stop-opacity="1"/>
<stop offset="0.0390625" stop-color="rgb(96.69342%, 80.267334%, 2.984619%)" stop-opacity="1"/>
<stop offset="0.0429688" stop-color="rgb(96.209717%, 80.249023%, 3.248596%)" stop-opacity="1"/>
<stop offset="0.046875" stop-color="rgb(95.726013%, 80.230713%, 3.514099%)" stop-opacity="1"/>
<stop offset="0.0507812" stop-color="rgb(95.24231%, 80.212402%, 3.778076%)" stop-opacity="1"/>
<stop offset="0.0546875" stop-color="rgb(94.758606%, 80.194092%, 4.043579%)" stop-opacity="1"/>
<stop offset="0.0585937" stop-color="rgb(94.274902%, 80.175781%, 4.307556%)" stop-opacity="1"/>
<stop offset="0.0625" stop-color="rgb(93.791199%, 80.157471%, 4.571533%)" stop-opacity="1"/>
<stop offset="0.0664062" stop-color="rgb(93.307495%, 80.13916%, 4.83551%)" stop-opacity="1"/>
<stop offset="0.0703125" stop-color="rgb(92.825317%, 80.12085%, 5.101013%)" stop-opacity="1"/>
<stop offset="0.0742188" stop-color="rgb(92.341614%, 80.102539%, 5.36499%)" stop-opacity="1"/>
<stop offset="0.078125" stop-color="rgb(91.85791%, 80.084229%, 5.630493%)" stop-opacity="1"/>
<stop offset="0.0820312" stop-color="rgb(91.374207%, 80.065918%, 5.89447%)" stop-opacity="1"/>
<stop offset="0.0859375" stop-color="rgb(90.890503%, 80.047607%, 6.159973%)" stop-opacity="1"/>
<stop offset="0.0898437" stop-color="rgb(90.406799%, 80.029297%, 6.42395%)" stop-opacity="1"/>
<stop offset="0.09375" stop-color="rgb(89.923096%, 80.010986%, 6.689453%)" stop-opacity="1"/>
<stop offset="0.0976562" stop-color="rgb(89.439392%, 79.992676%, 6.95343%)" stop-opacity="1"/>
<stop offset="0.101562" stop-color="rgb(88.955688%, 79.974365%, 7.217407%)" stop-opacity="1"/>
<stop offset="0.105469" stop-color="rgb(88.471985%, 79.956055%, 7.481384%)" stop-opacity="1"/>
<stop offset="0.109375" stop-color="rgb(87.989807%, 79.937744%, 7.746887%)" stop-opacity="1"/>
<stop offset="0.113281" stop-color="rgb(87.506104%, 79.919434%, 8.010864%)" stop-opacity="1"/>
<stop offset="0.117187" stop-color="rgb(87.0224%, 79.901123%, 8.276367%)" stop-opacity="1"/>
<stop offset="0.121094" stop-color="rgb(86.538696%, 79.882812%, 8.540344%)" stop-opacity="1"/>
<stop offset="0.125" stop-color="rgb(86.054993%, 79.864502%, 8.805847%)" stop-opacity="1"/>
<stop offset="0.128906" stop-color="rgb(85.571289%, 79.846191%, 9.069824%)" stop-opacity="1"/>
<stop offset="0.132812" stop-color="rgb(85.087585%, 79.829407%, 9.335327%)" stop-opacity="1"/>
<stop offset="0.136719" stop-color="rgb(84.603882%, 79.811096%, 9.599304%)" stop-opacity="1"/>
<stop offset="0.140625" stop-color="rgb(84.120178%, 79.792786%, 9.863281%)" stop-opacity="1"/>
<stop offset="0.144531" stop-color="rgb(83.636475%, 79.774475%, 10.127258%)" stop-opacity="1"/>
<stop offset="0.148438" stop-color="rgb(83.152771%, 79.756165%, 10.392761%)" stop-opacity="1"/>
<stop offset="0.152344" stop-color="rgb(82.669067%, 79.737854%, 10.656738%)" stop-opacity="1"/>
<stop offset="0.15625" stop-color="rgb(82.18689%, 79.719543%, 10.922241%)" stop-opacity="1"/>
<stop offset="0.160156" stop-color="rgb(81.703186%, 79.701233%, 11.186218%)" stop-opacity="1"/>
<stop offset="0.164062" stop-color="rgb(81.219482%, 79.682922%, 11.451721%)" stop-opacity="1"/>
<stop offset="0.167969" stop-color="rgb(80.735779%, 79.664612%, 11.715698%)" stop-opacity="1"/>
<stop offset="0.171875" stop-color="rgb(80.252075%, 79.646301%, 11.981201%)" stop-opacity="1"/>
<stop offset="0.175781" stop-color="rgb(79.768372%, 79.627991%, 12.245178%)" stop-opacity="1"/>
<stop offset="0.179687" stop-color="rgb(79.284668%, 79.60968%, 12.509155%)" stop-opacity="1"/>
<stop offset="0.183594" stop-color="rgb(78.800964%, 79.59137%, 12.773132%)" stop-opacity="1"/>
<stop offset="0.1875" stop-color="rgb(78.317261%, 79.573059%, 13.038635%)" stop-opacity="1"/>
<stop offset="0.191406" stop-color="rgb(77.833557%, 79.554749%, 13.302612%)" stop-opacity="1"/>
<stop offset="0.195312" stop-color="rgb(77.351379%, 79.536438%, 13.568115%)" stop-opacity="1"/>
<stop offset="0.199219" stop-color="rgb(76.867676%, 79.518127%, 13.832092%)" stop-opacity="1"/>
<stop offset="0.203125" stop-color="rgb(76.383972%, 79.499817%, 14.097595%)" stop-opacity="1"/>
<stop offset="0.207031" stop-color="rgb(75.900269%, 79.481506%, 14.361572%)" stop-opacity="1"/>
<stop offset="0.210937" stop-color="rgb(75.416565%, 79.463196%, 14.627075%)" stop-opacity="1"/>
<stop offset="0.214844" stop-color="rgb(74.932861%, 79.444885%, 14.891052%)" stop-opacity="1"/>
<stop offset="0.21875" stop-color="rgb(74.449158%, 79.426575%, 15.155029%)" stop-opacity="1"/>
<stop offset="0.222656" stop-color="rgb(73.965454%, 79.408264%, 15.419006%)" stop-opacity="1"/>
<stop offset="0.226562" stop-color="rgb(73.48175%, 79.391479%, 15.684509%)" stop-opacity="1"/>
<stop offset="0.230469" stop-color="rgb(72.998047%, 79.373169%, 15.948486%)" stop-opacity="1"/>
<stop offset="0.234375" stop-color="rgb(72.515869%, 79.354858%, 16.213989%)" stop-opacity="1"/>
<stop offset="0.238281" stop-color="rgb(72.032166%, 79.336548%, 16.477966%)" stop-opacity="1"/>
<stop offset="0.242187" stop-color="rgb(71.548462%, 79.318237%, 16.743469%)" stop-opacity="1"/>
<stop offset="0.246094" stop-color="rgb(71.064758%, 79.299927%, 17.007446%)" stop-opacity="1"/>
<stop offset="0.25" stop-color="rgb(70.581055%, 79.281616%, 17.272949%)" stop-opacity="1"/>
<stop offset="0.253906" stop-color="rgb(70.097351%, 79.263306%, 17.536926%)" stop-opacity="1"/>
<stop offset="0.257812" stop-color="rgb(69.613647%, 79.244995%, 17.800903%)" stop-opacity="1"/>
<stop offset="0.261719" stop-color="rgb(69.129944%, 79.226685%, 18.06488%)" stop-opacity="1"/>
<stop offset="0.265625" stop-color="rgb(68.64624%, 79.208374%, 18.330383%)" stop-opacity="1"/>
<stop offset="0.269531" stop-color="rgb(68.162537%, 79.190063%, 18.59436%)" stop-opacity="1"/>
<stop offset="0.273438" stop-color="rgb(67.680359%, 79.171753%, 18.859863%)" stop-opacity="1"/>
<stop offset="0.277344" stop-color="rgb(67.196655%, 79.153442%, 19.12384%)" stop-opacity="1"/>
<stop offset="0.28125" stop-color="rgb(66.712952%, 79.135132%, 19.389343%)" stop-opacity="1"/>
<stop offset="0.285156" stop-color="rgb(66.229248%, 79.116821%, 19.65332%)" stop-opacity="1"/>
<stop offset="0.289062" stop-color="rgb(65.745544%, 79.098511%, 19.918823%)" stop-opacity="1"/>
<stop offset="0.292969" stop-color="rgb(65.261841%, 79.0802%, 20.1828%)" stop-opacity="1"/>
<stop offset="0.296875" stop-color="rgb(64.778137%, 79.06189%, 20.446777%)" stop-opacity="1"/>
<stop offset="0.300781" stop-color="rgb(64.294434%, 79.043579%, 20.710754%)" stop-opacity="1"/>
<stop offset="0.304687" stop-color="rgb(63.81073%, 79.025269%, 20.976257%)" stop-opacity="1"/>
<stop offset="0.308594" stop-color="rgb(63.327026%, 79.006958%, 21.240234%)" stop-opacity="1"/>
<stop offset="0.3125" stop-color="rgb(62.844849%, 78.988647%, 21.505737%)" stop-opacity="1"/>
<stop offset="0.316406" stop-color="rgb(62.361145%, 78.970337%, 21.769714%)" stop-opacity="1"/>
<stop offset="0.320312" stop-color="rgb(61.877441%, 78.953552%, 22.035217%)" stop-opacity="1"/>
<stop offset="0.324219" stop-color="rgb(61.393738%, 78.935242%, 22.299194%)" stop-opacity="1"/>
<stop offset="0.328125" stop-color="rgb(60.910034%, 78.916931%, 22.564697%)" stop-opacity="1"/>
<stop offset="0.332031" stop-color="rgb(60.426331%, 78.898621%, 22.828674%)" stop-opacity="1"/>
<stop offset="0.335937" stop-color="rgb(59.942627%, 78.88031%, 23.092651%)" stop-opacity="1"/>
<stop offset="0.339844" stop-color="rgb(59.458923%, 78.862%, 23.356628%)" stop-opacity="1"/>
<stop offset="0.34375" stop-color="rgb(58.97522%, 78.843689%, 23.622131%)" stop-opacity="1"/>
<stop offset="0.347656" stop-color="rgb(58.476257%, 78.823853%, 24.125671%)" stop-opacity="1"/>
<stop offset="0.351562" stop-color="rgb(57.978821%, 78.804016%, 24.629211%)" stop-opacity="1"/>
<stop offset="0.355469" stop-color="rgb(57.460022%, 78.781128%, 25.439453%)" stop-opacity="1"/>
<stop offset="0.359375" stop-color="rgb(56.941223%, 78.759766%, 26.249695%)" stop-opacity="1"/>
<stop offset="0.363281" stop-color="rgb(56.422424%, 78.736877%, 27.059937%)" stop-opacity="1"/>
<stop offset="0.367188" stop-color="rgb(55.903625%, 78.715515%, 27.871704%)" stop-opacity="1"/>
<stop offset="0.371094" stop-color="rgb(55.384827%, 78.692627%, 28.681946%)" stop-opacity="1"/>
<stop offset="0.375" stop-color="rgb(54.867554%, 78.669739%, 29.493713%)" stop-opacity="1"/>
<stop offset="0.378906" stop-color="rgb(54.348755%, 78.646851%, 30.303955%)" stop-opacity="1"/>
<stop offset="0.382812" stop-color="rgb(53.829956%, 78.625488%, 31.115723%)" stop-opacity="1"/>
<stop offset="0.386719" stop-color="rgb(53.311157%, 78.6026%, 31.925964%)" stop-opacity="1"/>
<stop offset="0.390625" stop-color="rgb(52.793884%, 78.581238%, 32.737732%)" stop-opacity="1"/>
<stop offset="0.394531" stop-color="rgb(52.275085%, 78.55835%, 33.547974%)" stop-opacity="1"/>
<stop offset="0.398437" stop-color="rgb(51.756287%, 78.536987%, 34.359741%)" stop-opacity="1"/>
<stop offset="0.402344" stop-color="rgb(51.237488%, 78.514099%, 35.169983%)" stop-opacity="1"/>
<stop offset="0.40625" stop-color="rgb(50.718689%, 78.492737%, 35.98175%)" stop-opacity="1"/>
<stop offset="0.410156" stop-color="rgb(50.19989%, 78.469849%, 36.791992%)" stop-opacity="1"/>
<stop offset="0.414062" stop-color="rgb(49.682617%, 78.448486%, 37.60376%)" stop-opacity="1"/>
<stop offset="0.417969" stop-color="rgb(49.163818%, 78.425598%, 38.414001%)" stop-opacity="1"/>
<stop offset="0.421875" stop-color="rgb(48.64502%, 78.404236%, 39.225769%)" stop-opacity="1"/>
<stop offset="0.425781" stop-color="rgb(48.126221%, 78.381348%, 40.036011%)" stop-opacity="1"/>
<stop offset="0.429687" stop-color="rgb(47.608948%, 78.359985%, 40.847778%)" stop-opacity="1"/>
<stop offset="0.433594" stop-color="rgb(47.090149%, 78.337097%, 41.65802%)" stop-opacity="1"/>
<stop offset="0.4375" stop-color="rgb(46.57135%, 78.315735%, 42.469788%)" stop-opacity="1"/>
<stop offset="0.441406" stop-color="rgb(46.052551%, 78.292847%, 43.280029%)" stop-opacity="1"/>
<stop offset="0.445312" stop-color="rgb(45.533752%, 78.271484%, 44.091797%)" stop-opacity="1"/>
<stop offset="0.449219" stop-color="rgb(45.014954%, 78.248596%, 44.902039%)" stop-opacity="1"/>
<stop offset="0.453125" stop-color="rgb(44.497681%, 78.227234%, 45.713806%)" stop-opacity="1"/>
<stop offset="0.457031" stop-color="rgb(43.978882%, 78.204346%, 46.524048%)" stop-opacity="1"/>
<stop offset="0.460937" stop-color="rgb(43.460083%, 78.182983%, 47.335815%)" stop-opacity="1"/>
<stop offset="0.464844" stop-color="rgb(42.941284%, 78.160095%, 48.146057%)" stop-opacity="1"/>
<stop offset="0.46875" stop-color="rgb(42.424011%, 78.138733%, 48.957825%)" stop-opacity="1"/>
<stop offset="0.472656" stop-color="rgb(41.905212%, 78.115845%, 49.768066%)" stop-opacity="1"/>
<stop offset="0.476562" stop-color="rgb(41.386414%, 78.094482%, 50.579834%)" stop-opacity="1"/>
<stop offset="0.480469" stop-color="rgb(40.867615%, 78.071594%, 51.390076%)" stop-opacity="1"/>
<stop offset="0.484375" stop-color="rgb(40.350342%, 78.050232%, 52.201843%)" stop-opacity="1"/>
<stop offset="0.488281" stop-color="rgb(39.831543%, 78.027344%, 53.012085%)" stop-opacity="1"/>
<stop offset="0.492187" stop-color="rgb(39.312744%, 78.005981%, 53.823853%)" stop-opacity="1"/>
<stop offset="0.496094" stop-color="rgb(38.793945%, 77.983093%, 54.634094%)" stop-opacity="1"/>
<stop offset="0.5" stop-color="rgb(38.275146%, 77.961731%, 55.445862%)" stop-opacity="1"/>
<stop offset="0.503906" stop-color="rgb(37.756348%, 77.938843%, 56.256104%)" stop-opacity="1"/>
<stop offset="0.507812" stop-color="rgb(37.239075%, 77.91748%, 57.067871%)" stop-opacity="1"/>
<stop offset="0.511719" stop-color="rgb(36.720276%, 77.894592%, 57.878113%)" stop-opacity="1"/>
<stop offset="0.515625" stop-color="rgb(36.201477%, 77.87323%, 58.688354%)" stop-opacity="1"/>
<stop offset="0.519531" stop-color="rgb(35.682678%, 77.850342%, 59.498596%)" stop-opacity="1"/>
<stop offset="0.523437" stop-color="rgb(35.165405%, 77.828979%, 60.310364%)" stop-opacity="1"/>
<stop offset="0.527344" stop-color="rgb(34.646606%, 77.806091%, 61.120605%)" stop-opacity="1"/>
<stop offset="0.53125" stop-color="rgb(34.127808%, 77.784729%, 61.932373%)" stop-opacity="1"/>
<stop offset="0.535156" stop-color="rgb(33.609009%, 77.761841%, 62.742615%)" stop-opacity="1"/>
<stop offset="0.539062" stop-color="rgb(33.09021%, 77.740479%, 63.554382%)" stop-opacity="1"/>
<stop offset="0.542969" stop-color="rgb(32.571411%, 77.71759%, 64.364624%)" stop-opacity="1"/>
<stop offset="0.546875" stop-color="rgb(32.054138%, 77.696228%, 65.176392%)" stop-opacity="1"/>
<stop offset="0.550781" stop-color="rgb(31.535339%, 77.67334%, 65.986633%)" stop-opacity="1"/>
<stop offset="0.554688" stop-color="rgb(31.016541%, 77.650452%, 66.798401%)" stop-opacity="1"/>
<stop offset="0.558594" stop-color="rgb(30.497742%, 77.627563%, 67.608643%)" stop-opacity="1"/>
<stop offset="0.5625" stop-color="rgb(29.980469%, 77.606201%, 68.42041%)" stop-opacity="1"/>
<stop offset="0.566406" stop-color="rgb(29.46167%, 77.583313%, 69.230652%)" stop-opacity="1"/>
<stop offset="0.570312" stop-color="rgb(28.942871%, 77.561951%, 70.042419%)" stop-opacity="1"/>
<stop offset="0.574219" stop-color="rgb(28.424072%, 77.539062%, 70.852661%)" stop-opacity="1"/>
<stop offset="0.578125" stop-color="rgb(27.905273%, 77.5177%, 71.664429%)" stop-opacity="1"/>
<stop offset="0.582031" stop-color="rgb(27.386475%, 77.494812%, 72.47467%)" stop-opacity="1"/>
<stop offset="0.585937" stop-color="rgb(26.869202%, 77.47345%, 73.286438%)" stop-opacity="1"/>
<stop offset="0.589844" stop-color="rgb(26.350403%, 77.450562%, 74.09668%)" stop-opacity="1"/>
<stop offset="0.59375" stop-color="rgb(25.831604%, 77.429199%, 74.908447%)" stop-opacity="1"/>
<stop offset="0.597656" stop-color="rgb(25.312805%, 77.406311%, 75.718689%)" stop-opacity="1"/>
<stop offset="0.601562" stop-color="rgb(24.795532%, 77.384949%, 76.530457%)" stop-opacity="1"/>
<stop offset="0.605469" stop-color="rgb(24.276733%, 77.362061%, 77.340698%)" stop-opacity="1"/>
<stop offset="0.609375" stop-color="rgb(23.757935%, 77.340698%, 78.152466%)" stop-opacity="1"/>
<stop offset="0.613281" stop-color="rgb(23.239136%, 77.31781%, 78.962708%)" stop-opacity="1"/>
<stop offset="0.617187" stop-color="rgb(22.721863%, 77.296448%, 79.774475%)" stop-opacity="1"/>
<stop offset="0.621094" stop-color="rgb(22.203064%, 77.27356%, 80.584717%)" stop-opacity="1"/>
<stop offset="0.625" stop-color="rgb(21.684265%, 77.252197%, 81.396484%)" stop-opacity="1"/>
<stop offset="0.628906" stop-color="rgb(21.165466%, 77.229309%, 82.206726%)" stop-opacity="1"/>
<stop offset="0.632812" stop-color="rgb(20.646667%, 77.207947%, 83.018494%)" stop-opacity="1"/>
<stop offset="0.636719" stop-color="rgb(20.127869%, 77.185059%, 83.828735%)" stop-opacity="1"/>
<stop offset="0.640625" stop-color="rgb(19.610596%, 77.163696%, 84.640503%)" stop-opacity="1"/>
<stop offset="0.644531" stop-color="rgb(19.091797%, 77.140808%, 85.450745%)" stop-opacity="1"/>
<stop offset="0.648437" stop-color="rgb(18.572998%, 77.119446%, 86.262512%)" stop-opacity="1"/>
<stop offset="0.652344" stop-color="rgb(18.054199%, 77.096558%, 87.072754%)" stop-opacity="1"/>
<stop offset="0.65625" stop-color="rgb(17.536926%, 77.075195%, 87.884521%)" stop-opacity="1"/>
<stop offset="0.660156" stop-color="rgb(17.018127%, 77.052307%, 88.694763%)" stop-opacity="1"/>
<stop offset="0.664062" stop-color="rgb(16.499329%, 77.030945%, 89.505005%)" stop-opacity="1"/>
<stop offset="0.667969" stop-color="rgb(15.98053%, 77.008057%, 90.315247%)" stop-opacity="1"/>
<stop offset="0.671875" stop-color="rgb(15.461731%, 76.986694%, 91.127014%)" stop-opacity="1"/>
<stop offset="0.675781" stop-color="rgb(14.942932%, 76.963806%, 91.937256%)" stop-opacity="1"/>
<stop offset="0.679687" stop-color="rgb(14.425659%, 76.942444%, 92.749023%)" stop-opacity="1"/>
<stop offset="0.683594" stop-color="rgb(13.90686%, 76.919556%, 93.559265%)" stop-opacity="1"/>
<stop offset="0.6875" stop-color="rgb(13.388062%, 76.898193%, 94.371033%)" stop-opacity="1"/>
<stop offset="0.691406" stop-color="rgb(13.059998%, 76.751709%, 94.940186%)" stop-opacity="1"/>
<stop offset="0.695312" stop-color="rgb(12.731934%, 76.605225%, 95.509338%)" stop-opacity="1"/>
<stop offset="0.699219" stop-color="rgb(13.217163%, 75.92926%, 95.043945%)" stop-opacity="1"/>
<stop offset="0.703125" stop-color="rgb(13.702393%, 75.254822%, 94.578552%)" stop-opacity="1"/>
<stop offset="0.707031" stop-color="rgb(14.187622%, 74.578857%, 94.113159%)" stop-opacity="1"/>
<stop offset="0.710937" stop-color="rgb(14.674377%, 73.904419%, 93.647766%)" stop-opacity="1"/>
<stop offset="0.714844" stop-color="rgb(15.159607%, 73.228455%, 93.182373%)" stop-opacity="1"/>
<stop offset="0.71875" stop-color="rgb(15.644836%, 72.55249%, 92.71698%)" stop-opacity="1"/>
<stop offset="0.722656" stop-color="rgb(16.130066%, 71.876526%, 92.251587%)" stop-opacity="1"/>
<stop offset="0.726562" stop-color="rgb(16.615295%, 71.202087%, 91.786194%)" stop-opacity="1"/>
<stop offset="0.730469" stop-color="rgb(17.100525%, 70.526123%, 91.320801%)" stop-opacity="1"/>
<stop offset="0.734375" stop-color="rgb(17.585754%, 69.851685%, 90.855408%)" stop-opacity="1"/>
<stop offset="0.738281" stop-color="rgb(18.070984%, 69.17572%, 90.390015%)" stop-opacity="1"/>
<stop offset="0.742187" stop-color="rgb(18.556213%, 68.499756%, 89.924622%)" stop-opacity="1"/>
<stop offset="0.746094" stop-color="rgb(19.041443%, 67.823792%, 89.459229%)" stop-opacity="1"/>
<stop offset="0.75" stop-color="rgb(19.526672%, 67.149353%, 88.993835%)" stop-opacity="1"/>
<stop offset="0.753906" stop-color="rgb(20.011902%, 66.473389%, 88.528442%)" stop-opacity="1"/>
<stop offset="0.757812" stop-color="rgb(20.497131%, 65.79895%, 88.064575%)" stop-opacity="1"/>
<stop offset="0.761719" stop-color="rgb(20.982361%, 65.122986%, 87.599182%)" stop-opacity="1"/>
<stop offset="0.765625" stop-color="rgb(21.46759%, 64.447021%, 87.133789%)" stop-opacity="1"/>
<stop offset="0.769531" stop-color="rgb(21.95282%, 63.771057%, 86.668396%)" stop-opacity="1"/>
<stop offset="0.773437" stop-color="rgb(22.439575%, 63.096619%, 86.203003%)" stop-opacity="1"/>
<stop offset="0.777344" stop-color="rgb(22.924805%, 62.420654%, 85.73761%)" stop-opacity="1"/>
<stop offset="0.78125" stop-color="rgb(23.410034%, 61.746216%, 85.272217%)" stop-opacity="1"/>
<stop offset="0.785156" stop-color="rgb(23.895264%, 61.070251%, 84.806824%)" stop-opacity="1"/>
<stop offset="0.789062" stop-color="rgb(24.380493%, 60.394287%, 84.341431%)" stop-opacity="1"/>
<stop offset="0.792969" stop-color="rgb(24.865723%, 59.718323%, 83.876038%)" stop-opacity="1"/>
<stop offset="0.796875" stop-color="rgb(25.350952%, 59.043884%, 83.410645%)" stop-opacity="1"/>
<stop offset="0.800781" stop-color="rgb(25.836182%, 58.36792%, 82.945251%)" stop-opacity="1"/>
<stop offset="0.804687" stop-color="rgb(26.321411%, 57.693481%, 82.479858%)" stop-opacity="1"/>
<stop offset="0.808594" stop-color="rgb(26.806641%, 57.017517%, 82.014465%)" stop-opacity="1"/>
<stop offset="0.8125" stop-color="rgb(27.29187%, 56.341553%, 81.549072%)" stop-opacity="1"/>
<stop offset="0.816406" stop-color="rgb(27.7771%, 55.665588%, 81.083679%)" stop-opacity="1"/>
<stop offset="0.820312" stop-color="rgb(28.262329%, 54.99115%, 80.618286%)" stop-opacity="1"/>
<stop offset="0.824219" stop-color="rgb(28.747559%, 54.315186%, 80.152893%)" stop-opacity="1"/>
<stop offset="0.828125" stop-color="rgb(29.232788%, 53.640747%, 79.689026%)" stop-opacity="1"/>
<stop offset="0.832031" stop-color="rgb(29.718018%, 52.964783%, 79.223633%)" stop-opacity="1"/>
<stop offset="0.835937" stop-color="rgb(30.204773%, 52.288818%, 78.75824%)" stop-opacity="1"/>
<stop offset="0.839844" stop-color="rgb(30.690002%, 51.612854%, 78.292847%)" stop-opacity="1"/>
<stop offset="0.84375" stop-color="rgb(31.175232%, 50.938416%, 77.827454%)" stop-opacity="1"/>
<stop offset="0.847656" stop-color="rgb(31.660461%, 50.262451%, 77.362061%)" stop-opacity="1"/>
<stop offset="0.851562" stop-color="rgb(32.145691%, 49.588013%, 76.896667%)" stop-opacity="1"/>
<stop offset="0.855469" stop-color="rgb(32.63092%, 48.912048%, 76.431274%)" stop-opacity="1"/>
<stop offset="0.859375" stop-color="rgb(33.11615%, 48.236084%, 75.965881%)" stop-opacity="1"/>
<stop offset="0.863281" stop-color="rgb(33.601379%, 47.56012%, 75.500488%)" stop-opacity="1"/>
<stop offset="0.867187" stop-color="rgb(34.086609%, 46.885681%, 75.035095%)" stop-opacity="1"/>
<stop offset="0.871094" stop-color="rgb(34.571838%, 46.209717%, 74.569702%)" stop-opacity="1"/>
<stop offset="0.875" stop-color="rgb(35.057068%, 45.535278%, 74.104309%)" stop-opacity="1"/>
<stop offset="0.878906" stop-color="rgb(35.542297%, 44.859314%, 73.638916%)" stop-opacity="1"/>
<stop offset="0.882812" stop-color="rgb(36.027527%, 44.18335%, 73.173523%)" stop-opacity="1"/>
<stop offset="0.886719" stop-color="rgb(36.512756%, 43.507385%, 72.70813%)" stop-opacity="1"/>
<stop offset="0.890625" stop-color="rgb(36.997986%, 42.832947%, 72.242737%)" stop-opacity="1"/>
<stop offset="0.894531" stop-color="rgb(37.483215%, 42.156982%, 71.777344%)" stop-opacity="1"/>
<stop offset="0.898437" stop-color="rgb(37.968445%, 41.482544%, 71.313477%)" stop-opacity="1"/>
<stop offset="0.902344" stop-color="rgb(38.453674%, 40.80658%, 70.848083%)" stop-opacity="1"/>
<stop offset="0.90625" stop-color="rgb(38.94043%, 40.132141%, 70.38269%)" stop-opacity="1"/>
<stop offset="0.910156" stop-color="rgb(39.425659%, 39.456177%, 69.917297%)" stop-opacity="1"/>
<stop offset="0.914062" stop-color="rgb(39.910889%, 38.780212%, 69.451904%)" stop-opacity="1"/>
<stop offset="0.917969" stop-color="rgb(40.396118%, 38.104248%, 68.986511%)" stop-opacity="1"/>
<stop offset="0.921875" stop-color="rgb(40.881348%, 37.42981%, 68.521118%)" stop-opacity="1"/>
<stop offset="0.925781" stop-color="rgb(41.366577%, 36.753845%, 68.055725%)" stop-opacity="1"/>
<stop offset="0.929687" stop-color="rgb(41.851807%, 36.079407%, 67.590332%)" stop-opacity="1"/>
<stop offset="0.933594" stop-color="rgb(42.337036%, 35.403442%, 67.124939%)" stop-opacity="1"/>
<stop offset="0.9375" stop-color="rgb(42.822266%, 34.727478%, 66.659546%)" stop-opacity="1"/>
<stop offset="0.941406" stop-color="rgb(43.307495%, 34.051514%, 66.194153%)" stop-opacity="1"/>
<stop offset="0.945312" stop-color="rgb(43.792725%, 33.377075%, 65.72876%)" stop-opacity="1"/>
<stop offset="0.949219" stop-color="rgb(44.277954%, 32.701111%, 65.263367%)" stop-opacity="1"/>
<stop offset="0.953125" stop-color="rgb(44.763184%, 32.026672%, 64.797974%)" stop-opacity="1"/>
<stop offset="0.957031" stop-color="rgb(45.248413%, 31.350708%, 64.332581%)" stop-opacity="1"/>
<stop offset="0.960937" stop-color="rgb(45.733643%, 30.674744%, 63.867188%)" stop-opacity="1"/>
<stop offset="0.964844" stop-color="rgb(46.218872%, 29.998779%, 63.401794%)" stop-opacity="1"/>
<stop offset="0.96875" stop-color="rgb(46.705627%, 29.324341%, 62.937927%)" stop-opacity="1"/>
<stop offset="0.972656" stop-color="rgb(47.190857%, 28.648376%, 62.472534%)" stop-opacity="1"/>
<stop offset="0.976562" stop-color="rgb(47.676086%, 27.973938%, 62.007141%)" stop-opacity="1"/>
<stop offset="0.980469" stop-color="rgb(48.161316%, 27.297974%, 61.541748%)" stop-opacity="1"/>
<stop offset="0.984375" stop-color="rgb(48.646545%, 26.622009%, 61.076355%)" stop-opacity="1"/>
<stop offset="0.988281" stop-color="rgb(49.131775%, 25.946045%, 60.610962%)" stop-opacity="1"/>
<stop offset="0.992187" stop-color="rgb(49.617004%, 25.271606%, 60.145569%)" stop-opacity="1"/>
<stop offset="0.996094" stop-color="rgb(50.102234%, 24.595642%, 59.680176%)" stop-opacity="1"/>
<stop offset="1" stop-color="rgb(50.587463%, 23.921204%, 59.214783%)" stop-opacity="1"/>
</linearGradient>
</defs>
<g clip-path="url(#clip-0)">
<path fill-rule="evenodd" fill="rgb(9.008789%, 3.137207%, 16.088867%)" fill-opacity="1" d="M 713.855469 0 L 3159.121094 0 C 3551.75 0 3872.96875 321.230469 3872.96875 713.859375 L 3872.96875 3159.121094 C 3872.96875 3551.75 3551.75 3872.96875 3159.121094 3872.96875 L 713.855469 3872.96875 C 321.230469 3872.96875 0 3551.75 0 3159.121094 L 0 713.859375 C 0 321.230469 321.230469 0 713.855469 0 "/>
</g>
<g clip-path="url(#clip-1)">
<g clip-path="url(#clip-2)">
<path fill-rule="nonzero" fill="url(#linear-pattern-0)" d="M 756.46875 952.511719 L 756.46875 2914.550781 L 3101.980469 2914.550781 L 3101.980469 952.511719 Z M 756.46875 952.511719 "/>
</g>
</g>
</svg>
