<svg xmlns="http://www.w3.org/2000/svg" width="20" height="16.589" viewBox="0 0 20 16.589">
  <path id="Path_166" data-name="Path 166" d="M1111.334,3263.107c-.1.752-1.188,1.508-1.85,2.081.653,9.624-10.221,15.628-18.15,10.75,2.224.018,4.688-.594,6.012-1.849-1.924-.311-3.287-1.185-3.816-2.89.565-.052,1.355.121,1.735-.116-1.76-.668-3.151-1.705-3.238-4.046.628.067.953.435,1.735.347a4.7,4.7,0,0,1-1.272-5.55,12.375,12.375,0,0,0,8.671,4.393c-1-4.249,4.633-6.881,7.167-3.814a14.729,14.729,0,0,0,2.659-.925,5.515,5.515,0,0,1-1.734,2.2A6.263,6.263,0,0,0,1111.334,3263.107Z" transform="translate(-1091.334 -3261.081)" fill="#03488d" fill-rule="evenodd"/>
</svg>
