<svg xmlns="http://www.w3.org/2000/svg" width="20" height="14.066" viewBox="0 0 20 14.066">
  <g id="Lozenge" transform="translate(-467.277 -3523.44)">
    <path id="Path_3318" data-name="Path 3318" d="M487.077,3526.474a4.322,4.322,0,0,0-.795-1.985,2.858,2.858,0,0,0-2-.847c-2.8-.2-7-.2-7-.2h-.008s-4.2,0-7,.2a2.859,2.859,0,0,0-2,.847,4.322,4.322,0,0,0-.8,1.985,30.261,30.261,0,0,0-.2,3.237v1.517a30.245,30.245,0,0,0,.2,3.237,4.324,4.324,0,0,0,.8,1.986,3.4,3.4,0,0,0,2.2.855c1.6.153,6.8.2,6.8.2s4.2-.006,7-.208a2.864,2.864,0,0,0,2-.847,4.324,4.324,0,0,0,.795-1.986,30.24,30.24,0,0,0,.2-3.237v-1.517A30.257,30.257,0,0,0,487.077,3526.474Zm-12.332,7.08v-6.593l6.339,3.308Z" fill="#03488d"/>
  </g>
</svg>
