<svg xmlns="http://www.w3.org/2000/svg" xmlns:xlink="http://www.w3.org/1999/xlink" width="46.074" height="63.824" viewBox="0 0 46.074 63.824">
  <defs>
    <clipPath id="clip-path">
      <rect id="Rectangle_2807" data-name="Rectangle 2807" width="46.074" height="63.824" transform="translate(0 0)" fill="none" stroke="#394a62" stroke-width="1"/>
    </clipPath>
  </defs>
  <g id="Group_8416" data-name="Group 8416" transform="translate(0 0)" clip-path="url(#clip-path)">
    <ellipse id="Ellipse_734" data-name="Ellipse 734" cx="12.111" cy="14.165" rx="12.111" ry="14.165" transform="translate(10.926 5.682)" fill="none" stroke="#394a62" stroke-linecap="round" stroke-linejoin="round" stroke-width="2"/>
    <path id="Path_14617" data-name="Path 14617" d="M40.15,19.847C40.15,9.438,32.488,1,23.037,1S5.925,9.438,5.925,19.847" fill="none" stroke="#394a62" stroke-linecap="round" stroke-linejoin="round" stroke-width="2"/>
    <path id="Path_14618" data-name="Path 14618" d="M40.15,24.889c0,7.124-7.662,12.9-17.113,12.9" fill="none" stroke="#394a62" stroke-linecap="round" stroke-linejoin="round" stroke-width="2"/>
    <path id="Path_14619" data-name="Path 14619" d="M7.061,14.806H4.787A1.418,1.418,0,0,0,3.37,16.223v7.249A1.418,1.418,0,0,0,4.787,24.89H7.061a1.417,1.417,0,0,0,1.417-1.418V16.223a1.417,1.417,0,0,0-1.417-1.417" fill="#f2d499" stroke="#394a62" stroke-width="1"/>
    <path id="Rectangle_2799" data-name="Rectangle 2799" d="M1.417,0H3.691A1.417,1.417,0,0,1,5.108,1.417V8.666A1.418,1.418,0,0,1,3.69,10.084H1.417A1.417,1.417,0,0,1,0,8.667V1.417A1.417,1.417,0,0,1,1.417,0Z" transform="translate(3.37 14.806)" fill="none" stroke="#394a62" stroke-linecap="round" stroke-linejoin="round" stroke-width="2"/>
    <rect id="Rectangle_2800" data-name="Rectangle 2800" width="6.176" height="3.129" transform="translate(19.949 36.224)" fill="#fff" stroke="#394a62" stroke-width="1"/>
    <rect id="Rectangle_2801" data-name="Rectangle 2801" width="6.176" height="3.129" transform="translate(19.949 36.224)" fill="none" stroke="#394a62" stroke-linecap="round" stroke-linejoin="round" stroke-width="2"/>
    <path id="Path_14620" data-name="Path 14620" d="M41.286,14.806H39.013A1.418,1.418,0,0,0,37.6,16.223v7.249a1.418,1.418,0,0,0,1.418,1.418h2.273A1.417,1.417,0,0,0,42.7,23.472V16.223a1.417,1.417,0,0,0-1.417-1.417" fill="#f2d499" stroke="#394a62" stroke-width="1"/>
    <path id="Rectangle_2802" data-name="Rectangle 2802" d="M1.417,0H3.691A1.417,1.417,0,0,1,5.108,1.417V8.666A1.418,1.418,0,0,1,3.69,10.084H1.417A1.417,1.417,0,0,1,0,8.667V1.417A1.417,1.417,0,0,1,1.417,0Z" transform="translate(37.595 14.806)" fill="none" stroke="#394a62" stroke-linecap="round" stroke-linejoin="round" stroke-width="2"/>
    <path id="Path_14621" data-name="Path 14621" d="M10.926,19.847s9.329-2.438,9.329-7.146c3.51,3.508,11.058,4.3,14.893,8.131" fill="#fff" stroke="#394a62" stroke-width="1"/>
    <path id="Path_14622" data-name="Path 14622" d="M10.926,19.847s9.329-2.438,9.329-7.146c3.51,3.508,11.058,4.3,14.893,8.131" fill="none" stroke="#394a62" stroke-linecap="round" stroke-linejoin="round" stroke-width="2"/>
    <path id="Path_14623" data-name="Path 14623" d="M25.713,28.658a3.832,3.832,0,0,1-2.676.792,3.836,3.836,0,0,1-2.677-.792" fill="#fff" stroke="#394a62" stroke-width="1"/>
    <path id="Path_14624" data-name="Path 14624" d="M25.713,28.658a3.832,3.832,0,0,1-2.676.792,3.836,3.836,0,0,1-2.677-.792" fill="none" stroke="#394a62" stroke-linecap="round" stroke-linejoin="round" stroke-width="2"/>
    <rect id="Rectangle_2803" data-name="Rectangle 2803" width="44.074" height="20.43" transform="translate(1 42.394)" fill="#fff" stroke="#394a62" stroke-width="1"/>
    <rect id="Rectangle_2804" data-name="Rectangle 2804" width="44.074" height="20.43" transform="translate(1 42.394)" fill="none" stroke="#394a62" stroke-linecap="round" stroke-linejoin="round" stroke-width="2"/>
    <rect id="Rectangle_2805" data-name="Rectangle 2805" width="27.615" height="12.801" transform="translate(9.229 50.023)" fill="#f2d499" stroke="#394a62" stroke-width="1"/>
    <rect id="Rectangle_2806" data-name="Rectangle 2806" width="27.615" height="12.801" transform="translate(9.229 50.023)" fill="none" stroke="#394a62" stroke-linecap="round" stroke-linejoin="round" stroke-width="2"/>
    <line id="Line_671" data-name="Line 671" x2="19.059" transform="translate(13.508 45.356)" fill="#fff" stroke="#394a62" stroke-width="1"/>
    <line id="Line_672" data-name="Line 672" x2="19.059" transform="translate(13.508 45.356)" fill="none" stroke="#394a62" stroke-linecap="round" stroke-linejoin="round" stroke-width="2"/>
    <path id="Path_14625" data-name="Path 14625" d="M15.957,31.339s-8.513,4.98-8.513,11.055" fill="none" stroke="#394a62" stroke-linecap="round" stroke-linejoin="round" stroke-width="2"/>
    <path id="Path_14626" data-name="Path 14626" d="M30.119,31.339s8.513,4.98,8.513,11.055" fill="none" stroke="#394a62" stroke-linecap="round" stroke-linejoin="round" stroke-width="2"/>
    <path id="Path_14627" data-name="Path 14627" d="M23.037,55.578h0A4.333,4.333,0,0,0,18.7,59.911v2.912H27.37V59.911a4.333,4.333,0,0,0-4.333-4.333" fill="#fff" stroke="#394a62" stroke-width="1"/>
    <path id="Path_14628" data-name="Path 14628" d="M23.037,55.578h0A4.333,4.333,0,0,0,18.7,59.911v2.912H27.37V59.911A4.333,4.333,0,0,0,23.037,55.578Z" fill="none" stroke="#394a62" stroke-linecap="round" stroke-linejoin="round" stroke-width="2"/>
  </g>
</svg>
