<svg id="Group_8716" data-name="Group 8716" xmlns="http://www.w3.org/2000/svg" xmlns:xlink="http://www.w3.org/1999/xlink" width="90" height="90" viewBox="0 0 90 90">
  <defs>
    <clipPath id="clip-path">
      <rect id="Rectangle_3005" data-name="Rectangle 3005" width="90" height="90" fill="none"/>
    </clipPath>
  </defs>
  <g id="Group_8718" data-name="Group 8718" clip-path="url(#clip-path)">
    <path id="Path_14991" data-name="Path 14991" d="M54.958,44.194h-.027a21.073,21.073,0,0,0,7.1-16.159c0-11-7.625-19.92-17.031-19.92s-17.032,8.918-17.032,19.92a21.073,21.073,0,0,0,7.1,16.159h-.023s-11.972,7-11.972,15.546H66.929c0-8.542-11.971-15.546-11.971-15.546" fill="#fff"/>
    <path id="Path_14992" data-name="Path 14992" d="M66.929,61.146H23.07a1.406,1.406,0,0,1-1.406-1.407c0-7.363,7.714-13.44,11.111-15.759A22.978,22.978,0,0,1,26.56,28.034C26.56,16.275,34.831,6.708,45,6.708s18.438,9.567,18.438,21.326a22.988,22.988,0,0,1-6.212,15.944c3.394,2.317,11.112,8.4,11.112,15.761a1.406,1.406,0,0,1-1.406,1.407M24.6,58.333H65.4c-1.141-6.572-9.827-12.113-11.018-12.845a1.406,1.406,0,0,1-.357-2.37,19.781,19.781,0,0,0,6.6-15.084C60.623,17.826,53.614,9.521,45,9.521S29.372,17.826,29.372,28.034a19.777,19.777,0,0,0,6.6,15.084,1.406,1.406,0,0,1-.343,2.364c-1.152.707-9.885,6.261-11.029,12.851" fill="#3b4a62"/>
    <path id="Path_14993" data-name="Path 14993" d="M45,49.361c-10.166,0-18.436-9.567-18.436-21.327S34.832,6.708,45,6.708s18.438,9.568,18.438,21.326S55.164,49.361,45,49.361m0-39.84c-8.615,0-15.624,8.305-15.624,18.513S36.383,46.548,45,46.548s15.625-8.305,15.625-18.514S53.614,9.521,45,9.521" fill="#3b4a62"/>
    <path id="Path_14994" data-name="Path 14994" d="M69.063,29.441a1.406,1.406,0,0,1-1.406-1.406c0-13.839-10.165-25.1-22.66-25.1S22.34,14.2,22.34,28.035a1.406,1.406,0,0,1-2.813,0C19.527,12.645,30.953.125,45,.125s25.472,12.52,25.472,27.91a1.406,1.406,0,0,1-1.406,1.406" fill="#3b4a62"/>
    <path id="Path_14995" data-name="Path 14995" d="M45,54.669a1.406,1.406,0,0,1,0-2.813c12.494,0,22.659-7.5,22.659-16.732a1.407,1.407,0,0,1,2.813,0C70.47,45.9,59.043,54.669,45,54.669" fill="#3b4a62"/>
    <path id="Path_14996" data-name="Path 14996" d="M22.532,20.945h-3.2a1.993,1.993,0,0,0-1.993,1.993V33.132a1.993,1.993,0,0,0,1.993,1.993h3.2a1.993,1.993,0,0,0,1.993-1.993V22.938a1.993,1.993,0,0,0-1.993-1.993" fill="#dda94e"/>
    <path id="Path_14997" data-name="Path 14997" d="M22.532,36.531h-3.2a3.4,3.4,0,0,1-3.4-3.4V22.937a3.4,3.4,0,0,1,3.4-3.4h3.2a3.4,3.4,0,0,1,3.4,3.4V33.131a3.4,3.4,0,0,1-3.4,3.4m-3.2-14.18a.587.587,0,0,0-.586.586V33.131a.587.587,0,0,0,.586.587h3.2a.588.588,0,0,0,.588-.587V22.937a.588.588,0,0,0-.588-.586Z" fill="#3b4a62"/>
    <rect id="Rectangle_3002" data-name="Rectangle 3002" width="8.685" height="4.4" transform="translate(40.656 51.063)" fill="#fff"/>
    <path id="Path_14998" data-name="Path 14998" d="M49.34,56.869H40.655a1.405,1.405,0,0,1-1.406-1.406v-4.4a1.405,1.405,0,0,1,1.406-1.406H49.34a1.405,1.405,0,0,1,1.406,1.406v4.4a1.405,1.405,0,0,1-1.406,1.406m-7.278-2.812h5.872V52.469H42.062Z" fill="#3b4a62"/>
    <path id="Path_14999" data-name="Path 14999" d="M70.661,20.945h-3.2a1.993,1.993,0,0,0-1.993,1.993V33.132a1.993,1.993,0,0,0,1.993,1.993h3.2a1.993,1.993,0,0,0,1.993-1.993V22.938a1.993,1.993,0,0,0-1.993-1.993" fill="#dda94e"/>
    <path id="Path_15000" data-name="Path 15000" d="M70.661,36.531h-3.2a3.4,3.4,0,0,1-3.4-3.4V22.937a3.4,3.4,0,0,1,3.4-3.4h3.2a3.4,3.4,0,0,1,3.4,3.4V33.131a3.4,3.4,0,0,1-3.4,3.4m-3.2-14.18a.587.587,0,0,0-.586.586V33.131a.587.587,0,0,0,.586.587h3.2a.589.589,0,0,0,.588-.587V22.937a.589.589,0,0,0-.588-.586Z" fill="#3b4a62"/>
    <path id="Path_15001" data-name="Path 15001" d="M27.967,28.035s13.119-3.43,13.119-10.05c4.935,4.935,15.55,6.04,20.944,11.434" fill="#fff"/>
    <path id="Path_15002" data-name="Path 15002" d="M62.029,30.825a1.4,1.4,0,0,1-.994-.412c-2.552-2.551-6.558-4.142-10.432-5.681a42.167,42.167,0,0,1-8.632-4.188C39.565,26.289,29.6,29.062,28.323,29.4a1.406,1.406,0,0,1-.711-2.721c3.356-.881,12.068-4.159,12.068-8.689a1.407,1.407,0,0,1,2.4-1c2.206,2.208,5.778,3.627,9.56,5.128,4.14,1.645,8.42,3.344,11.382,6.306a1.407,1.407,0,0,1-.994,2.4" fill="#3b4a62"/>
    <path id="Path_15003" data-name="Path 15003" d="M48.762,40.424A5.394,5.394,0,0,1,45,41.537a5.392,5.392,0,0,1-3.763-1.113" fill="#fff"/>
    <path id="Path_15004" data-name="Path 15004" d="M45,42.944a6.692,6.692,0,0,1-4.765-1.534,1.406,1.406,0,0,1,2-1.972,4.4,4.4,0,0,0,2.76.693,4.311,4.311,0,0,0,2.793-.724,1.427,1.427,0,0,1,1.972.064,1.386,1.386,0,0,1,0,1.939A6.7,6.7,0,0,1,45,42.944" fill="#3b4a62"/>
    <rect id="Rectangle_3003" data-name="Rectangle 3003" width="61.979" height="28.73" transform="translate(14.009 59.74)" fill="#fff"/>
    <path id="Path_15005" data-name="Path 15005" d="M75.988,89.876H14.008A1.406,1.406,0,0,1,12.6,88.469V59.74a1.406,1.406,0,0,1,1.406-1.407h61.98a1.406,1.406,0,0,1,1.406,1.407V88.469a1.406,1.406,0,0,1-1.406,1.407M15.414,87.063H74.581V61.146H15.414Z" fill="#3b4a62"/>
    <rect id="Rectangle_3004" data-name="Rectangle 3004" width="38.833" height="18.001" transform="translate(25.582 70.469)" fill="#dda94e"/>
    <path id="Path_15006" data-name="Path 15006" d="M64.415,89.876H25.581a1.406,1.406,0,0,1-1.406-1.407v-18a1.405,1.405,0,0,1,1.406-1.406H64.415a1.405,1.405,0,0,1,1.406,1.406v18a1.406,1.406,0,0,1-1.406,1.407M26.987,87.063H63.008V71.875H26.987Z" fill="#3b4a62"/>
    <line id="Line_1787" data-name="Line 1787" x2="26.801" transform="translate(31.598 63.906)" fill="#fff"/>
    <path id="Path_15007" data-name="Path 15007" d="M58.4,65.312H31.6a1.406,1.406,0,0,1,0-2.813H58.4a1.406,1.406,0,0,1,0,2.813" fill="#3b4a62"/>
    <path id="Path_15008" data-name="Path 15008" d="M66.929,61.146H23.07a1.406,1.406,0,0,1-1.406-1.406c0-9.242,12.151-16.457,12.669-16.76a1.406,1.406,0,0,1,1.421,2.427c-.106.062-9.936,5.906-11.154,12.926H65.4c-1.218-7.02-11.047-12.864-11.152-12.926a1.406,1.406,0,0,1,1.421-2.427c.518.3,12.667,7.518,12.667,16.76a1.406,1.406,0,0,1-1.406,1.406" fill="#3b4a62"/>
    <path id="Path_15009" data-name="Path 15009" d="M45,78.281h0A6.094,6.094,0,0,0,38.9,84.375v4.094H51.092V84.375A6.094,6.094,0,0,0,45,78.281" fill="#fff"/>
    <path id="Path_15010" data-name="Path 15010" d="M51.093,89.876H38.9A1.406,1.406,0,0,1,37.5,88.469V84.375a7.5,7.5,0,0,1,15,0v4.094a1.406,1.406,0,0,1-1.406,1.407M40.311,87.063h9.375V84.375a4.688,4.688,0,1,0-9.375,0Z" fill="#3b4a62"/>
  </g>
</svg>
