<svg xmlns="http://www.w3.org/2000/svg" xmlns:xlink="http://www.w3.org/1999/xlink" width="175" height="19" viewBox="0 0 175 19">
  <defs>
    <linearGradient id="linear-gradient" y1="0.278" x2="0.958" y2="0.272" gradientUnits="objectBoundingBox">
      <stop offset="0" stop-color="#03488d"/>
      <stop offset="1" stop-color="#5096f8"/>
    </linearGradient>
    <clipPath id="clip-path">
      <path id="Path_28" data-name="Path 28" d="M99.151,78.67a.475.475,0,0,0-.412.713l10.421,18.05a.475.475,0,0,0,.823,0l2.742-4.75a.475.475,0,0,0-.411-.713h-2.222a.475.475,0,0,1-.412-.237l-1.371-2.375a.475.475,0,0,1,.412-.713h6.061a.475.475,0,0,0,.411-.237l1.371-2.375a.475.475,0,0,0-.411-.713h-9.9a.475.475,0,0,1-.412-.237l-1.371-2.375a.475.475,0,0,1,.412-.713h13.739a.475.475,0,0,0,.411-.237l1.371-2.375a.475.475,0,0,0-.411-.713Z" transform="translate(-98.675 -78.67)" fill="url(#linear-gradient)"/>
    </clipPath>
  </defs>
  <g id="Group_8437" data-name="Group 8437" transform="translate(-324.847 -314.395)">
    <path id="Path_20" data-name="Path 20" d="M296.678,691c-2.671,0-3.62,1.124-3.76,3.3H305.9v1.738H292.918c.14,2.16,1.089,3.267,3.76,3.267h9.471v1.861h-9.471c-4.182,0-5.728-2.019-5.728-6.006s1.546-6.006,5.728-6.006h9.471V691Z" transform="translate(63.142 -371.363)"/>
    <path id="Path_21" data-name="Path 21" d="M319,689.159v7.165c0,2.213.984,2.95,3.778,2.95H330.7v1.9h-7.925c-3.918,0-5.71-1.387-5.71-4.847v-7.165Z" transform="translate(56.579 -371.363)"/>
    <path id="Path_22" data-name="Path 22" d="M344.807,691c-2.671,0-3.62,1.124-3.76,3.3h12.985v1.738H341.047c.14,2.16,1.089,3.267,3.76,3.267h9.471v1.861h-9.471c-4.182,0-5.728-2.019-5.728-6.006s1.546-6.006,5.728-6.006h9.471V691Z" transform="translate(51.045 -371.363)"/>
    <path id="Path_23" data-name="Path 23" d="M379.619,691.038h-9.471c-3.075,0-3.742,1.4-3.742,4.127s.685,4.109,3.742,4.109h9.471v1.9h-9.471c-4.164,0-5.728-2-5.728-6.007,0-3.987,1.546-6.006,5.728-6.006h9.471Z" transform="translate(44.675 -371.363)"/>
    <path id="Path_24" data-name="Path 24" d="M395.261,701.172V690.915h-6.2V689.16H403.4v1.756h-6.2v10.257Z" transform="translate(38.484 -371.364)"/>
    <path id="Path_25" data-name="Path 25" d="M412.619,689.159h10.368c2.934,0,4.551,1.44,4.551,3.671a3.14,3.14,0,0,1-2.583,3.232,2.809,2.809,0,0,1,2.284,2.809v2.3h-2v-2.336c0-.965-.615-1.9-2.32-1.9h-8.364v4.232h-1.933Zm10.508,6.059a2.183,2.183,0,1,0,0-4.338h-8.575v4.338Z" transform="translate(32.561 -371.363)"/>
    <path id="Path_26" data-name="Path 26" d="M437.023,689.159h1.933v6.27c0,3.161,1.177,4.022,5.412,4.022,4.253,0,5.412-.86,5.412-4.022v-6.27h1.951v6.27c0,4.3-1.985,5.919-7.362,5.919-5.307,0-7.345-1.581-7.345-5.919Z" transform="translate(26.38 -371.363)"/>
    <path id="Path_27" data-name="Path 27" d="M463.77,691.266v9.905h-1.9V689.159h1.862a1.589,1.589,0,0,1,1.335.72l5.693,6.8,5.711-6.8a1.605,1.605,0,0,1,1.335-.72h1.863v12.012h-1.9v-9.905l-6.22,7.324h-1.564Z" transform="translate(20.174 -371.363)"/>
    <g id="Group_5978" data-name="Group 5978" transform="translate(226.172 235.725)">
      <g id="Group_5" data-name="Group 5" transform="translate(98.675 78.67)" clip-path="url(#clip-path)">
        <rect id="Rectangle_20" data-name="Rectangle 20" width="22.03" height="19.079" transform="translate(-0.118 0)" fill="url(#linear-gradient)"/>
      </g>
    </g>
  </g>
</svg>
